Mayek_Rounded-Light.ufo
<glyph name="percent" format="1">
  <advance width="721"/>
  <unicode hex="0025"/>
  <note>
	percent
  </note>
  <outline>
    <contour>
      <point x="554" y="550" type="line"/>
      <point x="601" y="550" type="line"/>
      <point x="178" y="0" type="line"/>
      <point x="130" y="0" type="line"/>
    </contour>
    <contour>
      <point x="132" y="241"/>
      <point x="70" y="310"/>
      <point x="70" y="395" type="curve" smooth="yes"/>
      <point x="70" y="480"/>
      <point x="132" y="550"/>
      <point x="209" y="550" type="curve" smooth="yes"/>
      <point x="285" y="550"/>
      <point x="347" y="480"/>
      <point x="347" y="395" type="curve" smooth="yes"/>
      <point x="347" y="310"/>
      <point x="285" y="241"/>
      <point x="209" y="241" type="curve" smooth="yes"/>
    </contour>
    <contour>
      <point x="248" y="277"/>
      <point x="280" y="330"/>
      <point x="280" y="395" type="curve" smooth="yes"/>
      <point x="280" y="460"/>
      <point x="248" y="514"/>
      <point x="209" y="514" type="curve" smooth="yes"/>
      <point x="169" y="514"/>
      <point x="137" y="460"/>
      <point x="137" y="395" type="curve" smooth="yes"/>
      <point x="137" y="330"/>
      <point x="169" y="277"/>
      <point x="209" y="277" type="curve" smooth="yes"/>
    </contour>
    <contour>
      <point x="436" y="0"/>
      <point x="374" y="66"/>
      <point x="374" y="149" type="curve" smooth="yes"/>
      <point x="374" y="232"/>
      <point x="436" y="298"/>
      <point x="512" y="298" type="curve" smooth="yes"/>
      <point x="589" y="298"/>
      <point x="651" y="232"/>
      <point x="651" y="149" type="curve" smooth="yes"/>
      <point x="651" y="66"/>
      <point x="589" y="0"/>
      <point x="512" y="0" type="curve" smooth="yes"/>
    </contour>
    <contour>
      <point x="552" y="36"/>
      <point x="584" y="86"/>
      <point x="584" y="149" type="curve" smooth="yes"/>
      <point x="584" y="212"/>
      <point x="552" y="262"/>
      <point x="512" y="262" type="curve" smooth="yes"/>
      <point x="473" y="262"/>
      <point x="441" y="212"/>
      <point x="441" y="149" type="curve" smooth="yes"/>
      <point x="441" y="86"/>
      <point x="473" y="36"/>
      <point x="512" y="36" type="curve" smooth="yes"/>
    </contour>
  </outline>
</glyph>
<glyph name="quotesingle" format="1">
  <advance width="141"/>
  <unicode hex="0027"/>
  <note>
	quotesingle
  </note>
  <outline>
    <contour>
      <point x="95" y="700" type="line"/>
      <point x="141" y="500" type="line"/>
      <point x="109" y="500" type="line"/>
      <point x="0" y="700" type="line"/>
    </contour>
  </outline>
</glyph>
<glyph name="parenleft" format="1">
  <advance width="325"/>
  <unicode hex="0028"/>
  <note>
	parenleft
  </note>
  <outline>
    <contour>
      <point x="127" y="-27"/>
      <point x="70" y="109"/>
      <point x="70" y="252" type="curve" smooth="yes"/>
      <point x="70" y="377"/>
      <point x="124" y="511"/>
      <point x="224" y="630" type="curve"/>
      <point x="255" y="615" type="line"/>
      <point x="172" y="518"/>
      <point x="128" y="389"/>
      <point x="128" y="252" type="curve" smooth="yes"/>
      <point x="128" y="116"/>
      <point x="172" y="-12"/>
      <point x="255" y="-109" type="curve"/>
      <point x="230" y="-130" type="line"/>
    </contour>
  </outline>
</glyph>
<glyph name="plus" format="1">
  <advance width="600"/>
  <unicode hex="002B"/>
  <note>
	plus
  </note>
  <outline>
    <contour>
      <point x="272" y="222" type="line"/>
      <point x="70" y="222" type="line"/>
      <point x="70" y="278" type="line"/>
      <point x="272" y="278" type="line"/>
      <point x="272" y="480" type="line"/>
      <point x="319" y="480" type="line"/>
      <point x="319" y="278" type="line"/>
      <point x="530" y="278" type="line"/>
      <point x="530" y="222" type="line"/>
      <point x="319" y="222" type="line"/>
      <point x="319" y="20" type="line"/>
      <point x="272" y="20" type="line"/>
    </contour>
  </outline>
</glyph>
<glyph name="comma" format="1">
  <advance width="200"/>
  <unicode hex="002C"/>
  <outline>
    <contour>
      <point x="123" y="-101"/>
      <point x="167" y="-64"/>
      <point x="167" y="-10" type="curve" smooth="yes"/>
      <point x="167" y="25"/>
      <point x="145" y="63"/>
      <point x="106" y="63" type="curve" smooth="yes"/>
      <point x="82" y="63"/>
      <point x="65" y="48"/>
      <point x="65" y="26" type="curve" smooth="yes"/>
      <point x="65" y="4"/>
      <point x="82" y="-12"/>
      <point x="103" y="-12" type="curve" smooth="yes"/>
      <point x="129" y="-12"/>
      <point x="138" y="11"/>
      <point x="138" y="27" type="curve"/>
      <point x="120" y="13" type="line"/>
      <point x="130" y="4"/>
      <point x="135" y="-7"/>
      <point x="135" y="-21" type="curve" smooth="yes"/>
      <point x="135" y="-47"/>
      <point x="116" y="-66"/>
      <point x="97" y="-75" type="curve" smooth="yes"/>
      <point x="87" y="-80"/>
      <point x="84" y="-84"/>
      <point x="84" y="-89" type="curve" smooth="yes"/>
      <point x="84" y="-96"/>
      <point x="89" y="-101"/>
      <point x="98" y="-101" type="curve" smooth="yes"/>
    </contour>
  </outline>
</glyph>
<glyph name="period" format="1">
  <advance width="263"/>
  <unicode hex="002E"/>
  <note>
	period
  </note>
  <outline>
    <contour>
      <point x="97" y="-5"/>
      <point x="70" y="20"/>
      <point x="70" y="52" type="curve" smooth="yes"/>
      <point x="70" y="85"/>
      <point x="97" y="113"/>
      <point x="132" y="113" type="curve" smooth="yes"/>
      <point x="165" y="113"/>
      <point x="193" y="85"/>
      <point x="193" y="52" type="curve" smooth="yes"/>
      <point x="193" y="20"/>
      <point x="165" y="-5"/>
      <point x="132" y="-5" type="curve" smooth="yes"/>
    </contour>
  </outline>
</glyph>
<glyph name="slash" format="1">
  <advance width="476"/>
  <unicode hex="002F"/>
  <note>
	slash
  </note>
  <outline>
    <contour>
      <point x="355" y="630" type="line"/>
      <point x="406" y="630" type="line"/>
      <point x="121" y="-130" type="line"/>
      <point x="70" y="-130" type="line"/>
    </contour>
  </outline>
</glyph>
<glyph name="one" format="1">
  <advance width="401"/>
  <unicode hex="0031"/>
  <note>
	one
  </note>
  <outline>
    <contour>
      <point x="95" y="31" type="line"/>
      <point x="125" y="31" type="line" smooth="yes"/>
      <point x="150" y="31"/>
      <point x="171" y="46"/>
      <point x="171" y="63" type="curve" smooth="yes"/>
      <point x="171" y="457" type="line" smooth="yes"/>
      <point x="171" y="464"/>
      <point x="162" y="470"/>
      <point x="153" y="470" type="curve" smooth="yes"/>
      <point x="149" y="470"/>
      <point x="143" y="468"/>
      <point x="135" y="465" type="curve" smooth="yes"/>
      <point x="127" y="462"/>
      <point x="117" y="457"/>
      <point x="106" y="450" type="curve"/>
      <point x="94" y="480" type="line"/>
      <point x="238" y="558" type="line"/>
      <point x="238" y="68" type="line" smooth="yes"/>
      <point x="238" y="48"/>
      <point x="255" y="31"/>
      <point x="278" y="31" type="curve" smooth="yes"/>
      <point x="307" y="31" type="line"/>
      <point x="307" y="0" type="line"/>
      <point x="95" y="0" type="line"/>
    </contour>
  </outline>
</glyph>
<glyph name="four" format="1">
  <advance width="401"/>
  <unicode hex="0034"/>
  <note>
	four
  </note>
  <outline>
    <contour>
      <point x="240" y="136" type="line"/>
      <point x="25" y="136" type="line"/>
      <point x="25" y="193" type="line"/>
      <point x="262" y="550" type="line"/>
      <point x="285" y="550" type="line"/>
      <point x="285" y="194" type="line"/>
      <point x="376" y="194" type="line"/>
      <point x="376" y="136" type="line"/>
      <point x="285" y="136" type="line"/>
      <point x="285" y="0" type="line"/>
      <point x="240" y="0" type="line"/>
    </contour>
    <contour>
      <point x="240" y="194" type="line"/>
      <point x="240" y="453" type="line"/>
      <point x="67" y="194" type="line"/>
    </contour>
  </outline>
</glyph>
<glyph name="eight" format="1">
  <advance width="400"/>
  <unicode hex="0038"/>
  <note>
	eight
  </note>
  <outline>
    <contour>
      <point x="122" y="-8"/>
      <point x="52" y="55"/>
      <point x="52" y="134" type="curve" smooth="yes"/>
      <point x="52" y="185"/>
      <point x="91" y="238"/>
      <point x="155" y="275" type="curve"/>
      <point x="96" y="316"/>
      <point x="62" y="370"/>
      <point x="62" y="419" type="curve" smooth="yes"/>
      <point x="62" y="496"/>
      <point x="121" y="558"/>
      <point x="193" y="558" type="curve" smooth="yes"/>
      <point x="274" y="558"/>
      <point x="334" y="509"/>
      <point x="334" y="442" type="curve" smooth="yes"/>
      <point x="334" y="393"/>
      <point x="298" y="341"/>
      <point x="238" y="306" type="curve"/>
      <point x="306" y="267"/>
      <point x="348" y="200"/>
      <point x="348" y="131" type="curve" smooth="yes"/>
      <point x="348" y="54"/>
      <point x="284" y="-8"/>
      <point x="207" y="-8" type="curve" smooth="yes"/>
    </contour>
    <contour>
      <point x="255" y="25"/>
      <point x="295" y="65"/>
      <point x="295" y="116" type="curve" smooth="yes"/>
      <point x="295" y="159"/>
      <point x="248" y="213"/>
      <point x="172" y="257" type="curve"/>
      <point x="136" y="226"/>
      <point x="115" y="178"/>
      <point x="115" y="123" type="curve" smooth="yes"/>
      <point x="115" y="68"/>
      <point x="156" y="25"/>
      <point x="207" y="25" type="curve" smooth="yes"/>
    </contour>
    <contour>
      <point x="254" y="350"/>
      <point x="281" y="399"/>
      <point x="281" y="450" type="curve" smooth="yes"/>
      <point x="281" y="491"/>
      <point x="241" y="525"/>
      <point x="193" y="525" type="curve" smooth="yes"/>
      <point x="152" y="525"/>
      <point x="118" y="495"/>
      <point x="118" y="458" type="curve" smooth="yes"/>
      <point x="118" y="411"/>
      <point x="153" y="359"/>
      <point x="210" y="319" type="curve"/>
    </contour>
  </outline>
</glyph>
<glyph name="nine" format="1">
  <advance width="400"/>
  <unicode hex="0039"/>
  <note>
	nine
  </note>
  <outline>
    <contour>
      <point x="63" y="21" type="line"/>
      <point x="180" y="53"/>
      <point x="267" y="140"/>
      <point x="286" y="244" type="curve"/>
      <point x="254" y="217"/>
      <point x="216" y="203"/>
      <point x="176" y="203" type="curve" smooth="yes"/>
      <point x="99" y="203"/>
      <point x="35" y="275"/>
      <point x="35" y="364" type="curve" smooth="yes"/>
      <point x="35" y="471"/>
      <point x="105" y="558"/>
      <point x="190" y="558" type="curve" smooth="yes"/>
      <point x="286" y="558"/>
      <point x="365" y="445"/>
      <point x="365" y="305" type="curve" smooth="yes"/>
      <point x="365" y="154"/>
      <point x="242" y="21"/>
      <point x="71" y="-8" type="curve"/>
    </contour>
    <contour>
      <point x="241" y="251"/>
      <point x="272" y="260"/>
      <point x="292" y="277" type="curve"/>
      <point x="292" y="361"/>
      <point x="283" y="425"/>
      <point x="264" y="468" type="curve" smooth="yes"/>
      <point x="246" y="511"/>
      <point x="219" y="532"/>
      <point x="183" y="532" type="curve" smooth="yes"/>
      <point x="142" y="532"/>
      <point x="108" y="466"/>
      <point x="108" y="386" type="curve" smooth="yes"/>
      <point x="108" y="311"/>
      <point x="151" y="251"/>
      <point x="204" y="251" type="curve" smooth="yes"/>
    </contour>
  </outline>
</glyph>
<glyph name="colon" format="1">
  <advance width="263"/>
  <unicode hex="003A"/>
  <note>
	colon
  </note>
  <outline>
    <contour>
      <point x="97" y="5"/>
      <point x="70" y="33"/>
      <point x="70" y="66" type="curve" smooth="yes"/>
      <point x="70" y="101"/>
      <point x="97" y="128"/>
      <point x="132" y="128" type="curve" smooth="yes"/>
      <point x="165" y="128"/>
      <point x="193" y="101"/>
      <point x="193" y="66" type="curve" smooth="yes"/>
      <point x="193" y="33"/>
      <point x="165" y="5"/>
      <point x="132" y="5" type="curve" smooth="yes"/>
    </contour>
    <contour>
      <point x="97" y="273"/>
      <point x="70" y="301"/>
      <point x="70" y="334" type="curve" smooth="yes"/>
      <point x="70" y="369"/>
      <point x="97" y="396"/>
      <point x="132" y="396" type="curve" smooth="yes"/>
      <point x="165" y="396"/>
      <point x="193" y="369"/>
      <point x="193" y="334" type="curve" smooth="yes"/>
      <point x="193" y="301"/>
      <point x="165" y="273"/>
      <point x="132" y="273" type="curve" smooth="yes"/>
    </contour>
  </outline>
</glyph>
<glyph name="semicolon" format="1">
  <advance width="374"/>
  <unicode hex="003B"/>
  <note>
	semicolon
  </note>
  <outline>
    <contour>
      <point x="140" y="-132" type="line"/>
      <point x="175" y="-108"/>
      <point x="202" y="-86"/>
      <point x="221" y="-65" type="curve" smooth="yes"/>
      <point x="240" y="-44"/>
      <point x="250" y="-26"/>
      <point x="250" y="-13" type="curve" smooth="yes"/>
      <point x="250" y="-4"/>
      <point x="233" y="5"/>
      <point x="212" y="5" type="curve" smooth="yes"/>
      <point x="173" y="5"/>
      <point x="141" y="33"/>
      <point x="141" y="66" type="curve" smooth="yes"/>
      <point x="141" y="98"/>
      <point x="173" y="123"/>
      <point x="212" y="123" type="curve" smooth="yes"/>
      <point x="263" y="123"/>
      <point x="304" y="85"/>
      <point x="304" y="37" type="curve" smooth="yes"/>
      <point x="304" y="-31"/>
      <point x="250" y="-103"/>
      <point x="163" y="-154" type="curve"/>
    </contour>
    <contour>
      <point x="179" y="273"/>
      <point x="151" y="301"/>
      <point x="151" y="334" type="curve" smooth="yes"/>
      <point x="151" y="366"/>
      <point x="179" y="391"/>
      <point x="212" y="391" type="curve" smooth="yes"/>
      <point x="247" y="391"/>
      <point x="274" y="366"/>
      <point x="274" y="334" type="curve" smooth="yes"/>
      <point x="274" y="301"/>
      <point x="247" y="273"/>
      <point x="212" y="273" type="curve" smooth="yes"/>
    </contour>
  </outline>
</glyph>
<glyph name="less" format="1">
  <advance width="533"/>
  <unicode hex="003C"/>
  <note>
	less
  </note>
  <outline>
    <contour>
      <point x="70" y="287" type="line"/>
      <point x="463" y="501" type="line"/>
      <point x="463" y="457" type="line"/>
      <point x="161" y="250" type="line"/>
      <point x="463" y="43" type="line"/>
      <point x="463" y="-1" type="line"/>
      <point x="70" y="209" type="line"/>
    </contour>
  </outline>
</glyph>
<glyph name="equal" format="1">
  <advance width="541"/>
  <unicode hex="003D"/>
  <note>
	equal
  </note>
  <outline>
    <contour>
      <point x="70" y="200" type="line"/>
      <point x="471" y="200" type="line"/>
      <point x="471" y="146" type="line"/>
      <point x="70" y="146" type="line"/>
    </contour>
    <contour>
      <point x="70" y="353" type="line"/>
      <point x="471" y="353" type="line"/>
      <point x="471" y="300" type="line"/>
      <point x="70" y="300" type="line"/>
    </contour>
  </outline>
</glyph>
<glyph name="A" format="1">
  <advance width="598"/>
  <unicode hex="0041"/>
  <note>
	A
  </note>
  <outline>
    <contour>
      <point x="5" y="14" type="line"/>
      <point x="32" y="14"/>
      <point x="63" y="47"/>
      <point x="83" y="98" type="curve" smooth="yes"/>
      <point x="288" y="604" type="line"/>
      <point x="300" y="604" type="line"/>
      <point x="518" y="98" type="line" smooth="yes"/>
      <point x="539" y="47"/>
      <point x="569" y="14"/>
      <point x="592" y="14" type="curve"/>
      <point x="592" y="0" type="line"/>
      <point x="408" y="0" type="line"/>
      <point x="408" y="14" type="line"/>
      <point x="412" y="14" type="line" smooth="yes"/>
      <point x="440" y="14"/>
      <point x="462" y="32"/>
      <point x="462" y="53" type="curve" smooth="yes"/>
      <point x="462" y="61"/>
      <point x="458" y="75"/>
      <point x="449" y="96" type="curve" smooth="yes"/>
      <point x="403" y="202" type="line"/>
      <point x="158" y="202" type="line"/>
      <point x="120" y="107" type="line" smooth="yes"/>
      <point x="108" y="77"/>
      <point x="102" y="58"/>
      <point x="102" y="49" type="curve" smooth="yes"/>
      <point x="102" y="30"/>
      <point x="119" y="14"/>
      <point x="139" y="14" type="curve" smooth="yes"/>
      <point x="148" y="14" type="line"/>
      <point x="148" y="0" type="line"/>
      <point x="5" y="0" type="line"/>
    </contour>
    <contour>
      <point x="395" y="227" type="line"/>
      <point x="282" y="510" type="line"/>
      <point x="168" y="227" type="line"/>
    </contour>
  </outline>
</glyph>
<glyph name="B" format="1">
  <advance width="529"/>
  <unicode hex="0042"/>
  <note>
	B
  </note>
  <outline>
    <contour>
      <point x="6" y="15" type="line"/>
      <point x="53" y="15"/>
      <point x="90" y="49"/>
      <point x="90" y="90" type="curve" smooth="yes"/>
      <point x="90" y="522" type="line" smooth="yes"/>
      <point x="90" y="559"/>
      <point x="53" y="590"/>
      <point x="6" y="590" type="curve"/>
      <point x="6" y="604" type="line"/>
      <point x="292" y="604" type="line" smooth="yes"/>
      <point x="396" y="604"/>
      <point x="472" y="544"/>
      <point x="472" y="463" type="curve" smooth="yes"/>
      <point x="472" y="398"/>
      <point x="419" y="337"/>
      <point x="342" y="317" type="curve"/>
      <point x="430" y="301"/>
      <point x="494" y="237"/>
      <point x="494" y="162" type="curve" smooth="yes"/>
      <point x="494" y="73"/>
      <point x="412" y="0"/>
      <point x="309" y="0" type="curve" smooth="yes"/>
      <point x="6" y="0" type="line"/>
    </contour>
    <contour>
      <point x="343" y="22"/>
      <point x="426" y="85"/>
      <point x="426" y="162" type="curve" smooth="yes"/>
      <point x="426" y="243"/>
      <point x="349" y="302"/>
      <point x="242" y="302" type="curve" smooth="yes"/>
      <point x="150" y="302" type="line"/>
      <point x="150" y="66" type="line" smooth="yes"/>
      <point x="150" y="42"/>
      <point x="191" y="22"/>
      <point x="242" y="22" type="curve" smooth="yes"/>
    </contour>
    <contour>
      <point x="337" y="324"/>
      <point x="405" y="375"/>
      <point x="405" y="446" type="curve" smooth="yes"/>
      <point x="405" y="529"/>
      <point x="334" y="582"/>
      <point x="225" y="582" type="curve" smooth="yes"/>
      <point x="184" y="582"/>
      <point x="150" y="566"/>
      <point x="150" y="547" type="curve" smooth="yes"/>
      <point x="150" y="324" type="line"/>
      <point x="242" y="324" type="line" smooth="yes"/>
    </contour>
  </outline>
</glyph>
<glyph name="C" format="1">
  <advance width="577"/>
  <unicode hex="0043"/>
  <note>
	C
  </note>
  <outline>
    <contour>
      <point x="152" y="-6"/>
      <point x="38" y="110"/>
      <point x="38" y="286" type="curve" smooth="yes"/>
      <point x="38" y="482"/>
      <point x="156" y="609"/>
      <point x="336" y="609" type="curve" smooth="yes"/>
      <point x="367" y="609"/>
      <point x="397" y="604"/>
      <point x="426" y="593" type="curve" smooth="yes"/>
      <point x="457" y="582"/>
      <point x="478" y="576"/>
      <point x="487" y="576" type="curve" smooth="yes"/>
      <point x="507" y="576"/>
      <point x="523" y="588"/>
      <point x="526" y="604" type="curve"/>
      <point x="539" y="604" type="line"/>
      <point x="545" y="411" type="line"/>
      <point x="531" y="411" type="line"/>
      <point x="504" y="511"/>
      <point x="424" y="580"/>
      <point x="336" y="580" type="curve" smooth="yes"/>
      <point x="197" y="580"/>
      <point x="106" y="463"/>
      <point x="106" y="286" type="curve" smooth="yes"/>
      <point x="106" y="129"/>
      <point x="201" y="26"/>
      <point x="345" y="26" type="curve" smooth="yes"/>
      <point x="414" y="26"/>
      <point x="484" y="61"/>
      <point x="537" y="122" type="curve"/>
      <point x="548" y="110" type="line"/>
      <point x="495" y="37"/>
      <point x="413" y="-6"/>
      <point x="328" y="-6" type="curve" smooth="yes"/>
    </contour>
  </outline>
</glyph>
<glyph name="F" format="1">
  <advance width="475"/>
  <unicode hex="0046"/>
  <outline>
    <contour>
      <point x="148" y="508" type="curve" smooth="yes"/>
      <point x="148" y="23" type="line" smooth="yes"/>
      <point x="148" y="9"/>
      <point x="137" y="-2"/>
      <point x="123" y="-2" type="curve" smooth="yes"/>
      <point x="110" y="-2"/>
      <point x="98" y="10"/>
      <point x="98" y="23" type="curve" smooth="yes"/>
      <point x="98" y="508" type="line" smooth="yes"/>
      <point x="98" y="522"/>
      <point x="110" y="533"/>
      <point x="123" y="533" type="curve" smooth="yes"/>
      <point x="137" y="533"/>
      <point x="148" y="522"/>
    </contour>
    <contour>
      <point x="131" y="533" type="curve" smooth="yes"/>
      <point x="408" y="533" type="line" smooth="yes"/>
      <point x="422" y="533"/>
      <point x="433" y="522"/>
      <point x="433" y="508" type="curve" smooth="yes"/>
      <point x="433" y="495"/>
      <point x="422" y="483"/>
      <point x="408" y="483" type="curve" smooth="yes"/>
      <point x="131" y="483" type="line" smooth="yes"/>
      <point x="118" y="483"/>
      <point x="106" y="495"/>
      <point x="106" y="508" type="curve" smooth="yes"/>
      <point x="106" y="522"/>
      <point x="118" y="533"/>
    </contour>
    <contour>
      <point x="131" y="290" type="curve" smooth="yes"/>
      <point x="357" y="290" type="line" smooth="yes"/>
      <point x="371" y="290"/>
      <point x="382" y="279"/>
      <point x="382" y="265" type="curve" smooth="yes"/>
      <point x="382" y="252"/>
      <point x="371" y="240"/>
      <point x="357" y="240" type="curve" smooth="yes"/>
      <point x="131" y="240" type="line" smooth="yes"/>
      <point x="118" y="240"/>
      <point x="106" y="252"/>
      <point x="106" y="265" type="curve" smooth="yes"/>
      <point x="106" y="279"/>
      <point x="118" y="290"/>
    </contour>
  </outline>
</glyph>
<glyph name="I" format="1">
  <advance width="256"/>
  <unicode hex="0049"/>
  <outline>
    <contour>
      <point x="153" y="508" type="curve" smooth="yes"/>
      <point x="153" y="23" type="line" smooth="yes"/>
      <point x="153" y="9"/>
      <point x="142" y="-2"/>
      <point x="128" y="-2" type="curve" smooth="yes"/>
      <point x="115" y="-2"/>
      <point x="103" y="10"/>
      <point x="103" y="23" type="curve" smooth="yes"/>
      <point x="103" y="508" type="line" smooth="yes"/>
      <point x="103" y="522"/>
      <point x="115" y="533"/>
      <point x="128" y="533" type="curve" smooth="yes"/>
      <point x="142" y="533"/>
      <point x="153" y="522"/>
    </contour>
  </outline>
</glyph>
<glyph name="J" format="1">
  <advance width="299"/>
  <unicode hex="004A"/>
  <note>
	J
  </note>
  <outline>
    <contour>
      <point x="45" y="-6"/>
      <point x="10" y="23"/>
      <point x="10" y="59" type="curve" smooth="yes"/>
      <point x="10" y="79"/>
      <point x="25" y="96"/>
      <point x="44" y="96" type="curve" smooth="yes"/>
      <point x="57" y="96"/>
      <point x="70" y="83"/>
      <point x="73" y="64" type="curve" smooth="yes"/>
      <point x="77" y="41"/>
      <point x="95" y="24"/>
      <point x="115" y="24" type="curve" smooth="yes"/>
      <point x="140" y="24"/>
      <point x="161" y="49"/>
      <point x="161" y="81" type="curve" smooth="yes"/>
      <point x="161" y="514" type="line" smooth="yes"/>
      <point x="161" y="555"/>
      <point x="123" y="589"/>
      <point x="78" y="589" type="curve"/>
      <point x="78" y="604" type="line"/>
      <point x="295" y="604" type="line"/>
      <point x="295" y="589" type="line"/>
      <point x="254" y="589"/>
      <point x="220" y="555"/>
      <point x="220" y="514" type="curve" smooth="yes"/>
      <point x="220" y="154" type="line" smooth="yes"/>
      <point x="220" y="49"/>
      <point x="174" y="-6"/>
      <point x="86" y="-6" type="curve" smooth="yes"/>
    </contour>
  </outline>
</glyph>
<glyph name="K" format="1">
  <advance width="590"/>
  <unicode hex="004B"/>
  <note>
	K
  </note>
  <outline>
    <contour>
      <point x="6" y="15" type="line"/>
      <point x="53" y="15"/>
      <point x="90" y="38"/>
      <point x="90" y="66" type="curve" smooth="yes"/>
      <point x="90" y="538" type="line" smooth="yes"/>
      <point x="90" y="567"/>
      <point x="53" y="590"/>
      <point x="6" y="590" type="curve"/>
      <point x="6" y="604" type="line"/>
      <point x="224" y="604" type="line"/>
      <point x="224" y="590" type="line"/>
      <point x="183" y="590"/>
      <point x="149" y="567"/>
      <point x="149" y="538" type="curve" smooth="yes"/>
      <point x="149" y="314" type="line"/>
      <point x="397" y="534" type="line" smooth="yes"/>
      <point x="410" y="546"/>
      <point x="417" y="556"/>
      <point x="417" y="564" type="curve" smooth="yes"/>
      <point x="417" y="579"/>
      <point x="390" y="590"/>
      <point x="358" y="590" type="curve"/>
      <point x="358" y="604" type="line"/>
      <point x="559" y="604" type="line"/>
      <point x="559" y="590" type="line"/>
      <point x="522" y="590"/>
      <point x="474" y="564"/>
      <point x="423" y="519" type="curve" smooth="yes"/>
      <point x="234" y="346" type="line"/>
      <point x="498" y="73" type="line" smooth="yes"/>
      <point x="534" y="36"/>
      <point x="566" y="14"/>
      <point x="585" y="14" type="curve"/>
      <point x="585" y="0" type="line"/>
      <point x="366" y="0" type="line"/>
      <point x="366" y="15" type="line"/>
      <point x="397" y="15"/>
      <point x="421" y="29"/>
      <point x="421" y="45" type="curve" smooth="yes"/>
      <point x="421" y="48"/>
      <point x="419" y="52"/>
      <point x="416" y="57" type="curve" smooth="yes"/>
      <point x="413" y="62"/>
      <point x="408" y="67"/>
      <point x="401" y="74" type="curve" smooth="yes"/>
      <point x="185" y="302" type="line"/>
      <point x="149" y="272" type="line"/>
      <point x="149" y="66" type="line" smooth="yes"/>
      <point x="149" y="38"/>
      <point x="183" y="15"/>
      <point x="224" y="15" type="curve"/>
      <point x="224" y="0" type="line"/>
      <point x="6" y="0" type="line"/>
    </contour>
  </outline>
</glyph>
<glyph name="L" format="1">
  <advance width="459"/>
  <unicode hex="004C"/>
  <outline>
    <contour>
      <point x="148" y="508" type="curve" smooth="yes"/>
      <point x="148" y="23" type="line" smooth="yes"/>
      <point x="148" y="9"/>
      <point x="137" y="-2"/>
      <point x="123" y="-2" type="curve" smooth="yes"/>
      <point x="110" y="-2"/>
      <point x="98" y="10"/>
      <point x="98" y="23" type="curve" smooth="yes"/>
      <point x="98" y="508" type="line" smooth="yes"/>
      <point x="98" y="522"/>
      <point x="110" y="533"/>
      <point x="123" y="533" type="curve" smooth="yes"/>
      <point x="137" y="533"/>
      <point x="148" y="522"/>
    </contour>
    <contour>
      <point x="131" y="48" type="curve" smooth="yes"/>
      <point x="394" y="48" type="line" smooth="yes"/>
      <point x="408" y="48"/>
      <point x="419" y="37"/>
      <point x="419" y="23" type="curve" smooth="yes"/>
      <point x="419" y="10"/>
      <point x="408" y="-2"/>
      <point x="394" y="-2" type="curve" smooth="yes"/>
      <point x="131" y="-2" type="line" smooth="yes"/>
      <point x="118" y="-2"/>
      <point x="106" y="10"/>
      <point x="106" y="23" type="curve" smooth="yes"/>
      <point x="106" y="37"/>
      <point x="118" y="48"/>
    </contour>
  </outline>
</glyph>
<glyph name="N" format="1">
  <advance width="611"/>
  <unicode hex="004E"/>
  <note>
	N
  </note>
  <outline>
    <contour>
      <point x="12" y="15" type="line"/>
      <point x="51" y="15"/>
      <point x="83" y="49"/>
      <point x="83" y="90" type="curve" smooth="yes"/>
      <point x="83" y="535" type="line"/>
      <point x="68" y="552"/>
      <point x="55" y="566"/>
      <point x="42" y="576" type="curve" smooth="yes"/>
      <point x="30" y="585"/>
      <point x="20" y="590"/>
      <point x="12" y="590" type="curve"/>
      <point x="12" y="604" type="line"/>
      <point x="129" y="604" type="line"/>
      <point x="502" y="119" type="line"/>
      <point x="502" y="518" type="line" smooth="yes"/>
      <point x="502" y="558"/>
      <point x="472" y="590"/>
      <point x="435" y="590" type="curve"/>
      <point x="435" y="604" type="line"/>
      <point x="607" y="604" type="line"/>
      <point x="607" y="590" type="line"/>
      <point x="566" y="590"/>
      <point x="532" y="558"/>
      <point x="532" y="518" type="curve" smooth="yes"/>
      <point x="532" y="0" type="line"/>
      <point x="511" y="0" type="line"/>
      <point x="114" y="506" type="line"/>
      <point x="114" y="90" type="line" smooth="yes"/>
      <point x="114" y="49"/>
      <point x="147" y="15"/>
      <point x="188" y="15" type="curve"/>
      <point x="188" y="0" type="line"/>
      <point x="12" y="0" type="line"/>
    </contour>
  </outline>
</glyph>
<glyph name="Q" format="1">
  <advance width="640"/>
  <unicode hex="0051"/>
  <outline>
    <contour>
      <point x="342" y="17" type="curve" smooth="yes"/>
      <point x="359" y="-47"/>
      <point x="421" y="-95"/>
      <point x="512" y="-95" type="curve" smooth="yes"/>
      <point x="526" y="-95"/>
      <point x="537" y="-107"/>
      <point x="537" y="-120" type="curve" smooth="yes"/>
      <point x="537" y="-134"/>
      <point x="526" y="-145"/>
      <point x="512" y="-145" type="curve" smooth="yes"/>
      <point x="391" y="-145"/>
      <point x="315" y="-77"/>
      <point x="294" y="5" type="curve" smooth="yes"/>
      <point x="290" y="18"/>
      <point x="299" y="32"/>
      <point x="312" y="35" type="curve" smooth="yes"/>
      <point x="325" y="39"/>
      <point x="339" y="30"/>
    </contour>
    <contour>
      <point x="322" y="542" type="curve" smooth="yes"/>
      <point x="464" y="542"/>
      <point x="579" y="429"/>
      <point x="579" y="265" type="curve" smooth="yes"/>
      <point x="579" y="109"/>
      <point x="484" y="-11"/>
      <point x="322" y="-11" type="curve" smooth="yes"/>
      <point x="169" y="-11"/>
      <point x="61" y="109"/>
      <point x="61" y="262" type="curve"/>
      <point x="61" y="429"/>
      <point x="167" y="542"/>
    </contour>
    <contour>
      <point x="322" y="492" type="curve" smooth="yes"/>
      <point x="195" y="492"/>
      <point x="111" y="397"/>
      <point x="111" y="262" type="curve" smooth="yes"/>
      <point x="111" y="139"/>
      <point x="197" y="39"/>
      <point x="322" y="39" type="curve" smooth="yes"/>
      <point x="454" y="39"/>
      <point x="529" y="139"/>
      <point x="529" y="265" type="curve" smooth="yes"/>
      <point x="529" y="397"/>
      <point x="438" y="492"/>
    </contour>
  </outline>
</glyph>
<glyph name="T" format="1">
  <advance width="540"/>
  <unicode hex="0054"/>
  <note>
	T
  </note>
  <outline>
    <contour>
      <point x="153" y="15" type="line"/>
      <point x="166" y="15" type="line" smooth="yes"/>
      <point x="207" y="15"/>
      <point x="241" y="44"/>
      <point x="241" y="80" type="curve" smooth="yes"/>
      <point x="241" y="574" type="line"/>
      <point x="136" y="574" type="line" smooth="yes"/>
      <point x="95" y="574"/>
      <point x="52" y="523"/>
      <point x="32" y="448" type="curve"/>
      <point x="18" y="448" type="line"/>
      <point x="27" y="604" type="line"/>
      <point x="514" y="604" type="line"/>
      <point x="522" y="448" type="line"/>
      <point x="504" y="448" type="line"/>
      <point x="484" y="523"/>
      <point x="443" y="574"/>
      <point x="404" y="574" type="curve" smooth="yes"/>
      <point x="299" y="574" type="line"/>
      <point x="299" y="80" type="line" smooth="yes"/>
      <point x="299" y="44"/>
      <point x="334" y="15"/>
      <point x="375" y="15" type="curve"/>
      <point x="387" y="14" type="line"/>
      <point x="387" y="0" type="line"/>
      <point x="153" y="0" type="line"/>
    </contour>
  </outline>
</glyph>
<glyph name="U" format="1">
  <advance width="610"/>
  <unicode hex="0055"/>
  <note>
	U
  </note>
  <outline>
    <contour>
      <point x="185" y="-4"/>
      <point x="87" y="88"/>
      <point x="87" y="200" type="curve" smooth="yes"/>
      <point x="87" y="522" type="line" smooth="yes"/>
      <point x="87" y="559"/>
      <point x="50" y="590"/>
      <point x="3" y="590" type="curve"/>
      <point x="3" y="604" type="line"/>
      <point x="230" y="604" type="line"/>
      <point x="230" y="590" type="line"/>
      <point x="183" y="590"/>
      <point x="146" y="559"/>
      <point x="146" y="522" type="curve" smooth="yes"/>
      <point x="146" y="200" type="line" smooth="yes"/>
      <point x="146" y="104"/>
      <point x="228" y="26"/>
      <point x="328" y="26" type="curve" smooth="yes"/>
      <point x="420" y="26"/>
      <point x="494" y="104"/>
      <point x="494" y="200" type="curve" smooth="yes"/>
      <point x="494" y="505" type="line" smooth="yes"/>
      <point x="494" y="552"/>
      <point x="462" y="590"/>
      <point x="423" y="590" type="curve"/>
      <point x="423" y="604" type="line"/>
      <point x="607" y="604" type="line"/>
      <point x="607" y="590" type="line"/>
      <point x="560" y="590"/>
      <point x="523" y="552"/>
      <point x="523" y="505" type="curve" smooth="yes"/>
      <point x="523" y="200" type="line" smooth="yes"/>
      <point x="523" y="87"/>
      <point x="426" y="-4"/>
      <point x="306" y="-4" type="curve" smooth="yes"/>
    </contour>
  </outline>
</glyph>
<glyph name="V" format="1">
  <advance width="610"/>
  <unicode hex="0056"/>
  <note>
	V
  </note>
  <outline>
    <contour>
      <point x="94" y="506" type="line" smooth="yes"/>
      <point x="71" y="557"/>
      <point x="36" y="590"/>
      <point x="4" y="590" type="curve"/>
      <point x="4" y="604" type="line"/>
      <point x="214" y="604" type="line"/>
      <point x="214" y="590" type="line"/>
      <point x="197" y="590" type="line" smooth="yes"/>
      <point x="169" y="590"/>
      <point x="147" y="574"/>
      <point x="147" y="555" type="curve" smooth="yes"/>
      <point x="147" y="543"/>
      <point x="151" y="527"/>
      <point x="160" y="508" type="curve"/>
      <point x="340" y="90" type="line"/>
      <point x="503" y="513" type="line" smooth="yes"/>
      <point x="509" y="528"/>
      <point x="512" y="541"/>
      <point x="512" y="551" type="curve" smooth="yes"/>
      <point x="512" y="572"/>
      <point x="495" y="590"/>
      <point x="474" y="590" type="curve" smooth="yes"/>
      <point x="457" y="590" type="line"/>
      <point x="457" y="604" type="line"/>
      <point x="604" y="604" type="line"/>
      <point x="604" y="590" type="line"/>
      <point x="580" y="590"/>
      <point x="551" y="559"/>
      <point x="534" y="514" type="curve" smooth="yes"/>
      <point x="334" y="0" type="line"/>
      <point x="318" y="0" type="line"/>
    </contour>
  </outline>
</glyph>
<glyph name="W" format="1">
  <advance width="839"/>
  <unicode hex="0057"/>
  <note>
	W
  </note>
  <outline>
    <contour>
      <point x="87" y="504" type="line" smooth="yes"/>
      <point x="68" y="556"/>
      <point x="36" y="590"/>
      <point x="5" y="590" type="curve"/>
      <point x="5" y="604" type="line"/>
      <point x="198" y="604" type="line"/>
      <point x="198" y="590" type="line"/>
      <point x="167" y="590"/>
      <point x="143" y="573"/>
      <point x="143" y="553" type="curve" smooth="yes"/>
      <point x="143" y="546"/>
      <point x="146" y="533"/>
      <point x="153" y="515" type="curve" smooth="yes"/>
      <point x="294" y="123" type="line"/>
      <point x="404" y="430" type="line"/>
      <point x="368" y="529" type="line"/>
      <point x="353" y="566"/>
      <point x="323" y="590"/>
      <point x="290" y="590" type="curve"/>
      <point x="290" y="604" type="line"/>
      <point x="508" y="604" type="line"/>
      <point x="508" y="590" type="line"/>
      <point x="472" y="590"/>
      <point x="442" y="571"/>
      <point x="442" y="548" type="curve" smooth="yes"/>
      <point x="442" y="539"/>
      <point x="445" y="526"/>
      <point x="451" y="511" type="curve" smooth="yes"/>
      <point x="600" y="126" type="line"/>
      <point x="726" y="518" type="line" smooth="yes"/>
      <point x="731" y="535"/>
      <point x="734" y="545"/>
      <point x="734" y="549" type="curve" smooth="yes"/>
      <point x="734" y="572"/>
      <point x="712" y="590"/>
      <point x="685" y="590" type="curve"/>
      <point x="685" y="604" type="line"/>
      <point x="835" y="604" type="line"/>
      <point x="835" y="590" type="line"/>
      <point x="803" y="590"/>
      <point x="771" y="558"/>
      <point x="756" y="511" type="curve" smooth="yes"/>
      <point x="589" y="0" type="line"/>
      <point x="574" y="0" type="line"/>
      <point x="422" y="390" type="line"/>
      <point x="282" y="0" type="line"/>
      <point x="269" y="0" type="line"/>
    </contour>
  </outline>
</glyph>
<glyph name="X" format="1">
  <advance width="559"/>
  <unicode hex="0058"/>
  <note>
	X
  </note>
  <outline>
    <contour>
      <point x="7" y="15" type="line"/>
      <point x="35" y="15"/>
      <point x="72" y="45"/>
      <point x="108" y="94" type="curve" smooth="yes"/>
      <point x="248" y="291" type="line"/>
      <point x="101" y="530" type="line" smooth="yes"/>
      <point x="78" y="566"/>
      <point x="47" y="588"/>
      <point x="16" y="588" type="curve"/>
      <point x="16" y="604" type="line"/>
      <point x="218" y="604" type="line"/>
      <point x="218" y="588" type="line"/>
      <point x="190" y="588"/>
      <point x="167" y="572"/>
      <point x="167" y="553" type="curve" smooth="yes"/>
      <point x="167" y="545"/>
      <point x="172" y="532"/>
      <point x="183" y="515" type="curve" smooth="yes"/>
      <point x="290" y="339" type="line"/>
      <point x="418" y="517" type="line" smooth="yes"/>
      <point x="429" y="532"/>
      <point x="435" y="545"/>
      <point x="435" y="553" type="curve" smooth="yes"/>
      <point x="435" y="572"/>
      <point x="417" y="588"/>
      <point x="394" y="588" type="curve"/>
      <point x="394" y="604" type="line"/>
      <point x="545" y="604" type="line"/>
      <point x="545" y="588" type="line"/>
      <point x="518" y="588"/>
      <point x="487" y="568"/>
      <point x="462" y="533" type="curve" smooth="yes"/>
      <point x="306" y="315" type="line"/>
      <point x="454" y="82" type="line" smooth="yes"/>
      <point x="481" y="41"/>
      <point x="518" y="15"/>
      <point x="553" y="15" type="curve"/>
      <point x="553" y="0" type="line"/>
      <point x="330" y="0" type="line"/>
      <point x="330" y="15" type="line"/>
      <point x="347" y="15" type="line" smooth="yes"/>
      <point x="372" y="15"/>
      <point x="394" y="31"/>
      <point x="394" y="50" type="curve" smooth="yes"/>
      <point x="394" y="58"/>
      <point x="388" y="72"/>
      <point x="376" y="91" type="curve" smooth="yes"/>
      <point x="265" y="269" type="line"/>
      <point x="141" y="93" type="line" smooth="yes"/>
      <point x="129" y="76"/>
      <point x="122" y="62"/>
      <point x="122" y="54" type="curve" smooth="yes"/>
      <point x="122" y="33"/>
      <point x="152" y="15"/>
      <point x="188" y="15" type="curve" smooth="yes"/>
      <point x="205" y="15" type="line"/>
      <point x="205" y="0" type="line"/>
      <point x="7" y="0" type="line"/>
    </contour>
  </outline>
</glyph>
<glyph name="Z" format="1">
  <advance width="558"/>
  <unicode hex="005A"/>
  <note>
	Z
  </note>
  <outline>
    <contour>
      <point x="19" y="14" type="line"/>
      <point x="442" y="574" type="line"/>
      <point x="187" y="574" type="line" smooth="yes"/>
      <point x="131" y="574"/>
      <point x="79" y="523"/>
      <point x="59" y="448" type="curve"/>
      <point x="46" y="448" type="line"/>
      <point x="59" y="604" type="line"/>
      <point x="531" y="604" type="line"/>
      <point x="531" y="590" type="line"/>
      <point x="99" y="30" type="line"/>
      <point x="380" y="30" type="line" smooth="yes"/>
      <point x="439" y="30"/>
      <point x="495" y="85"/>
      <point x="516" y="165" type="curve"/>
      <point x="530" y="165" type="line"/>
      <point x="516" y="0" type="line"/>
      <point x="19" y="0" type="line"/>
    </contour>
  </outline>
</glyph>
<glyph name="bracketleft" format="1">
  <advance width="304"/>
  <unicode hex="005B"/>
  <note>
	bracketleft
  </note>
  <outline>
    <contour>
      <point x="70" y="630" type="line"/>
      <point x="234" y="630" type="line"/>
      <point x="234" y="588" type="line"/>
      <point x="140" y="588" type="line"/>
      <point x="140" y="-88" type="line"/>
      <point x="234" y="-88" type="line"/>
      <point x="234" y="-130" type="line"/>
      <point x="70" y="-130" type="line"/>
    </contour>
  </outline>
</glyph>
<glyph name="backslash" format="1">
  <advance width="495"/>
  <unicode hex="005C"/>
  <note>
	backslash
  </note>
  <outline>
    <contour>
      <point x="355" y="-130" type="line"/>
      <point x="70" y="630" type="line"/>
      <point x="141" y="630" type="line"/>
      <point x="425" y="-130" type="line"/>
    </contour>
  </outline>
</glyph>
<glyph name="bracketright" format="1">
  <advance width="304"/>
  <unicode hex="005D"/>
  <note>
	bracketright
  </note>
  <outline>
    <contour>
      <point x="70" y="-88" type="line"/>
      <point x="164" y="-88" type="line"/>
      <point x="164" y="588" type="line"/>
      <point x="70" y="588" type="line"/>
      <point x="70" y="630" type="line"/>
      <point x="234" y="630" type="line"/>
      <point x="234" y="-130" type="line"/>
      <point x="70" y="-130" type="line"/>
    </contour>
  </outline>
</glyph>
<glyph name="underscore" format="1">
  <advance width="674"/>
  <unicode hex="005F"/>
  <note>
	underscore
  </note>
  <outline>
    <contour>
      <point x="70" y="-191" type="line"/>
      <point x="604" y="-191" type="line"/>
      <point x="604" y="-256" type="line"/>
      <point x="70" y="-256" type="line"/>
    </contour>
  </outline>
</glyph>
<glyph name="a" format="1">
  <advance width="404"/>
  <unicode hex="0061"/>
  <note>
	a
  </note>
  <outline>
    <contour>
      <point x="85" y="-8"/>
      <point x="36" y="34"/>
      <point x="36" y="86" type="curve" smooth="yes"/>
      <point x="36" y="163"/>
      <point x="135" y="241"/>
      <point x="275" y="270" type="curve"/>
      <point x="275" y="334" type="line" smooth="yes"/>
      <point x="275" y="370"/>
      <point x="234" y="398"/>
      <point x="183" y="398" type="curve" smooth="yes"/>
      <point x="139" y="398"/>
      <point x="103" y="380"/>
      <point x="103" y="359" type="curve" smooth="yes"/>
      <point x="103" y="354"/>
      <point x="106" y="347"/>
      <point x="112" y="338" type="curve"/>
      <point x="119" y="329"/>
      <point x="122" y="322"/>
      <point x="122" y="317" type="curve" smooth="yes"/>
      <point x="122" y="302"/>
      <point x="107" y="290"/>
      <point x="90" y="290" type="curve" smooth="yes"/>
      <point x="74" y="290"/>
      <point x="62" y="307"/>
      <point x="62" y="330" type="curve" smooth="yes"/>
      <point x="62" y="378"/>
      <point x="116" y="416"/>
      <point x="183" y="416" type="curve" smooth="yes"/>
      <point x="278" y="416"/>
      <point x="326" y="378"/>
      <point x="326" y="305" type="curve" smooth="yes"/>
      <point x="326" y="62" type="line" smooth="yes"/>
      <point x="326" y="46"/>
      <point x="335" y="34"/>
      <point x="346" y="34" type="curve" smooth="yes"/>
      <point x="355" y="34"/>
      <point x="365" y="43"/>
      <point x="373" y="56" type="curve"/>
      <point x="384" y="50" type="line"/>
      <point x="372" y="18"/>
      <point x="347" y="-4"/>
      <point x="322" y="-4" type="curve" smooth="yes"/>
      <point x="298" y="-4"/>
      <point x="278" y="23"/>
      <point x="275" y="56" type="curve"/>
      <point x="240" y="16"/>
      <point x="193" y="-8"/>
      <point x="145" y="-8" type="curve" smooth="yes"/>
    </contour>
    <contour>
      <point x="210" y="38"/>
      <point x="247" y="57"/>
      <point x="275" y="90" type="curve"/>
      <point x="275" y="248" type="line"/>
      <point x="167" y="223"/>
      <point x="90" y="168"/>
      <point x="90" y="116" type="curve" smooth="yes"/>
      <point x="90" y="73"/>
      <point x="127" y="38"/>
      <point x="174" y="38" type="curve" smooth="yes"/>
    </contour>
  </outline>
</glyph>
<glyph name="d" format="1">
  <advance width="459"/>
  <unicode hex="0064"/>
  <note>
	d
  </note>
  <outline>
    <contour>
      <point x="117" y="-4"/>
      <point x="45" y="88"/>
      <point x="45" y="200" type="curve" smooth="yes"/>
      <point x="45" y="319"/>
      <point x="124" y="416"/>
      <point x="221" y="416" type="curve" smooth="yes"/>
      <point x="269" y="416"/>
      <point x="307" y="404"/>
      <point x="330" y="381" type="curve"/>
      <point x="330" y="544" type="line" smooth="yes"/>
      <point x="330" y="559"/>
      <point x="303" y="570"/>
      <point x="271" y="570" type="curve"/>
      <point x="271" y="585" type="line"/>
      <point x="380" y="617" type="line"/>
      <point x="380" y="111" type="line" smooth="yes"/>
      <point x="380" y="75"/>
      <point x="402" y="47"/>
      <point x="430" y="47" type="curve"/>
      <point x="430" y="33" type="line"/>
      <point x="330" y="-7" type="line"/>
      <point x="330" y="48" type="line"/>
      <point x="297" y="15"/>
      <point x="253" y="-4"/>
      <point x="208" y="-4" type="curve" smooth="yes"/>
    </contour>
    <contour>
      <point x="269" y="38"/>
      <point x="306" y="54"/>
      <point x="330" y="82" type="curve"/>
      <point x="330" y="330" type="line"/>
      <point x="311" y="369"/>
      <point x="270" y="394"/>
      <point x="225" y="394" type="curve" smooth="yes"/>
      <point x="148" y="394"/>
      <point x="86" y="326"/>
      <point x="86" y="242" type="curve" smooth="yes"/>
      <point x="86" y="130"/>
      <point x="150" y="38"/>
      <point x="229" y="38" type="curve" smooth="yes"/>
    </contour>
  </outline>
</glyph>
<glyph name="g" format="1">
  <advance width="393"/>
  <unicode hex="0067"/>
  <note>
	g
  </note>
  <outline>
    <contour>
      <point x="74" y="-202"/>
      <point x="10" y="-161"/>
      <point x="10" y="-110" type="curve" smooth="yes"/>
      <point x="10" y="-74"/>
      <point x="45" y="-30"/>
      <point x="104" y="3" type="curve"/>
      <point x="76" y="11"/>
      <point x="56" y="32"/>
      <point x="56" y="53" type="curve" smooth="yes"/>
      <point x="56" y="84"/>
      <point x="86" y="123"/>
      <point x="135" y="158" type="curve"/>
      <point x="82" y="183"/>
      <point x="48" y="231"/>
      <point x="48" y="283" type="curve" smooth="yes"/>
      <point x="48" y="356"/>
      <point x="110" y="416"/>
      <point x="186" y="416" type="curve" smooth="yes"/>
      <point x="226" y="416"/>
      <point x="256" y="410"/>
      <point x="275" y="399" type="curve"/>
      <point x="370" y="399" type="line"/>
      <point x="370" y="378" type="line"/>
      <point x="294" y="378" type="line"/>
      <point x="322" y="354"/>
      <point x="338" y="316"/>
      <point x="338" y="275" type="curve" smooth="yes"/>
      <point x="338" y="199"/>
      <point x="278" y="138"/>
      <point x="203" y="138" type="curve" smooth="yes"/>
      <point x="182" y="138"/>
      <point x="166" y="141"/>
      <point x="153" y="147" type="curve"/>
      <point x="116" y="122"/>
      <point x="94" y="98"/>
      <point x="94" y="82" type="curve" smooth="yes"/>
      <point x="94" y="71"/>
      <point x="105" y="61"/>
      <point x="126" y="54" type="curve"/>
      <point x="147" y="46"/>
      <point x="173" y="42"/>
      <point x="203" y="42" type="curve" smooth="yes"/>
      <point x="319" y="42"/>
      <point x="379" y="13"/>
      <point x="379" y="-44" type="curve" smooth="yes"/>
      <point x="379" y="-140"/>
      <point x="290" y="-202"/>
      <point x="153" y="-202" type="curve" smooth="yes"/>
    </contour>
    <contour>
      <point x="282" y="-158"/>
      <point x="362" y="-112"/>
      <point x="362" y="-65" type="curve" smooth="yes"/>
      <point x="362" y="-46"/>
      <point x="351" y="-32"/>
      <point x="330" y="-22" type="curve"/>
      <point x="309" y="-13"/>
      <point x="277" y="-8"/>
      <point x="236" y="-8" type="curve"/>
      <point x="125" y="-4" type="line"/>
      <point x="77" y="-32"/>
      <point x="48" y="-63"/>
      <point x="48" y="-86" type="curve" smooth="yes"/>
      <point x="48" y="-126"/>
      <point x="118" y="-158"/>
      <point x="203" y="-158" type="curve" smooth="yes"/>
    </contour>
    <contour>
      <point x="255" y="160"/>
      <point x="291" y="197"/>
      <point x="291" y="242" type="curve" smooth="yes"/>
      <point x="291" y="323"/>
      <point x="241" y="390"/>
      <point x="178" y="390" type="curve" smooth="yes"/>
      <point x="134" y="390"/>
      <point x="98" y="354"/>
      <point x="98" y="309" type="curve" smooth="yes"/>
      <point x="98" y="226"/>
      <point x="148" y="160"/>
      <point x="211" y="160" type="curve" smooth="yes"/>
    </contour>
  </outline>
</glyph>
<glyph name="h" format="1">
  <advance width="458"/>
  <unicode hex="0068"/>
  <note>
	h
  </note>
  <outline>
    <contour>
      <point x="20" y="15" type="line"/>
      <point x="52" y="15"/>
      <point x="79" y="42"/>
      <point x="79" y="74" type="curve" smooth="yes"/>
      <point x="79" y="527" type="line" smooth="yes"/>
      <point x="79" y="551"/>
      <point x="52" y="570"/>
      <point x="20" y="570" type="curve"/>
      <point x="20" y="585" type="line"/>
      <point x="130" y="617" type="line"/>
      <point x="130" y="338" type="line"/>
      <point x="165" y="387"/>
      <point x="216" y="416"/>
      <point x="268" y="416" type="curve" smooth="yes"/>
      <point x="331" y="416"/>
      <point x="381" y="368"/>
      <point x="381" y="309" type="curve" smooth="yes"/>
      <point x="381" y="66" type="line" smooth="yes"/>
      <point x="381" y="38"/>
      <point x="408" y="15"/>
      <point x="440" y="15" type="curve"/>
      <point x="440" y="0" type="line"/>
      <point x="280" y="0" type="line"/>
      <point x="280" y="15" type="line"/>
      <point x="308" y="15"/>
      <point x="330" y="38"/>
      <point x="330" y="66" type="curve" smooth="yes"/>
      <point x="330" y="288" type="line" smooth="yes"/>
      <point x="330" y="336"/>
      <point x="289" y="374"/>
      <point x="238" y="374" type="curve" smooth="yes"/>
      <point x="195" y="374"/>
      <point x="154" y="349"/>
      <point x="130" y="306" type="curve"/>
      <point x="130" y="74" type="line" smooth="yes"/>
      <point x="130" y="42"/>
      <point x="156" y="15"/>
      <point x="188" y="15" type="curve"/>
      <point x="188" y="0" type="line"/>
      <point x="20" y="0" type="line"/>
    </contour>
  </outline>
</glyph>
<glyph name="i" format="1">
  <advance width="214"/>
  <unicode hex="0069"/>
  <note>
	i
  </note>
  <outline>
    <contour>
      <point x="17" y="15" type="line"/>
      <point x="54" y="15"/>
      <point x="84" y="39"/>
      <point x="84" y="68" type="curve" smooth="yes"/>
      <point x="84" y="334" type="line" smooth="yes"/>
      <point x="84" y="349"/>
      <point x="65" y="361"/>
      <point x="42" y="361" type="curve" smooth="yes"/>
      <point x="17" y="361" type="line"/>
      <point x="17" y="375" type="line"/>
      <point x="134" y="415" type="line"/>
      <point x="134" y="68" type="line" smooth="yes"/>
      <point x="134" y="39"/>
      <point x="161" y="14"/>
      <point x="193" y="14" type="curve"/>
      <point x="193" y="0" type="line"/>
      <point x="17" y="0" type="line"/>
    </contour>
    <contour>
      <point x="84" y="520"/>
      <point x="67" y="542"/>
      <point x="67" y="569" type="curve" smooth="yes"/>
      <point x="67" y="592"/>
      <point x="84" y="609"/>
      <point x="105" y="609" type="curve" smooth="yes"/>
      <point x="125" y="609"/>
      <point x="142" y="592"/>
      <point x="142" y="569" type="curve" smooth="yes"/>
      <point x="142" y="542"/>
      <point x="125" y="520"/>
      <point x="105" y="520" type="curve" smooth="yes"/>
    </contour>
  </outline>
</glyph>
<glyph name="j" format="1">
  <advance width="232"/>
  <unicode hex="006A"/>
  <outline>
    <contour>
      <point x="116" y="598" type="curve" smooth="yes"/>
      <point x="140" y="598"/>
      <point x="159" y="578"/>
      <point x="159" y="547" type="curve" smooth="yes"/>
      <point x="159" y="515"/>
      <point x="139" y="498"/>
      <point x="117" y="498" type="curve" smooth="yes"/>
      <point x="93" y="498"/>
      <point x="73" y="517"/>
      <point x="73" y="547" type="curve" smooth="yes"/>
      <point x="73" y="578"/>
      <point x="92" y="598"/>
    </contour>
    <contour>
      <point x="-3" y="-112" type="curve" smooth="yes"/>
      <point x="58" y="-88"/>
      <point x="91" y="-43"/>
      <point x="91" y="42" type="curve" smooth="yes"/>
      <point x="91" y="365" type="line" smooth="yes"/>
      <point x="91" y="379"/>
      <point x="103" y="390"/>
      <point x="116" y="390" type="curve" smooth="yes"/>
      <point x="130" y="390"/>
      <point x="141" y="379"/>
      <point x="141" y="365" type="curve" smooth="yes"/>
      <point x="141" y="42" type="line" smooth="yes"/>
      <point x="141" y="-71"/>
      <point x="94" y="-128"/>
      <point x="15" y="-158" type="curve" smooth="yes"/>
      <point x="2" y="-163"/>
      <point x="-12" y="-157"/>
      <point x="-17" y="-144" type="curve" smooth="yes"/>
      <point x="-22" y="-131"/>
      <point x="-16" y="-117"/>
    </contour>
    <contour>
      <point x="116" y="548" type="curve" smooth="yes"/>
      <point x="116" y="548"/>
      <point x="123" y="542"/>
      <point x="123" y="547" type="curve" smooth="yes"/>
      <point x="123" y="551"/>
      <point x="118" y="548"/>
      <point x="117" y="548" type="curve" smooth="yes"/>
      <point x="117" y="548"/>
      <point x="109" y="553"/>
      <point x="109" y="547" type="curve" smooth="yes"/>
      <point x="109" y="542"/>
      <point x="116" y="548"/>
    </contour>
  </outline>
</glyph>
<glyph name="l" format="1">
  <advance width="209"/>
  <unicode hex="006C"/>
  <note>
	l
  </note>
  <outline>
    <contour>
      <point x="12" y="15" type="line"/>
      <point x="20" y="15" type="line" smooth="yes"/>
      <point x="52" y="15"/>
      <point x="79" y="39"/>
      <point x="79" y="70" type="curve" smooth="yes"/>
      <point x="79" y="527" type="line" smooth="yes"/>
      <point x="79" y="551"/>
      <point x="57" y="570"/>
      <point x="29" y="570" type="curve" smooth="yes"/>
      <point x="12" y="570" type="line"/>
      <point x="12" y="585" type="line"/>
      <point x="130" y="617" type="line"/>
      <point x="130" y="70" type="line" smooth="yes"/>
      <point x="130" y="39"/>
      <point x="156" y="15"/>
      <point x="188" y="15" type="curve" smooth="yes"/>
      <point x="196" y="15" type="line"/>
      <point x="196" y="0" type="line"/>
      <point x="12" y="0" type="line"/>
    </contour>
  </outline>
</glyph>
<glyph name="n" format="1">
  <advance width="497"/>
  <unicode hex="006E"/>
  <outline>
    <contour>
      <point x="85" y="23" type="curve" smooth="yes"/>
      <point x="85" y="365" type="line" smooth="yes"/>
      <point x="85" y="379"/>
      <point x="97" y="390"/>
      <point x="110" y="390" type="curve" smooth="yes"/>
      <point x="124" y="390"/>
      <point x="135" y="379"/>
      <point x="135" y="365" type="curve" smooth="yes"/>
      <point x="135" y="23" type="line" smooth="yes"/>
      <point x="135" y="9"/>
      <point x="124" y="-2"/>
      <point x="110" y="-2" type="curve" smooth="yes"/>
      <point x="97" y="-2"/>
      <point x="85" y="10"/>
    </contour>
    <contour>
      <point x="372" y="23" type="curve" smooth="yes"/>
      <point x="372" y="223" type="line" smooth="yes"/>
      <point x="372" y="305"/>
      <point x="338" y="340"/>
      <point x="285" y="340" type="curve" smooth="yes"/>
      <point x="228" y="340"/>
      <point x="175" y="303"/>
      <point x="132" y="260" type="curve" smooth="yes"/>
      <point x="122" y="251"/>
      <point x="106" y="251"/>
      <point x="96" y="260" type="curve" smooth="yes"/>
      <point x="87" y="270"/>
      <point x="87" y="286"/>
      <point x="96" y="296" type="curve" smooth="yes"/>
      <point x="149" y="349"/>
      <point x="216" y="390"/>
      <point x="285" y="390" type="curve" smooth="yes"/>
      <point x="360" y="390"/>
      <point x="422" y="351"/>
      <point x="422" y="223" type="curve" smooth="yes"/>
      <point x="422" y="23" type="line" smooth="yes"/>
      <point x="422" y="9"/>
      <point x="411" y="-2"/>
      <point x="397" y="-2" type="curve" smooth="yes"/>
      <point x="384" y="-2"/>
      <point x="372" y="10"/>
    </contour>
  </outline>
</glyph>
<glyph name="o" format="1">
  <advance width="495"/>
  <unicode hex="006F"/>
  <outline>
    <contour>
      <point x="247" y="394" type="curve" smooth="yes"/>
      <point x="369" y="394"/>
      <point x="446" y="302"/>
      <point x="446" y="189" type="curve" smooth="yes"/>
      <point x="446" y="79"/>
      <point x="369" y="-6"/>
      <point x="247" y="-6" type="curve" smooth="yes"/>
      <point x="126" y="-6"/>
      <point x="48" y="80"/>
      <point x="48" y="191" type="curve"/>
      <point x="48" y="302"/>
      <point x="124" y="394"/>
    </contour>
    <contour>
      <point x="247" y="344" type="curve" smooth="yes"/>
      <point x="154" y="344"/>
      <point x="98" y="274"/>
      <point x="98" y="191" type="curve" smooth="yes"/>
      <point x="98" y="108"/>
      <point x="156" y="44"/>
      <point x="247" y="44" type="curve" smooth="yes"/>
      <point x="337" y="44"/>
      <point x="396" y="107"/>
      <point x="396" y="189" type="curve" smooth="yes"/>
      <point x="396" y="274"/>
      <point x="339" y="344"/>
    </contour>
  </outline>
</glyph>
<glyph name="q" format="1">
  <advance width="470"/>
  <unicode hex="0071"/>
  <note>
	q
  </note>
  <outline>
    <contour>
      <point x="270" y="-186" type="line"/>
      <point x="311" y="-186"/>
      <point x="345" y="-159"/>
      <point x="345" y="-127" type="curve" smooth="yes"/>
      <point x="345" y="57" type="line"/>
      <point x="312" y="17"/>
      <point x="263" y="-6"/>
      <point x="214" y="-6" type="curve" smooth="yes"/>
      <point x="119" y="-6"/>
      <point x="43" y="82"/>
      <point x="43" y="191" type="curve" smooth="yes"/>
      <point x="43" y="315"/>
      <point x="133" y="416"/>
      <point x="244" y="416" type="curve" smooth="yes"/>
      <point x="289" y="416"/>
      <point x="324" y="407"/>
      <point x="343" y="391" type="curve"/>
      <point x="395" y="415" type="line"/>
      <point x="395" y="-127" type="line" smooth="yes"/>
      <point x="395" y="-159"/>
      <point x="425" y="-186"/>
      <point x="462" y="-186" type="curve"/>
      <point x="462" y="-202" type="line"/>
      <point x="270" y="-202" type="line"/>
    </contour>
    <contour>
      <point x="279" y="38"/>
      <point x="317" y="57"/>
      <point x="345" y="90" type="curve"/>
      <point x="345" y="343" type="line"/>
      <point x="326" y="375"/>
      <point x="292" y="394"/>
      <point x="253" y="394" type="curve" smooth="yes"/>
      <point x="165" y="394"/>
      <point x="93" y="317"/>
      <point x="93" y="221" type="curve" smooth="yes"/>
      <point x="93" y="120"/>
      <point x="159" y="38"/>
      <point x="240" y="38" type="curve" smooth="yes"/>
    </contour>
  </outline>
</glyph>
<glyph name="s" format="1">
  <advance width="344"/>
  <unicode hex="0073"/>
  <note>
	s
  </note>
  <outline>
    <contour>
      <point x="48" y="135" type="line"/>
      <point x="63" y="135" type="line"/>
      <point x="75" y="66"/>
      <point x="124" y="14"/>
      <point x="177" y="14" type="curve" smooth="yes"/>
      <point x="225" y="14"/>
      <point x="265" y="46"/>
      <point x="265" y="86" type="curve" smooth="yes"/>
      <point x="265" y="119"/>
      <point x="222" y="156"/>
      <point x="158" y="180" type="curve" smooth="yes"/>
      <point x="97" y="203"/>
      <point x="55" y="254"/>
      <point x="55" y="309" type="curve" smooth="yes"/>
      <point x="55" y="368"/>
      <point x="100" y="416"/>
      <point x="156" y="416" type="curve" smooth="yes"/>
      <point x="173" y="416"/>
      <point x="189" y="413"/>
      <point x="204" y="408" type="curve" smooth="yes"/>
      <point x="221" y="402"/>
      <point x="234" y="399"/>
      <point x="244" y="399" type="curve" smooth="yes"/>
      <point x="253" y="399"/>
      <point x="260" y="404"/>
      <point x="263" y="411" type="curve"/>
      <point x="275" y="411" type="line"/>
      <point x="284" y="290" type="line"/>
      <point x="269" y="290" type="line"/>
      <point x="253" y="351"/>
      <point x="208" y="394"/>
      <point x="160" y="394" type="curve" smooth="yes"/>
      <point x="121" y="394"/>
      <point x="89" y="367"/>
      <point x="89" y="334" type="curve" smooth="yes"/>
      <point x="89" y="298"/>
      <point x="130" y="259"/>
      <point x="191" y="236" type="curve" smooth="yes"/>
      <point x="255" y="212"/>
      <point x="298" y="164"/>
      <point x="298" y="116" type="curve" smooth="yes"/>
      <point x="298" y="48"/>
      <point x="244" y="-8"/>
      <point x="177" y="-8" type="curve" smooth="yes"/>
      <point x="136" y="-8"/>
      <point x="100" y="5"/>
      <point x="79" y="26" type="curve"/>
      <point x="70" y="0" type="line"/>
      <point x="58" y="0" type="line"/>
    </contour>
  </outline>
</glyph>
<glyph name="t" format="1">
  <advance width="354"/>
  <unicode hex="0074"/>
  <outline>
    <contour>
      <point x="159" y="491" type="curve" smooth="yes"/>
      <point x="159" y="140" type="line" smooth="yes"/>
      <point x="159" y="79"/>
      <point x="200" y="50"/>
      <point x="279" y="48" type="curve" smooth="yes"/>
      <point x="293" y="48"/>
      <point x="304" y="36"/>
      <point x="304" y="23" type="curve" smooth="yes"/>
      <point x="304" y="9"/>
      <point x="292" y="-2"/>
      <point x="279" y="-2" type="curve" smooth="yes"/>
      <point x="156" y="0"/>
      <point x="109" y="53"/>
      <point x="109" y="140" type="curve" smooth="yes"/>
      <point x="109" y="491" type="line" smooth="yes"/>
      <point x="109" y="505"/>
      <point x="121" y="516"/>
      <point x="134" y="516" type="curve" smooth="yes"/>
      <point x="148" y="516"/>
      <point x="159" y="505"/>
    </contour>
    <contour>
      <point x="46" y="390" type="curve" smooth="yes"/>
      <point x="292" y="390" type="line" smooth="yes"/>
      <point x="306" y="390"/>
      <point x="317" y="379"/>
      <point x="317" y="365" type="curve" smooth="yes"/>
      <point x="317" y="352"/>
      <point x="306" y="340"/>
      <point x="292" y="340" type="curve" smooth="yes"/>
      <point x="46" y="340" type="line" smooth="yes"/>
      <point x="33" y="340"/>
      <point x="21" y="352"/>
      <point x="21" y="365" type="curve" smooth="yes"/>
      <point x="21" y="379"/>
      <point x="33" y="390"/>
    </contour>
  </outline>
</glyph>
<glyph name="u" format="1">
  <advance width="497"/>
  <unicode hex="0075"/>
  <outline>
    <contour>
      <point x="412" y="365" type="curve" smooth="yes"/>
      <point x="412" y="23" type="line" smooth="yes"/>
      <point x="412" y="9"/>
      <point x="401" y="-2"/>
      <point x="387" y="-2" type="curve" smooth="yes"/>
      <point x="374" y="-2"/>
      <point x="362" y="10"/>
      <point x="362" y="23" type="curve" smooth="yes"/>
      <point x="362" y="365" type="line" smooth="yes"/>
      <point x="362" y="379"/>
      <point x="374" y="390"/>
      <point x="387" y="390" type="curve" smooth="yes"/>
      <point x="401" y="390"/>
      <point x="412" y="379"/>
    </contour>
    <contour>
      <point x="125" y="365" type="curve" smooth="yes"/>
      <point x="125" y="165" type="line" smooth="yes"/>
      <point x="125" y="83"/>
      <point x="159" y="48"/>
      <point x="212" y="48" type="curve" smooth="yes"/>
      <point x="268" y="48"/>
      <point x="326" y="94"/>
      <point x="363" y="145" type="curve" smooth="yes"/>
      <point x="371" y="156"/>
      <point x="387" y="158"/>
      <point x="398" y="150" type="curve" smooth="yes"/>
      <point x="409" y="142"/>
      <point x="411" y="126"/>
      <point x="403" y="115" type="curve" smooth="yes"/>
      <point x="356" y="50"/>
      <point x="282" y="-2"/>
      <point x="212" y="-2" type="curve" smooth="yes"/>
      <point x="137" y="-2"/>
      <point x="75" y="37"/>
      <point x="75" y="165" type="curve" smooth="yes"/>
      <point x="75" y="365" type="line" smooth="yes"/>
      <point x="75" y="379"/>
      <point x="87" y="390"/>
      <point x="100" y="390" type="curve" smooth="yes"/>
      <point x="114" y="390"/>
      <point x="125" y="379"/>
    </contour>
  </outline>
</glyph>
<glyph name="v" format="1">
  <advance width="410"/>
  <unicode hex="0076"/>
  <note>
	v
  </note>
  <outline>
    <contour>
      <point x="78" y="318" type="line" smooth="yes"/>
      <point x="59" y="363"/>
      <point x="32" y="393"/>
      <point x="9" y="393" type="curve"/>
      <point x="9" y="411" type="line"/>
      <point x="155" y="411" type="line"/>
      <point x="155" y="394" type="line"/>
      <point x="135" y="394"/>
      <point x="118" y="384"/>
      <point x="118" y="372" type="curve" smooth="yes"/>
      <point x="118" y="365"/>
      <point x="121" y="355"/>
      <point x="126" y="342" type="curve"/>
      <point x="235" y="86" type="line"/>
      <point x="323" y="338" type="line" smooth="yes"/>
      <point x="328" y="352"/>
      <point x="331" y="363"/>
      <point x="331" y="372" type="curve" smooth="yes"/>
      <point x="331" y="384"/>
      <point x="314" y="393"/>
      <point x="294" y="393" type="curve"/>
      <point x="294" y="411" type="line"/>
      <point x="398" y="411" type="line"/>
      <point x="398" y="394" type="line"/>
      <point x="391" y="394"/>
      <point x="383" y="389"/>
      <point x="374" y="378" type="curve" smooth="yes"/>
      <point x="365" y="367"/>
      <point x="357" y="352"/>
      <point x="350" y="334" type="curve" smooth="yes"/>
      <point x="228" y="0" type="line"/>
      <point x="212" y="0" type="line"/>
    </contour>
  </outline>
</glyph>
<glyph name="z" format="1">
  <advance width="444"/>
  <unicode hex="007A"/>
  <outline>
    <contour>
      <point x="355" y="340" type="curve" smooth="yes"/>
      <point x="86" y="340" type="line" smooth="yes"/>
      <point x="73" y="340"/>
      <point x="61" y="352"/>
      <point x="61" y="365" type="curve" smooth="yes"/>
      <point x="61" y="379"/>
      <point x="73" y="390"/>
      <point x="86" y="390" type="curve" smooth="yes"/>
      <point x="355" y="390" type="line" smooth="yes"/>
      <point x="369" y="390"/>
      <point x="380" y="379"/>
      <point x="380" y="365" type="curve" smooth="yes"/>
      <point x="380" y="352"/>
      <point x="369" y="340"/>
    </contour>
    <contour>
      <point x="71" y="48" type="curve" smooth="yes"/>
      <point x="372" y="48" type="line" smooth="yes"/>
      <point x="386" y="48"/>
      <point x="397" y="37"/>
      <point x="397" y="23" type="curve" smooth="yes"/>
      <point x="397" y="10"/>
      <point x="386" y="-2"/>
      <point x="372" y="-2" type="curve" smooth="yes"/>
      <point x="71" y="-2" type="line" smooth="yes"/>
      <point x="58" y="-2"/>
      <point x="46" y="10"/>
      <point x="46" y="23" type="curve" smooth="yes"/>
      <point x="46" y="37"/>
      <point x="58" y="48"/>
    </contour>
    <contour>
      <point x="380" y="349" type="curve" smooth="yes"/>
      <point x="96" y="15" type="line" smooth="yes"/>
      <point x="87" y="5"/>
      <point x="71" y="3"/>
      <point x="61" y="12" type="curve" smooth="yes"/>
      <point x="51" y="21"/>
      <point x="49" y="37"/>
      <point x="58" y="47" type="curve" smooth="yes"/>
      <point x="342" y="381" type="line" smooth="yes"/>
      <point x="351" y="391"/>
      <point x="367" y="393"/>
      <point x="377" y="384" type="curve" smooth="yes"/>
      <point x="387" y="375"/>
      <point x="389" y="359"/>
    </contour>
  </outline>
</glyph>
<glyph name="braceleft" format="1">
  <advance width="434"/>
  <unicode hex="007B"/>
  <note>
	braceleft
  </note>
  <outline>
    <contour>
      <point x="121" y="260"/>
      <point x="162" y="300"/>
      <point x="162" y="349" type="curve" smooth="yes"/>
      <point x="162" y="447" type="line" smooth="yes"/>
      <point x="162" y="548"/>
      <point x="243" y="630"/>
      <point x="343" y="630" type="curve"/>
      <point x="343" y="612" type="line"/>
      <point x="282" y="612"/>
      <point x="231" y="538"/>
      <point x="231" y="447" type="curve" smooth="yes"/>
      <point x="231" y="349" type="line" smooth="yes"/>
      <point x="231" y="309"/>
      <point x="187" y="269"/>
      <point x="123" y="250" type="curve"/>
      <point x="187" y="231"/>
      <point x="231" y="192"/>
      <point x="231" y="153" type="curve" smooth="yes"/>
      <point x="231" y="53" type="line" smooth="yes"/>
      <point x="231" y="-38"/>
      <point x="281" y="-110"/>
      <point x="342" y="-110" type="curve"/>
      <point x="364" y="-130" type="line"/>
      <point x="252" y="-130"/>
      <point x="162" y="-48"/>
      <point x="162" y="53" type="curve" smooth="yes"/>
      <point x="162" y="153" type="line" smooth="yes"/>
      <point x="162" y="202"/>
      <point x="121" y="242"/>
      <point x="70" y="242" type="curve"/>
      <point x="70" y="260" type="line"/>
    </contour>
  </outline>
</glyph>
<glyph name="braceright" format="1">
  <advance width="412"/>
  <unicode hex="007D"/>
  <note>
	braceright
  </note>
  <outline>
    <contour>
      <point x="342" y="241" type="line"/>
      <point x="291" y="241"/>
      <point x="250" y="201"/>
      <point x="250" y="152" type="curve" smooth="yes"/>
      <point x="250" y="53" type="line" smooth="yes"/>
      <point x="250" y="-48"/>
      <point x="170" y="-130"/>
      <point x="70" y="-130" type="curve"/>
      <point x="70" y="-112" type="line"/>
      <point x="131" y="-112"/>
      <point x="181" y="-38"/>
      <point x="181" y="53" type="curve" smooth="yes"/>
      <point x="181" y="152" type="line" smooth="yes"/>
      <point x="181" y="192"/>
      <point x="226" y="231"/>
      <point x="290" y="250" type="curve"/>
      <point x="226" y="269"/>
      <point x="181" y="309"/>
      <point x="181" y="349" type="curve" smooth="yes"/>
      <point x="181" y="446" type="line" smooth="yes"/>
      <point x="181" y="538"/>
      <point x="131" y="612"/>
      <point x="70" y="612" type="curve"/>
      <point x="70" y="630" type="line"/>
      <point x="170" y="630"/>
      <point x="250" y="547"/>
      <point x="250" y="446" type="curve" smooth="yes"/>
      <point x="250" y="349" type="line" smooth="yes"/>
      <point x="250" y="300"/>
      <point x="291" y="260"/>
      <point x="342" y="260" type="curve"/>
    </contour>
  </outline>
</glyph>
<glyph name="asciitilde" format="1">
  <advance width="592"/>
  <unicode hex="007E"/>
  <note>
	asciitilde
  </note>
  <outline>
    <contour>
      <point x="70" y="205" type="line"/>
      <point x="94" y="272"/>
      <point x="148" y="316"/>
      <point x="204" y="316" type="curve" smooth="yes"/>
      <point x="227" y="316"/>
      <point x="259" y="304"/>
      <point x="299" y="280" type="curve" smooth="yes"/>
      <point x="340" y="257"/>
      <point x="372" y="245"/>
      <point x="395" y="245" type="curve" smooth="yes"/>
      <point x="438" y="245"/>
      <point x="479" y="267"/>
      <point x="504" y="303" type="curve"/>
      <point x="522" y="285" type="line"/>
      <point x="485" y="220"/>
      <point x="437" y="179"/>
      <point x="397" y="179" type="curve" smooth="yes"/>
      <point x="372" y="179"/>
      <point x="339" y="191"/>
      <point x="296" y="214" type="curve" smooth="yes"/>
      <point x="253" y="238"/>
      <point x="220" y="250"/>
      <point x="195" y="250" type="curve" smooth="yes"/>
      <point x="155" y="250"/>
      <point x="114" y="227"/>
      <point x="87" y="188" type="curve"/>
    </contour>
  </outline>
</glyph>
<glyph name="brokenbar" format="1">
  <advance width="180"/>
  <unicode hex="00A6"/>
  <note>
	brokenbar
  </note>
  <outline>
    <contour>
      <point x="75" y="254" type="line"/>
      <point x="105" y="254" type="line"/>
      <point x="105" y="0" type="line"/>
      <point x="75" y="0" type="line"/>
    </contour>
    <contour>
      <point x="75" y="558" type="line"/>
      <point x="105" y="558" type="line"/>
      <point x="105" y="304" type="line"/>
      <point x="75" y="304" type="line"/>
    </contour>
  </outline>
</glyph>
<glyph name="dieresis" format="1">
  <advance width="403"/>
  <unicode hex="00A8"/>
  <note>
	dieresis
  </note>
  <outline>
    <contour>
      <point x="94" y="476"/>
      <point x="75" y="496"/>
      <point x="75" y="520" type="curve" smooth="yes"/>
      <point x="75" y="547"/>
      <point x="94" y="569"/>
      <point x="118" y="569" type="curve" smooth="yes"/>
      <point x="141" y="569"/>
      <point x="159" y="547"/>
      <point x="159" y="520" type="curve" smooth="yes"/>
      <point x="159" y="496"/>
      <point x="141" y="476"/>
      <point x="118" y="476" type="curve" smooth="yes"/>
    </contour>
    <contour>
      <point x="263" y="476"/>
      <point x="244" y="496"/>
      <point x="244" y="520" type="curve" smooth="yes"/>
      <point x="244" y="547"/>
      <point x="263" y="569"/>
      <point x="286" y="569" type="curve" smooth="yes"/>
      <point x="309" y="569"/>
      <point x="328" y="547"/>
      <point x="328" y="520" type="curve" smooth="yes"/>
      <point x="328" y="496"/>
      <point x="309" y="476"/>
      <point x="286" y="476" type="curve" smooth="yes"/>
    </contour>
  </outline>
</glyph>
<glyph name="copyright" format="1">
  <advance width="831"/>
  <unicode hex="00A9"/>
  <note>
	copyright
  </note>
  <outline>
    <contour>
      <point x="322" y="95"/>
      <point x="247" y="181"/>
      <point x="247" y="288" type="curve" smooth="yes"/>
      <point x="247" y="401"/>
      <point x="331" y="494"/>
      <point x="434" y="494" type="curve" smooth="yes"/>
      <point x="491" y="494"/>
      <point x="539" y="458"/>
      <point x="539" y="414" type="curve" smooth="yes"/>
      <point x="539" y="398"/>
      <point x="529" y="385"/>
      <point x="516" y="385" type="curve" smooth="yes"/>
      <point x="503" y="385"/>
      <point x="493" y="395"/>
      <point x="490" y="408" type="curve" smooth="yes"/>
      <point x="483" y="443"/>
      <point x="454" y="468"/>
      <point x="421" y="468" type="curve" smooth="yes"/>
      <point x="349" y="468"/>
      <point x="290" y="404"/>
      <point x="290" y="324" type="curve" smooth="yes"/>
      <point x="290" y="224"/>
      <point x="349" y="144"/>
      <point x="421" y="144" type="curve" smooth="yes"/>
      <point x="469" y="144"/>
      <point x="514" y="172"/>
      <point x="541" y="217" type="curve"/>
      <point x="554" y="212" type="line"/>
      <point x="535" y="143"/>
      <point x="479" y="95"/>
      <point x="415" y="95" type="curve" smooth="yes"/>
    </contour>
    <contour>
      <point x="227" y="-6"/>
      <point x="75" y="129"/>
      <point x="75" y="294" type="curve" smooth="yes"/>
      <point x="75" y="462"/>
      <point x="227" y="599"/>
      <point x="414" y="599" type="curve" smooth="yes"/>
      <point x="603" y="599"/>
      <point x="756" y="462"/>
      <point x="756" y="294" type="curve" smooth="yes"/>
      <point x="756" y="129"/>
      <point x="603" y="-6"/>
      <point x="414" y="-6" type="curve" smooth="yes"/>
    </contour>
    <contour>
      <point x="578" y="22"/>
      <point x="710" y="143"/>
      <point x="710" y="294" type="curve" smooth="yes"/>
      <point x="710" y="443"/>
      <point x="578" y="565"/>
      <point x="414" y="565" type="curve" smooth="yes"/>
      <point x="255" y="565"/>
      <point x="126" y="443"/>
      <point x="126" y="294" type="curve" smooth="yes"/>
      <point x="126" y="143"/>
      <point x="255" y="22"/>
      <point x="414" y="22" type="curve" smooth="yes"/>
    </contour>
  </outline>
</glyph>
<glyph name="ordfeminine" format="1">
  <advance width="418"/>
  <unicode hex="00AA"/>
  <note>
	ordfeminine
  </note>
  <outline>
    <contour>
      <point x="112" y="273"/>
      <point x="75" y="306"/>
      <point x="75" y="347" type="curve" smooth="yes"/>
      <point x="75" y="407"/>
      <point x="152" y="466"/>
      <point x="260" y="489" type="curve"/>
      <point x="260" y="538" type="line" smooth="yes"/>
      <point x="260" y="566"/>
      <point x="229" y="589"/>
      <point x="190" y="589" type="curve" smooth="yes"/>
      <point x="155" y="589"/>
      <point x="127" y="575"/>
      <point x="127" y="559" type="curve" smooth="yes"/>
      <point x="127" y="555"/>
      <point x="129" y="549"/>
      <point x="134" y="542" type="curve" smooth="yes"/>
      <point x="139" y="535"/>
      <point x="141" y="529"/>
      <point x="141" y="525" type="curve" smooth="yes"/>
      <point x="141" y="513"/>
      <point x="130" y="504"/>
      <point x="117" y="504" type="curve" smooth="yes"/>
      <point x="105" y="504"/>
      <point x="95" y="518"/>
      <point x="95" y="534" type="curve" smooth="yes"/>
      <point x="95" y="571"/>
      <point x="138" y="602"/>
      <point x="190" y="602" type="curve" smooth="yes"/>
      <point x="262" y="602"/>
      <point x="299" y="573"/>
      <point x="299" y="516" type="curve" smooth="yes"/>
      <point x="299" y="328" type="line" smooth="yes"/>
      <point x="299" y="316"/>
      <point x="306" y="306"/>
      <point x="314" y="306" type="curve" smooth="yes"/>
      <point x="322" y="306"/>
      <point x="329" y="312"/>
      <point x="336" y="323" type="curve"/>
      <point x="343" y="318" type="line"/>
      <point x="334" y="293"/>
      <point x="316" y="276"/>
      <point x="297" y="276" type="curve" smooth="yes"/>
      <point x="278" y="276"/>
      <point x="263" y="296"/>
      <point x="260" y="323" type="curve"/>
      <point x="233" y="291"/>
      <point x="196" y="273"/>
      <point x="159" y="273" type="curve" smooth="yes"/>
    </contour>
    <contour>
      <point x="211" y="310"/>
      <point x="239" y="324"/>
      <point x="260" y="349" type="curve"/>
      <point x="260" y="471" type="line"/>
      <point x="176" y="452"/>
      <point x="117" y="410"/>
      <point x="117" y="370" type="curve" smooth="yes"/>
      <point x="117" y="337"/>
      <point x="146" y="310"/>
      <point x="182" y="310" type="curve" smooth="yes"/>
    </contour>
  </outline>
</glyph>
<glyph name="guillemotleft" format="1">
  <advance width="587"/>
  <unicode hex="00AB"/>
  <note>
	guillemotleft
  </note>
  <outline>
    <contour>
      <point x="75" y="234" type="line"/>
      <point x="370" y="410" type="line"/>
      <point x="370" y="381" type="line"/>
      <point x="102" y="204" type="line"/>
      <point x="370" y="27" type="line"/>
      <point x="370" y="-2" type="line"/>
      <point x="75" y="171" type="line"/>
    </contour>
    <contour>
      <point x="217" y="234" type="line"/>
      <point x="512" y="410" type="line"/>
      <point x="512" y="381" type="line"/>
      <point x="244" y="204" type="line"/>
      <point x="512" y="27" type="line"/>
      <point x="512" y="-2" type="line"/>
      <point x="217" y="171" type="line"/>
    </contour>
  </outline>
</glyph>
<glyph name="macron" format="1">
  <advance width="474"/>
  <unicode hex="00AF"/>
  <note>
	macron
  </note>
  <outline>
    <contour>
      <point x="75" y="604" type="line"/>
      <point x="398" y="604" type="line"/>
      <point x="398" y="558" type="line"/>
      <point x="75" y="558" type="line"/>
    </contour>
  </outline>
</glyph>
<glyph name="degree" format="1">
  <advance width="316"/>
  <unicode hex="00B0"/>
  <note>
	degree
  </note>
  <outline>
    <contour>
      <point x="75" y="573"/>
      <point x="112" y="611"/>
      <point x="159" y="611" type="curve" smooth="yes"/>
      <point x="204" y="611"/>
      <point x="241" y="573"/>
      <point x="241" y="528" type="curve" smooth="yes"/>
      <point x="241" y="483"/>
      <point x="204" y="445"/>
      <point x="159" y="445" type="curve" smooth="yes"/>
      <point x="112" y="445"/>
      <point x="75" y="483"/>
      <point x="75" y="528" type="curve" smooth="yes"/>
    </contour>
    <contour>
      <point x="108" y="500"/>
      <point x="131" y="478"/>
      <point x="159" y="478" type="curve" smooth="yes"/>
      <point x="187" y="478"/>
      <point x="210" y="500"/>
      <point x="210" y="528" type="curve" smooth="yes"/>
      <point x="210" y="557"/>
      <point x="187" y="580"/>
      <point x="159" y="580" type="curve" smooth="yes"/>
      <point x="131" y="580"/>
      <point x="108" y="557"/>
      <point x="108" y="528" type="curve" smooth="yes"/>
    </contour>
  </outline>
</glyph>
<glyph name="twosuperior" format="1">
  <advance width="361"/>
  <unicode hex="00B2"/>
  <note>
	twosuperior
  </note>
  <outline>
    <contour>
      <point x="179" y="392"/>
      <point x="235" y="465"/>
      <point x="235" y="510" type="curve" smooth="yes"/>
      <point x="235" y="547"/>
      <point x="201" y="578"/>
      <point x="158" y="578" type="curve" smooth="yes"/>
      <point x="119" y="578"/>
      <point x="87" y="554"/>
      <point x="82" y="522" type="curve"/>
      <point x="75" y="523" type="line"/>
      <point x="83" y="570"/>
      <point x="126" y="603"/>
      <point x="178" y="603" type="curve" smooth="yes"/>
      <point x="226" y="603"/>
      <point x="265" y="572"/>
      <point x="265" y="533" type="curve" smooth="yes"/>
      <point x="265" y="482"/>
      <point x="210" y="410"/>
      <point x="117" y="334" type="curve"/>
      <point x="252" y="334" type="line" smooth="yes"/>
      <point x="260" y="334"/>
      <point x="269" y="345"/>
      <point x="276" y="362" type="curve"/>
      <point x="286" y="361" type="line"/>
      <point x="267" y="312" type="line"/>
      <point x="80" y="312" type="line"/>
    </contour>
  </outline>
</glyph>
<glyph name="threesuperior" format="1">
  <advance width="342"/>
  <unicode hex="00B3"/>
  <note>
	threesuperior
  </note>
  <outline>
    <contour>
      <point x="101" y="307"/>
      <point x="75" y="319"/>
      <point x="75" y="332" type="curve" smooth="yes"/>
      <point x="75" y="341"/>
      <point x="84" y="348"/>
      <point x="95" y="348" type="curve" smooth="yes"/>
      <point x="97" y="348"/>
      <point x="101" y="346"/>
      <point x="106" y="343" type="curve" smooth="yes"/>
      <point x="117" y="336" type="line"/>
      <point x="128" y="330"/>
      <point x="143" y="327"/>
      <point x="162" y="327" type="curve" smooth="yes"/>
      <point x="209" y="327"/>
      <point x="246" y="355"/>
      <point x="246" y="390" type="curve" smooth="yes"/>
      <point x="246" y="429"/>
      <point x="205" y="460"/>
      <point x="154" y="460" type="curve" smooth="yes"/>
      <point x="140" y="460" type="line"/>
      <point x="140" y="470" type="line"/>
      <point x="188" y="478"/>
      <point x="224" y="505"/>
      <point x="224" y="533" type="curve" smooth="yes"/>
      <point x="224" y="560"/>
      <point x="196" y="582"/>
      <point x="160" y="582" type="curve" smooth="yes"/>
      <point x="129" y="582"/>
      <point x="102" y="565"/>
      <point x="89" y="537" type="curve"/>
      <point x="81" y="540" type="line"/>
      <point x="94" y="579"/>
      <point x="132" y="604"/>
      <point x="173" y="604" type="curve" smooth="yes"/>
      <point x="213" y="604"/>
      <point x="246" y="579"/>
      <point x="246" y="550" type="curve" smooth="yes"/>
      <point x="246" y="525"/>
      <point x="226" y="497"/>
      <point x="191" y="477" type="curve"/>
      <point x="235" y="465"/>
      <point x="266" y="438"/>
      <point x="266" y="410" type="curve" smooth="yes"/>
      <point x="266" y="353"/>
      <point x="206" y="307"/>
      <point x="133" y="307" type="curve" smooth="yes"/>
    </contour>
  </outline>
</glyph>
<glyph name="cedilla" format="1">
  <advance width="332"/>
  <unicode hex="00B8"/>
  <note>
	cedilla
  </note>
  <outline>
    <contour>
      <point x="122" y="-194"/>
      <point x="91" y="-185"/>
      <point x="75" y="-169" type="curve"/>
      <point x="97" y="-145" type="line"/>
      <point x="108" y="-162"/>
      <point x="132" y="-174"/>
      <point x="161" y="-174" type="curve" smooth="yes"/>
      <point x="196" y="-174"/>
      <point x="223" y="-151"/>
      <point x="223" y="-123" type="curve" smooth="yes"/>
      <point x="223" y="-96"/>
      <point x="188" y="-72"/>
      <point x="141" y="-68" type="curve"/>
      <point x="168" y="4" type="line"/>
      <point x="202" y="4" type="line"/>
      <point x="185" y="-46" type="line"/>
      <point x="228" y="-58"/>
      <point x="257" y="-87"/>
      <point x="257" y="-118" type="curve" smooth="yes"/>
      <point x="257" y="-159"/>
      <point x="214" y="-194"/>
      <point x="161" y="-194" type="curve" smooth="yes"/>
    </contour>
  </outline>
</glyph>
<glyph name="ordmasculine" format="1">
  <advance width="380"/>
  <unicode hex="00BA"/>
  <note>
	ordmasculine
  </note>
  <outline>
    <contour>
      <point x="127" y="307"/>
      <point x="75" y="373"/>
      <point x="75" y="456" type="curve" smooth="yes"/>
      <point x="75" y="537"/>
      <point x="127" y="604"/>
      <point x="191" y="604" type="curve" smooth="yes"/>
      <point x="254" y="604"/>
      <point x="305" y="537"/>
      <point x="305" y="456" type="curve" smooth="yes"/>
      <point x="305" y="373"/>
      <point x="254" y="307"/>
      <point x="191" y="307" type="curve" smooth="yes"/>
    </contour>
    <contour>
      <point x="240" y="318"/>
      <point x="277" y="376"/>
      <point x="277" y="456" type="curve" smooth="yes"/>
      <point x="277" y="536"/>
      <point x="240" y="595"/>
      <point x="191" y="595" type="curve" smooth="yes"/>
      <point x="142" y="595"/>
      <point x="106" y="536"/>
      <point x="106" y="456" type="curve" smooth="yes"/>
      <point x="106" y="376"/>
      <point x="142" y="318"/>
      <point x="191" y="318" type="curve" smooth="yes"/>
    </contour>
  </outline>
</glyph>
<glyph name="guillemotright" format="1">
  <advance width="587"/>
  <unicode hex="00BB"/>
  <note>
	guillemotright
  </note>
  <outline>
    <contour>
      <point x="75" y="-2" type="line"/>
      <point x="75" y="27" type="line"/>
      <point x="344" y="204" type="line"/>
      <point x="75" y="381" type="line"/>
      <point x="75" y="410" type="line"/>
      <point x="370" y="234" type="line"/>
      <point x="370" y="171" type="line"/>
    </contour>
    <contour>
      <point x="217" y="-2" type="line"/>
      <point x="217" y="27" type="line"/>
      <point x="486" y="204" type="line"/>
      <point x="217" y="381" type="line"/>
      <point x="217" y="410" type="line"/>
      <point x="512" y="234" type="line"/>
      <point x="512" y="171" type="line"/>
    </contour>
  </outline>
</glyph>
<glyph name="onehalf" format="1">
  <advance width="597"/>
  <unicode hex="00BD"/>
  <note>
	onehalf
  </note>
  <outline>
    <contour>
      <point x="75" y="321" type="line"/>
      <point x="85" y="321" type="line" smooth="yes"/>
      <point x="110" y="321"/>
      <point x="130" y="332"/>
      <point x="130" y="345" type="curve" smooth="yes"/>
      <point x="130" y="553" type="line" smooth="yes"/>
      <point x="130" y="561"/>
      <point x="122" y="568"/>
      <point x="113" y="568" type="curve" smooth="yes"/>
      <point x="104" y="568"/>
      <point x="95" y="565"/>
      <point x="84" y="559" type="curve"/>
      <point x="80" y="564" type="line"/>
      <point x="154" y="602" type="line"/>
      <point x="154" y="347" type="line" smooth="yes"/>
      <point x="154" y="332"/>
      <point x="171" y="321"/>
      <point x="194" y="321" type="curve" smooth="yes"/>
      <point x="204" y="321" type="line"/>
      <point x="204" y="312" type="line"/>
      <point x="75" y="312" type="line"/>
    </contour>
    <contour>
      <point x="378" y="618" type="line"/>
      <point x="417" y="618" type="line"/>
      <point x="154" y="-50" type="line"/>
      <point x="114" y="-50" type="line"/>
    </contour>
    <contour>
      <point x="415" y="80"/>
      <point x="472" y="153"/>
      <point x="472" y="198" type="curve" smooth="yes"/>
      <point x="472" y="235"/>
      <point x="438" y="266"/>
      <point x="395" y="266" type="curve" smooth="yes"/>
      <point x="356" y="266"/>
      <point x="324" y="242"/>
      <point x="319" y="210" type="curve"/>
      <point x="311" y="210" type="line"/>
      <point x="319" y="257"/>
      <point x="363" y="291"/>
      <point x="414" y="291" type="curve" smooth="yes"/>
      <point x="462" y="291"/>
      <point x="502" y="259"/>
      <point x="502" y="220" type="curve" smooth="yes"/>
      <point x="502" y="171"/>
      <point x="448" y="97"/>
      <point x="353" y="21" type="curve"/>
      <point x="489" y="21" type="line" smooth="yes"/>
      <point x="497" y="21"/>
      <point x="505" y="33"/>
      <point x="512" y="50" type="curve"/>
      <point x="522" y="48" type="line"/>
      <point x="504" y="0" type="line"/>
      <point x="316" y="0" type="line"/>
    </contour>
  </outline>
</glyph>
<glyph name="AE" format="1">
  <advance width="672"/>
  <unicode hex="00C6"/>
  <note>
	AE
  </note>
  <outline>
    <contour>
      <point x="315" y="227" type="line"/>
      <point x="315" y="523" type="line"/>
      <point x="173" y="227" type="line"/>
    </contour>
    <contour>
      <point x="6" y="13" type="line"/>
      <point x="27" y="13"/>
      <point x="57" y="45"/>
      <point x="82" y="97" type="curve" smooth="yes"/>
      <point x="322" y="604" type="line"/>
      <point x="606" y="604" type="line"/>
      <point x="606" y="478" type="line"/>
      <point x="585" y="478" type="line"/>
      <point x="576" y="534"/>
      <point x="541" y="574"/>
      <point x="505" y="574" type="curve" smooth="yes"/>
      <point x="410" y="574" type="line" smooth="yes"/>
      <point x="391" y="574"/>
      <point x="376" y="556"/>
      <point x="376" y="533" type="curve" smooth="yes"/>
      <point x="376" y="331" type="line"/>
      <point x="455" y="331" type="line" smooth="yes"/>
      <point x="502" y="331"/>
      <point x="539" y="371"/>
      <point x="539" y="419" type="curve"/>
      <point x="556" y="419" type="line"/>
      <point x="556" y="210" type="line"/>
      <point x="539" y="210" type="line"/>
      <point x="539" y="261"/>
      <point x="502" y="302"/>
      <point x="455" y="302" type="curve" smooth="yes"/>
      <point x="376" y="302" type="line"/>
      <point x="376" y="84" type="line" smooth="yes"/>
      <point x="376" y="55"/>
      <point x="401" y="30"/>
      <point x="430" y="30" type="curve" smooth="yes"/>
      <point x="489" y="30" type="line" smooth="yes"/>
      <point x="552" y="30"/>
      <point x="610" y="76"/>
      <point x="635" y="147" type="curve"/>
      <point x="652" y="142" type="line"/>
      <point x="614" y="0" type="line"/>
      <point x="231" y="0" type="line"/>
      <point x="231" y="13" type="line"/>
      <point x="248" y="13" type="line" smooth="yes"/>
      <point x="285" y="13"/>
      <point x="315" y="45"/>
      <point x="315" y="84" type="curve" smooth="yes"/>
      <point x="315" y="202" type="line"/>
      <point x="160" y="202" type="line"/>
      <point x="121" y="105" type="line"/>
      <point x="109" y="79"/>
      <point x="103" y="61"/>
      <point x="103" y="50" type="curve" smooth="yes"/>
      <point x="103" y="30"/>
      <point x="118" y="13"/>
      <point x="137" y="13" type="curve" smooth="yes"/>
      <point x="150" y="13" type="line"/>
      <point x="150" y="0" type="line"/>
      <point x="6" y="0" type="line"/>
    </contour>
  </outline>
</glyph>
<glyph name="Icircumflex" format="1">
  <advance width="239"/>
  <unicode hex="00CE"/>
  <note>
	Icircumflex
  </note>
  <outline>
    <contour>
      <point x="6" y="15" type="line"/>
      <point x="53" y="15"/>
      <point x="90" y="38"/>
      <point x="90" y="66" type="curve" smooth="yes"/>
      <point x="90" y="530" type="line" smooth="yes"/>
      <point x="90" y="562"/>
      <point x="53" y="589"/>
      <point x="6" y="589" type="curve"/>
      <point x="6" y="604" type="line"/>
      <point x="233" y="604" type="line"/>
      <point x="233" y="589" type="line"/>
      <point x="188" y="589"/>
      <point x="150" y="562"/>
      <point x="150" y="530" type="curve" smooth="yes"/>
      <point x="150" y="66" type="line" smooth="yes"/>
      <point x="150" y="38"/>
      <point x="188" y="15"/>
      <point x="233" y="15" type="curve"/>
      <point x="233" y="0" type="line"/>
      <point x="6" y="0" type="line"/>
    </contour>
    <contour>
      <point x="145" y="804" type="line"/>
      <point x="230" y="644" type="line"/>
      <point x="197" y="644" type="line"/>
      <point x="118" y="768" type="line"/>
      <point x="40" y="644" type="line"/>
      <point x="8" y="644" type="line"/>
      <point x="96" y="804" type="line"/>
    </contour>
  </outline>
</glyph>
<glyph name="Idieresis" format="1">
  <advance width="239"/>
  <unicode hex="00CF"/>
  <note>
	Idieresis
  </note>
  <outline>
    <contour>
      <point x="6" y="15" type="line"/>
      <point x="53" y="15"/>
      <point x="90" y="38"/>
      <point x="90" y="66" type="curve" smooth="yes"/>
      <point x="90" y="530" type="line" smooth="yes"/>
      <point x="90" y="562"/>
      <point x="53" y="589"/>
      <point x="6" y="589" type="curve"/>
      <point x="6" y="604" type="line"/>
      <point x="233" y="604" type="line"/>
      <point x="233" y="589" type="line"/>
      <point x="188" y="589"/>
      <point x="150" y="562"/>
      <point x="150" y="530" type="curve" smooth="yes"/>
      <point x="150" y="66" type="line" smooth="yes"/>
      <point x="150" y="38"/>
      <point x="188" y="15"/>
      <point x="233" y="15" type="curve"/>
      <point x="233" y="0" type="line"/>
      <point x="6" y="0" type="line"/>
    </contour>
    <contour>
      <point x="13" y="644"/>
      <point x="-6" y="664"/>
      <point x="-6" y="688" type="curve" smooth="yes"/>
      <point x="-6" y="715"/>
      <point x="13" y="737"/>
      <point x="37" y="737" type="curve" smooth="yes"/>
      <point x="60" y="737"/>
      <point x="78" y="715"/>
      <point x="78" y="688" type="curve" smooth="yes"/>
      <point x="78" y="664"/>
      <point x="60" y="644"/>
      <point x="37" y="644" type="curve" smooth="yes"/>
    </contour>
    <contour>
      <point x="182" y="644"/>
      <point x="163" y="664"/>
      <point x="163" y="688" type="curve" smooth="yes"/>
      <point x="163" y="715"/>
      <point x="182" y="737"/>
      <point x="206" y="737" type="curve" smooth="yes"/>
      <point x="229" y="737"/>
      <point x="247" y="715"/>
      <point x="247" y="688" type="curve" smooth="yes"/>
      <point x="247" y="664"/>
      <point x="229" y="644"/>
      <point x="206" y="644" type="curve" smooth="yes"/>
    </contour>
  </outline>
</glyph>
<glyph name="Eth" format="1">
  <advance width="655"/>
  <unicode hex="00D0"/>
  <note>
	Eth
  </note>
  <outline>
    <contour>
      <point x="36" y="15" type="line"/>
      <point x="83" y="15"/>
      <point x="120" y="45"/>
      <point x="120" y="82" type="curve" smooth="yes"/>
      <point x="120" y="281" type="line"/>
      <point x="9" y="281" type="line"/>
      <point x="9" y="327" type="line"/>
      <point x="120" y="327" type="line"/>
      <point x="120" y="530" type="line" smooth="yes"/>
      <point x="120" y="563"/>
      <point x="83" y="590"/>
      <point x="36" y="590" type="curve"/>
      <point x="36" y="604" type="line"/>
      <point x="322" y="604" type="line" smooth="yes"/>
      <point x="494" y="604"/>
      <point x="619" y="476"/>
      <point x="619" y="300" type="curve" smooth="yes"/>
      <point x="619" y="127"/>
      <point x="494" y="0"/>
      <point x="322" y="0" type="curve" smooth="yes"/>
      <point x="36" y="0" type="line"/>
    </contour>
    <contour>
      <point x="440" y="22"/>
      <point x="552" y="140"/>
      <point x="552" y="300" type="curve" smooth="yes"/>
      <point x="552" y="460"/>
      <point x="440" y="578"/>
      <point x="288" y="578" type="curve" smooth="yes"/>
      <point x="228" y="578"/>
      <point x="179" y="553"/>
      <point x="179" y="522" type="curve" smooth="yes"/>
      <point x="179" y="327" type="line"/>
      <point x="332" y="327" type="line"/>
      <point x="332" y="281" type="line"/>
      <point x="179" y="281" type="line"/>
      <point x="179" y="66" type="line" smooth="yes"/>
      <point x="179" y="54"/>
      <point x="190" y="44"/>
      <point x="211" y="35" type="curve" smooth="yes"/>
      <point x="232" y="26"/>
      <point x="258" y="22"/>
      <point x="288" y="22" type="curve" smooth="yes"/>
    </contour>
  </outline>
</glyph>
<glyph name="Ntilde" format="1">
  <advance width="611"/>
  <unicode hex="00D1"/>
  <note>
	Ntilde
  </note>
  <outline>
    <contour>
      <point x="12" y="15" type="line"/>
      <point x="51" y="15"/>
      <point x="83" y="49"/>
      <point x="83" y="90" type="curve" smooth="yes"/>
      <point x="83" y="535" type="line"/>
      <point x="68" y="552"/>
      <point x="55" y="566"/>
      <point x="42" y="576" type="curve" smooth="yes"/>
      <point x="30" y="585"/>
      <point x="20" y="590"/>
      <point x="12" y="590" type="curve"/>
      <point x="12" y="604" type="line"/>
      <point x="129" y="604" type="line"/>
      <point x="502" y="119" type="line"/>
      <point x="502" y="518" type="line" smooth="yes"/>
      <point x="502" y="558"/>
      <point x="472" y="590"/>
      <point x="435" y="590" type="curve"/>
      <point x="435" y="604" type="line"/>
      <point x="607" y="604" type="line"/>
      <point x="607" y="590" type="line"/>
      <point x="566" y="590"/>
      <point x="532" y="558"/>
      <point x="532" y="518" type="curve" smooth="yes"/>
      <point x="532" y="0" type="line"/>
      <point x="511" y="0" type="line"/>
      <point x="114" y="506" type="line"/>
      <point x="114" y="90" type="line" smooth="yes"/>
      <point x="114" y="49"/>
      <point x="147" y="15"/>
      <point x="188" y="15" type="curve"/>
      <point x="188" y="0" type="line"/>
      <point x="12" y="0" type="line"/>
    </contour>
    <contour>
      <point x="158" y="662" type="line"/>
      <point x="165" y="702"/>
      <point x="202" y="731"/>
      <point x="246" y="731" type="curve" smooth="yes"/>
      <point x="259" y="731"/>
      <point x="276" y="725"/>
      <point x="299" y="712" type="curve" smooth="yes"/>
      <point x="322" y="699"/>
      <point x="339" y="693"/>
      <point x="352" y="693" type="curve" smooth="yes"/>
      <point x="379" y="693"/>
      <point x="402" y="706"/>
      <point x="414" y="727" type="curve"/>
      <point x="428" y="711" type="line"/>
      <point x="417" y="672"/>
      <point x="383" y="646"/>
      <point x="344" y="646" type="curve" smooth="yes"/>
      <point x="331" y="646"/>
      <point x="314" y="652"/>
      <point x="291" y="665" type="curve" smooth="yes"/>
      <point x="268" y="678"/>
      <point x="251" y="684"/>
      <point x="238" y="684" type="curve" smooth="yes"/>
      <point x="211" y="684"/>
      <point x="187" y="671"/>
      <point x="172" y="650" type="curve"/>
    </contour>
  </outline>
</glyph>
<glyph name="Ocircumflex" format="1">
  <advance width="638"/>
  <unicode hex="00D4"/>
  <note>
	Ocircumflex
  </note>
  <outline>
    <contour>
      <point x="149" y="-6"/>
      <point x="40" y="112"/>
      <point x="40" y="292" type="curve" smooth="yes"/>
      <point x="40" y="309" type="line" smooth="yes"/>
      <point x="40" y="492"/>
      <point x="149" y="611"/>
      <point x="317" y="611" type="curve" smooth="yes"/>
      <point x="488" y="611"/>
      <point x="598" y="492"/>
      <point x="598" y="309" type="curve" smooth="yes"/>
      <point x="598" y="292" type="line" smooth="yes"/>
      <point x="598" y="112"/>
      <point x="488" y="-6"/>
      <point x="317" y="-6" type="curve" smooth="yes"/>
    </contour>
    <contour>
      <point x="448" y="18"/>
      <point x="533" y="127"/>
      <point x="533" y="292" type="curve" smooth="yes"/>
      <point x="533" y="309" type="line" smooth="yes"/>
      <point x="533" y="477"/>
      <point x="448" y="587"/>
      <point x="317" y="587" type="curve" smooth="yes"/>
      <point x="190" y="587"/>
      <point x="107" y="477"/>
      <point x="107" y="309" type="curve" smooth="yes"/>
      <point x="107" y="292" type="line" smooth="yes"/>
      <point x="107" y="127"/>
      <point x="190" y="18"/>
      <point x="317" y="18" type="curve" smooth="yes"/>
    </contour>
    <contour>
      <point x="344" y="804" type="line"/>
      <point x="429" y="644" type="line"/>
      <point x="396" y="644" type="line"/>
      <point x="318" y="768" type="line"/>
      <point x="239" y="644" type="line"/>
      <point x="207" y="644" type="line"/>
      <point x="295" y="804" type="line"/>
    </contour>
  </outline>
</glyph>
<glyph name="Odieresis" format="1">
  <advance width="638"/>
  <unicode hex="00D6"/>
  <note>
	Odieresis
  </note>
  <outline>
    <contour>
      <point x="149" y="-6"/>
      <point x="40" y="112"/>
      <point x="40" y="292" type="curve" smooth="yes"/>
      <point x="40" y="309" type="line" smooth="yes"/>
      <point x="40" y="492"/>
      <point x="149" y="611"/>
      <point x="317" y="611" type="curve" smooth="yes"/>
      <point x="488" y="611"/>
      <point x="598" y="492"/>
      <point x="598" y="309" type="curve" smooth="yes"/>
      <point x="598" y="292" type="line" smooth="yes"/>
      <point x="598" y="112"/>
      <point x="488" y="-6"/>
      <point x="317" y="-6" type="curve" smooth="yes"/>
    </contour>
    <contour>
      <point x="448" y="18"/>
      <point x="533" y="127"/>
      <point x="533" y="292" type="curve" smooth="yes"/>
      <point x="533" y="309" type="line" smooth="yes"/>
      <point x="533" y="477"/>
      <point x="448" y="587"/>
      <point x="317" y="587" type="curve" smooth="yes"/>
      <point x="190" y="587"/>
      <point x="107" y="477"/>
      <point x="107" y="309" type="curve" smooth="yes"/>
      <point x="107" y="292" type="line" smooth="yes"/>
      <point x="107" y="127"/>
      <point x="190" y="18"/>
      <point x="317" y="18" type="curve" smooth="yes"/>
    </contour>
    <contour>
      <point x="209" y="644"/>
      <point x="190" y="664"/>
      <point x="190" y="688" type="curve" smooth="yes"/>
      <point x="190" y="715"/>
      <point x="209" y="737"/>
      <point x="232" y="737" type="curve" smooth="yes"/>
      <point x="255" y="737"/>
      <point x="274" y="715"/>
      <point x="274" y="688" type="curve" smooth="yes"/>
      <point x="274" y="664"/>
      <point x="255" y="644"/>
      <point x="232" y="644" type="curve" smooth="yes"/>
    </contour>
    <contour>
      <point x="377" y="644"/>
      <point x="358" y="664"/>
      <point x="358" y="688" type="curve" smooth="yes"/>
      <point x="358" y="715"/>
      <point x="377" y="737"/>
      <point x="401" y="737" type="curve" smooth="yes"/>
      <point x="424" y="737"/>
      <point x="442" y="715"/>
      <point x="442" y="688" type="curve" smooth="yes"/>
      <point x="442" y="664"/>
      <point x="424" y="644"/>
      <point x="401" y="644" type="curve" smooth="yes"/>
    </contour>
  </outline>
</glyph>
<glyph name="multiply" format="1">
  <advance width="595"/>
  <unicode hex="00D7"/>
  <note>
	multiply
  </note>
  <outline>
    <contour>
      <point x="118" y="480" type="line"/>
      <point x="297" y="296" type="line"/>
      <point x="474" y="479" type="line"/>
      <point x="525" y="425" type="line"/>
      <point x="346" y="249" type="line"/>
      <point x="525" y="68" type="line"/>
      <point x="474" y="20" type="line"/>
      <point x="297" y="199" type="line"/>
      <point x="118" y="20" type="line"/>
      <point x="70" y="68" type="line"/>
      <point x="246" y="249" type="line"/>
      <point x="70" y="425" type="line"/>
    </contour>
  </outline>
</glyph>
<glyph name="Oslash" format="1">
  <advance width="638"/>
  <unicode hex="00D8"/>
  <note>
	Oslash
  </note>
  <outline>
    <contour>
      <point x="273" y="-6"/>
      <point x="233" y="2"/>
      <point x="197" y="18" type="curve"/>
      <point x="159" y="-50" type="line"/>
      <point x="120" y="-34" type="line"/>
      <point x="160" y="38" type="line"/>
      <point x="85" y="86"/>
      <point x="40" y="183"/>
      <point x="40" y="292" type="curve" smooth="yes"/>
      <point x="40" y="309" type="line" smooth="yes"/>
      <point x="40" y="492"/>
      <point x="149" y="611"/>
      <point x="317" y="611" type="curve" smooth="yes"/>
      <point x="369" y="611"/>
      <point x="416" y="600"/>
      <point x="457" y="578" type="curve"/>
      <point x="496" y="650" type="line"/>
      <point x="534" y="634" type="line"/>
      <point x="491" y="555" type="line"/>
      <point x="559" y="502"/>
      <point x="598" y="412"/>
      <point x="598" y="309" type="curve" smooth="yes"/>
      <point x="598" y="292" type="line" smooth="yes"/>
      <point x="598" y="112"/>
      <point x="488" y="-6"/>
      <point x="317" y="-6" type="curve" smooth="yes"/>
    </contour>
    <contour>
      <point x="448" y="18"/>
      <point x="533" y="127"/>
      <point x="533" y="292" type="curve" smooth="yes"/>
      <point x="533" y="309" type="line" smooth="yes"/>
      <point x="533" y="393"/>
      <point x="511" y="465"/>
      <point x="470" y="516" type="curve"/>
      <point x="213" y="47" type="line"/>
      <point x="243" y="28"/>
      <point x="278" y="18"/>
      <point x="317" y="18" type="curve" smooth="yes"/>
    </contour>
    <contour>
      <point x="404" y="573"/>
      <point x="364" y="587"/>
      <point x="317" y="587" type="curve" smooth="yes"/>
      <point x="190" y="587"/>
      <point x="107" y="477"/>
      <point x="107" y="309" type="curve" smooth="yes"/>
      <point x="107" y="292" type="line" smooth="yes"/>
      <point x="107" y="200"/>
      <point x="133" y="122"/>
      <point x="180" y="74" type="curve"/>
      <point x="439" y="546" type="line"/>
    </contour>
  </outline>
</glyph>
<glyph name="Ucircumflex" format="1">
  <advance width="610"/>
  <unicode hex="00DB"/>
  <note>
	Ucircumflex
  </note>
  <outline>
    <contour>
      <point x="185" y="-4"/>
      <point x="87" y="88"/>
      <point x="87" y="200" type="curve" smooth="yes"/>
      <point x="87" y="522" type="line" smooth="yes"/>
      <point x="87" y="559"/>
      <point x="50" y="590"/>
      <point x="3" y="590" type="curve"/>
      <point x="3" y="604" type="line"/>
      <point x="230" y="604" type="line"/>
      <point x="230" y="590" type="line"/>
      <point x="183" y="590"/>
      <point x="146" y="559"/>
      <point x="146" y="522" type="curve" smooth="yes"/>
      <point x="146" y="200" type="line" smooth="yes"/>
      <point x="146" y="104"/>
      <point x="228" y="26"/>
      <point x="328" y="26" type="curve" smooth="yes"/>
      <point x="420" y="26"/>
      <point x="494" y="104"/>
      <point x="494" y="200" type="curve" smooth="yes"/>
      <point x="494" y="505" type="line" smooth="yes"/>
      <point x="494" y="552"/>
      <point x="462" y="590"/>
      <point x="423" y="590" type="curve"/>
      <point x="423" y="604" type="line"/>
      <point x="607" y="604" type="line"/>
      <point x="607" y="590" type="line"/>
      <point x="560" y="590"/>
      <point x="523" y="552"/>
      <point x="523" y="505" type="curve" smooth="yes"/>
      <point x="523" y="200" type="line" smooth="yes"/>
      <point x="523" y="87"/>
      <point x="426" y="-4"/>
      <point x="306" y="-4" type="curve" smooth="yes"/>
    </contour>
    <contour>
      <point x="342" y="804" type="line"/>
      <point x="426" y="644" type="line"/>
      <point x="394" y="644" type="line"/>
      <point x="315" y="768" type="line"/>
      <point x="237" y="644" type="line"/>
      <point x="205" y="644" type="line"/>
      <point x="293" y="804" type="line"/>
    </contour>
  </outline>
</glyph>
<glyph name="Thorn" format="1">
  <advance width="479"/>
  <unicode hex="00DE"/>
  <note>
	Thorn
  </note>
  <outline>
    <contour>
      <point x="6" y="15" type="line"/>
      <point x="53" y="15"/>
      <point x="90" y="45"/>
      <point x="90" y="82" type="curve" smooth="yes"/>
      <point x="90" y="530" type="line" smooth="yes"/>
      <point x="90" y="563"/>
      <point x="58" y="590"/>
      <point x="18" y="590" type="curve" smooth="yes"/>
      <point x="6" y="590" type="line"/>
      <point x="6" y="604" type="line"/>
      <point x="232" y="604" type="line"/>
      <point x="232" y="590" type="line"/>
      <point x="208" y="590" type="line" smooth="yes"/>
      <point x="176" y="590"/>
      <point x="149" y="563"/>
      <point x="149" y="530" type="curve" smooth="yes"/>
      <point x="149" y="484" type="line"/>
      <point x="170" y="500"/>
      <point x="207" y="508"/>
      <point x="258" y="508" type="curve" smooth="yes"/>
      <point x="377" y="508"/>
      <point x="454" y="439"/>
      <point x="454" y="334" type="curve" smooth="yes"/>
      <point x="454" y="231"/>
      <point x="370" y="164"/>
      <point x="241" y="164" type="curve" smooth="yes"/>
      <point x="149" y="164" type="line"/>
      <point x="149" y="82" type="line" smooth="yes"/>
      <point x="149" y="46"/>
      <point x="187" y="17"/>
      <point x="232" y="17" type="curve"/>
      <point x="232" y="0" type="line"/>
      <point x="6" y="0" type="line"/>
    </contour>
    <contour>
      <point x="329" y="190"/>
      <point x="387" y="247"/>
      <point x="387" y="334" type="curve" smooth="yes"/>
      <point x="387" y="423"/>
      <point x="329" y="482"/>
      <point x="241" y="482" type="curve" smooth="yes"/>
      <point x="190" y="482"/>
      <point x="149" y="461"/>
      <point x="149" y="434" type="curve" smooth="yes"/>
      <point x="149" y="190" type="line"/>
      <point x="241" y="190" type="line" smooth="yes"/>
    </contour>
  </outline>
</glyph>
<glyph name="ae" format="1">
  <advance width="670"/>
  <unicode hex="00E6"/>
  <note>
	ae
  </note>
  <outline>
    <contour>
      <point x="85" y="-8"/>
      <point x="36" y="34"/>
      <point x="36" y="86" type="curve" smooth="yes"/>
      <point x="36" y="163"/>
      <point x="135" y="241"/>
      <point x="275" y="270" type="curve"/>
      <point x="275" y="334" type="line" smooth="yes"/>
      <point x="275" y="370"/>
      <point x="234" y="398"/>
      <point x="183" y="398" type="curve" smooth="yes"/>
      <point x="139" y="398"/>
      <point x="103" y="380"/>
      <point x="103" y="359" type="curve" smooth="yes"/>
      <point x="103" y="354"/>
      <point x="106" y="347"/>
      <point x="112" y="338" type="curve"/>
      <point x="119" y="329"/>
      <point x="122" y="322"/>
      <point x="122" y="317" type="curve" smooth="yes"/>
      <point x="122" y="302"/>
      <point x="107" y="290"/>
      <point x="90" y="290" type="curve" smooth="yes"/>
      <point x="74" y="290"/>
      <point x="62" y="307"/>
      <point x="62" y="330" type="curve" smooth="yes"/>
      <point x="62" y="378"/>
      <point x="116" y="416"/>
      <point x="183" y="416" type="curve" smooth="yes"/>
      <point x="252" y="416"/>
      <point x="308" y="385"/>
      <point x="321" y="341" type="curve"/>
      <point x="354" y="388"/>
      <point x="405" y="416"/>
      <point x="457" y="416" type="curve" smooth="yes"/>
      <point x="553" y="416"/>
      <point x="630" y="331"/>
      <point x="630" y="226" type="curve"/>
      <point x="327" y="226" type="line"/>
      <point x="327" y="127"/>
      <point x="394" y="47"/>
      <point x="478" y="47" type="curve" smooth="yes"/>
      <point x="541" y="47"/>
      <point x="597" y="83"/>
      <point x="624" y="140" type="curve"/>
      <point x="641" y="133" type="line"/>
      <point x="620" y="52"/>
      <point x="546" y="-6"/>
      <point x="465" y="-6" type="curve" smooth="yes"/>
      <point x="409" y="-6"/>
      <point x="355" y="26"/>
      <point x="319" y="78" type="curve"/>
      <point x="270" y="23"/>
      <point x="206" y="-8"/>
      <point x="145" y="-8" type="curve" smooth="yes"/>
    </contour>
    <contour>
      <point x="210" y="38"/>
      <point x="247" y="57"/>
      <point x="275" y="90" type="curve"/>
      <point x="275" y="248" type="line"/>
      <point x="167" y="223"/>
      <point x="90" y="168"/>
      <point x="90" y="116" type="curve" smooth="yes"/>
      <point x="90" y="73"/>
      <point x="127" y="38"/>
      <point x="174" y="38" type="curve" smooth="yes"/>
    </contour>
    <contour>
      <point x="579" y="248" type="line"/>
      <point x="579" y="328"/>
      <point x="525" y="394"/>
      <point x="457" y="394" type="curve" smooth="yes"/>
      <point x="397" y="394"/>
      <point x="342" y="332"/>
      <point x="327" y="248" type="curve"/>
    </contour>
  </outline>
</glyph>
<glyph name="igrave" format="1">
  <advance width="214"/>
  <unicode hex="00EC"/>
  <note>
	igrave
  </note>
  <outline>
    <contour>
      <point x="17" y="15" type="line"/>
      <point x="54" y="15"/>
      <point x="84" y="39"/>
      <point x="84" y="68" type="curve" smooth="yes"/>
      <point x="84" y="334" type="line" smooth="yes"/>
      <point x="84" y="349"/>
      <point x="65" y="361"/>
      <point x="42" y="361" type="curve" smooth="yes"/>
      <point x="17" y="361" type="line"/>
      <point x="17" y="375" type="line"/>
      <point x="134" y="415" type="line"/>
      <point x="134" y="68" type="line" smooth="yes"/>
      <point x="134" y="39"/>
      <point x="161" y="14"/>
      <point x="193" y="14" type="curve"/>
      <point x="193" y="0" type="line"/>
      <point x="17" y="0" type="line"/>
    </contour>
    <contour>
      <point x="97" y="626" type="line"/>
      <point x="132" y="453" type="line"/>
      <point x="110" y="453" type="line"/>
      <point x="52" y="626" type="line"/>
    </contour>
  </outline>
</glyph>
<glyph name="iacute" format="1">
  <advance width="214"/>
  <unicode hex="00ED"/>
  <note>
	iacute
  </note>
  <outline>
    <contour>
      <point x="17" y="15" type="line"/>
      <point x="54" y="15"/>
      <point x="84" y="39"/>
      <point x="84" y="68" type="curve" smooth="yes"/>
      <point x="84" y="334" type="line" smooth="yes"/>
      <point x="84" y="349"/>
      <point x="65" y="361"/>
      <point x="42" y="361" type="curve" smooth="yes"/>
      <point x="17" y="361" type="line"/>
      <point x="17" y="375" type="line"/>
      <point x="134" y="415" type="line"/>
      <point x="134" y="68" type="line" smooth="yes"/>
      <point x="134" y="39"/>
      <point x="161" y="14"/>
      <point x="193" y="14" type="curve"/>
      <point x="193" y="0" type="line"/>
      <point x="17" y="0" type="line"/>
    </contour>
    <contour>
      <point x="153" y="626" type="line"/>
      <point x="58" y="453" type="line"/>
      <point x="35" y="453" type="line"/>
      <point x="103" y="626" type="line"/>
    </contour>
  </outline>
</glyph>
<glyph name="eth" format="1">
  <advance width="478"/>
  <unicode hex="00F0"/>
  <note>
	eth
  </note>
  <outline>
    <contour>
      <point x="134" y="0"/>
      <point x="42" y="93"/>
      <point x="42" y="208" type="curve" smooth="yes"/>
      <point x="42" y="323"/>
      <point x="130" y="416"/>
      <point x="239" y="416" type="curve" smooth="yes"/>
      <point x="248" y="416"/>
      <point x="257" y="415"/>
      <point x="266" y="414" type="curve"/>
      <point x="210" y="473" type="line"/>
      <point x="100" y="414" type="line"/>
      <point x="71" y="435" type="line"/>
      <point x="184" y="499" type="line"/>
      <point x="87" y="601" type="line"/>
      <point x="121" y="626" type="line"/>
      <point x="218" y="521" type="line"/>
      <point x="334" y="598" type="line"/>
      <point x="355" y="569" type="line"/>
      <point x="244" y="495" type="line"/>
      <point x="362" y="363" type="line"/>
      <point x="409" y="326"/>
      <point x="436" y="265"/>
      <point x="436" y="200" type="curve" smooth="yes"/>
      <point x="436" y="89"/>
      <point x="351" y="0"/>
      <point x="247" y="0" type="curve" smooth="yes"/>
    </contour>
    <contour>
      <point x="324" y="14"/>
      <point x="378" y="94"/>
      <point x="378" y="191" type="curve" smooth="yes"/>
      <point x="378" y="303"/>
      <point x="309" y="394"/>
      <point x="222" y="394" type="curve" smooth="yes"/>
      <point x="155" y="394"/>
      <point x="101" y="320"/>
      <point x="101" y="229" type="curve" smooth="yes"/>
      <point x="101" y="110"/>
      <point x="171" y="14"/>
      <point x="256" y="14" type="curve" smooth="yes"/>
    </contour>
  </outline>
</glyph>
<glyph name="ograve" format="1">
  <advance width="479"/>
  <unicode hex="00F2"/>
  <note>
	ograve
  </note>
  <outline>
    <contour>
      <point x="131" y="-8"/>
      <point x="42" y="89"/>
      <point x="42" y="208" type="curve" smooth="yes"/>
      <point x="42" y="323"/>
      <point x="131" y="416"/>
      <point x="240" y="416" type="curve" smooth="yes"/>
      <point x="349" y="416"/>
      <point x="437" y="323"/>
      <point x="437" y="208" type="curve" smooth="yes"/>
      <point x="437" y="89"/>
      <point x="349" y="-8"/>
      <point x="240" y="-8" type="curve" smooth="yes"/>
    </contour>
    <contour>
      <point x="324" y="14"/>
      <point x="378" y="94"/>
      <point x="378" y="191" type="curve" smooth="yes"/>
      <point x="378" y="303"/>
      <point x="308" y="394"/>
      <point x="223" y="394" type="curve" smooth="yes"/>
      <point x="156" y="394"/>
      <point x="102" y="320"/>
      <point x="102" y="229" type="curve" smooth="yes"/>
      <point x="102" y="110"/>
      <point x="172" y="14"/>
      <point x="257" y="14" type="curve" smooth="yes"/>
    </contour>
    <contour>
      <point x="230" y="626" type="line"/>
      <point x="265" y="453" type="line"/>
      <point x="242" y="453" type="line"/>
      <point x="185" y="626" type="line"/>
    </contour>
  </outline>
</glyph>
<glyph name="odieresis" format="1">
  <advance width="479"/>
  <unicode hex="00F6"/>
  <note>
	odieresis
  </note>
  <outline>
    <contour>
      <point x="131" y="-8"/>
      <point x="42" y="89"/>
      <point x="42" y="208" type="curve" smooth="yes"/>
      <point x="42" y="323"/>
      <point x="131" y="416"/>
      <point x="240" y="416" type="curve" smooth="yes"/>
      <point x="349" y="416"/>
      <point x="437" y="323"/>
      <point x="437" y="208" type="curve" smooth="yes"/>
      <point x="437" y="89"/>
      <point x="349" y="-8"/>
      <point x="240" y="-8" type="curve" smooth="yes"/>
    </contour>
    <contour>
      <point x="324" y="14"/>
      <point x="378" y="94"/>
      <point x="378" y="191" type="curve" smooth="yes"/>
      <point x="378" y="303"/>
      <point x="308" y="394"/>
      <point x="223" y="394" type="curve" smooth="yes"/>
      <point x="156" y="394"/>
      <point x="102" y="320"/>
      <point x="102" y="229" type="curve" smooth="yes"/>
      <point x="102" y="110"/>
      <point x="172" y="14"/>
      <point x="257" y="14" type="curve" smooth="yes"/>
    </contour>
    <contour>
      <point x="127" y="453"/>
      <point x="108" y="473"/>
      <point x="108" y="497" type="curve" smooth="yes"/>
      <point x="108" y="524"/>
      <point x="127" y="546"/>
      <point x="150" y="546" type="curve" smooth="yes"/>
      <point x="173" y="546"/>
      <point x="192" y="524"/>
      <point x="192" y="497" type="curve" smooth="yes"/>
      <point x="192" y="473"/>
      <point x="173" y="453"/>
      <point x="150" y="453" type="curve" smooth="yes"/>
    </contour>
    <contour>
      <point x="296" y="453"/>
      <point x="277" y="473"/>
      <point x="277" y="497" type="curve" smooth="yes"/>
      <point x="277" y="524"/>
      <point x="296" y="546"/>
      <point x="319" y="546" type="curve" smooth="yes"/>
      <point x="342" y="546"/>
      <point x="361" y="524"/>
      <point x="361" y="497" type="curve" smooth="yes"/>
      <point x="361" y="473"/>
      <point x="342" y="453"/>
      <point x="319" y="453" type="curve" smooth="yes"/>
    </contour>
  </outline>
</glyph>
<glyph name="divide" format="1">
  <advance width="552"/>
  <unicode hex="00F7"/>
  <note>
	divide
  </note>
  <outline>
    <contour>
      <point x="482" y="219" type="line"/>
      <point x="70" y="219" type="line"/>
      <point x="70" y="278" type="line"/>
      <point x="482" y="278" type="line"/>
    </contour>
    <contour>
      <point x="308" y="136"/>
      <point x="333" y="109"/>
      <point x="333" y="77" type="curve" smooth="yes"/>
      <point x="333" y="45"/>
      <point x="308" y="20"/>
      <point x="277" y="20" type="curve" smooth="yes"/>
      <point x="245" y="20"/>
      <point x="220" y="45"/>
      <point x="220" y="77" type="curve" smooth="yes"/>
      <point x="220" y="109"/>
      <point x="245" y="136"/>
      <point x="277" y="136" type="curve" smooth="yes"/>
    </contour>
    <contour>
      <point x="308" y="480"/>
      <point x="333" y="454"/>
      <point x="333" y="422" type="curve" smooth="yes"/>
      <point x="333" y="390"/>
      <point x="308" y="363"/>
      <point x="277" y="363" type="curve" smooth="yes"/>
      <point x="245" y="363"/>
      <point x="220" y="390"/>
      <point x="220" y="422" type="curve" smooth="yes"/>
      <point x="220" y="454"/>
      <point x="245" y="480"/>
      <point x="277" y="480" type="curve" smooth="yes"/>
    </contour>
  </outline>
</glyph>
<glyph name="oslash" format="1">
  <advance width="483"/>
  <unicode hex="00F8"/>
  <note>
	oslash
  </note>
  <outline>
    <contour>
      <point x="206" y="-8"/>
      <point x="173" y="2"/>
      <point x="142" y="22" type="curve"/>
      <point x="92" y="-50" type="line"/>
      <point x="65" y="-34" type="line"/>
      <point x="115" y="42" type="line"/>
      <point x="70" y="83"/>
      <point x="44" y="143"/>
      <point x="44" y="208" type="curve" smooth="yes"/>
      <point x="44" y="323"/>
      <point x="133" y="416"/>
      <point x="242" y="416" type="curve" smooth="yes"/>
      <point x="278" y="416"/>
      <point x="311" y="406"/>
      <point x="342" y="387" type="curve"/>
      <point x="409" y="490" type="line"/>
      <point x="431" y="470" type="line"/>
      <point x="367" y="368" type="line"/>
      <point x="412" y="329"/>
      <point x="438" y="271"/>
      <point x="438" y="208" type="curve" smooth="yes"/>
      <point x="438" y="89"/>
      <point x="350" y="-8"/>
      <point x="242" y="-8" type="curve" smooth="yes"/>
    </contour>
    <contour>
      <point x="326" y="14"/>
      <point x="380" y="94"/>
      <point x="380" y="191" type="curve" smooth="yes"/>
      <point x="380" y="244"/>
      <point x="367" y="290"/>
      <point x="341" y="327" type="curve"/>
      <point x="165" y="58" type="line"/>
      <point x="192" y="30"/>
      <point x="226" y="14"/>
      <point x="258" y="14" type="curve" smooth="yes"/>
    </contour>
    <contour>
      <point x="292" y="380"/>
      <point x="258" y="394"/>
      <point x="225" y="394" type="curve" smooth="yes"/>
      <point x="157" y="394"/>
      <point x="103" y="320"/>
      <point x="103" y="229" type="curve" smooth="yes"/>
      <point x="103" y="174"/>
      <point x="116" y="126"/>
      <point x="143" y="85" type="curve"/>
      <point x="319" y="353" type="line"/>
    </contour>
  </outline>
</glyph>
<glyph name="uacute" format="1">
  <advance width="458"/>
  <unicode hex="00FA"/>
  <note>
	uacute
  </note>
  <outline>
    <contour>
      <point x="129" y="-5"/>
      <point x="76" y="45"/>
      <point x="76" y="106" type="curve" smooth="yes"/>
      <point x="76" y="354" type="line" smooth="yes"/>
      <point x="76" y="377"/>
      <point x="55" y="396"/>
      <point x="30" y="396" type="curve" smooth="yes"/>
      <point x="18" y="396" type="line"/>
      <point x="18" y="411" type="line"/>
      <point x="126" y="411" type="line"/>
      <point x="126" y="127" type="line" smooth="yes"/>
      <point x="126" y="75"/>
      <point x="170" y="34"/>
      <point x="223" y="34" type="curve" smooth="yes"/>
      <point x="260" y="34"/>
      <point x="301" y="63"/>
      <point x="328" y="110" type="curve"/>
      <point x="328" y="346" type="line" smooth="yes"/>
      <point x="328" y="374"/>
      <point x="298" y="396"/>
      <point x="261" y="396" type="curve"/>
      <point x="261" y="411" type="line"/>
      <point x="378" y="411" type="line"/>
      <point x="378" y="94" type="line" smooth="yes"/>
      <point x="378" y="70"/>
      <point x="397" y="50"/>
      <point x="420" y="50" type="curve" smooth="yes"/>
      <point x="437" y="50" type="line"/>
      <point x="437" y="38" type="line"/>
      <point x="328" y="-4" type="line"/>
      <point x="328" y="69" type="line"/>
      <point x="296" y="22"/>
      <point x="246" y="-5"/>
      <point x="194" y="-5" type="curve" smooth="yes"/>
    </contour>
    <contour>
      <point x="290" y="626" type="line"/>
      <point x="194" y="453" type="line"/>
      <point x="172" y="453" type="line"/>
      <point x="240" y="626" type="line"/>
    </contour>
  </outline>
</glyph>
<glyph name="yacute" format="1">
  <advance width="414"/>
  <unicode hex="00FD"/>
  <note>
	yacute
  </note>
  <outline>
    <contour>
      <point x="51" y="-198"/>
      <point x="26" y="-178"/>
      <point x="26" y="-154" type="curve" smooth="yes"/>
      <point x="26" y="-129"/>
      <point x="46" y="-109"/>
      <point x="71" y="-109" type="curve" smooth="yes"/>
      <point x="76" y="-109"/>
      <point x="83" y="-112"/>
      <point x="92" y="-118" type="curve"/>
      <point x="101" y="-123"/>
      <point x="109" y="-126"/>
      <point x="114" y="-126" type="curve" smooth="yes"/>
      <point x="127" y="-126"/>
      <point x="145" y="-106"/>
      <point x="158" y="-74" type="curve" smooth="yes"/>
      <point x="200" y="27" type="line"/>
      <point x="62" y="346" type="line" smooth="yes"/>
      <point x="49" y="378"/>
      <point x="28" y="398"/>
      <point x="9" y="398" type="curve"/>
      <point x="9" y="411" type="line"/>
      <point x="159" y="411" type="line"/>
      <point x="159" y="396" type="line"/>
      <point x="142" y="396" type="line" smooth="yes"/>
      <point x="126" y="396"/>
      <point x="112" y="385"/>
      <point x="112" y="372" type="curve" smooth="yes"/>
      <point x="112" y="363"/>
      <point x="116" y="350"/>
      <point x="123" y="333" type="curve" smooth="yes"/>
      <point x="226" y="90" type="line"/>
      <point x="326" y="346" type="line" smooth="yes"/>
      <point x="331" y="360"/>
      <point x="334" y="370"/>
      <point x="334" y="375" type="curve" smooth="yes"/>
      <point x="334" y="387"/>
      <point x="322" y="396"/>
      <point x="307" y="396" type="curve" smooth="yes"/>
      <point x="294" y="396" type="line"/>
      <point x="294" y="411" type="line"/>
      <point x="402" y="411" type="line"/>
      <point x="402" y="396" type="line"/>
      <point x="387" y="396"/>
      <point x="368" y="374"/>
      <point x="355" y="342" type="curve" smooth="yes"/>
      <point x="187" y="-78" type="line" smooth="yes"/>
      <point x="158" y="-150"/>
      <point x="116" y="-198"/>
      <point x="80" y="-198" type="curve" smooth="yes"/>
    </contour>
    <contour>
      <point x="301" y="626" type="line"/>
      <point x="206" y="453" type="line"/>
      <point x="183" y="453" type="line"/>
      <point x="251" y="626" type="line"/>
    </contour>
  </outline>
</glyph>
<glyph name="thorn" format="1">
  <advance width="454"/>
  <unicode hex="00FE"/>
  <note>
	thorn
  </note>
  <outline>
    <contour>
      <point x="8" y="-185" type="line"/>
      <point x="25" y="-185" type="line" smooth="yes"/>
      <point x="53" y="-185"/>
      <point x="75" y="-158"/>
      <point x="75" y="-126" type="curve" smooth="yes"/>
      <point x="75" y="524" type="line" smooth="yes"/>
      <point x="75" y="547"/>
      <point x="61" y="566"/>
      <point x="42" y="566" type="curve" smooth="yes"/>
      <point x="13" y="566" type="line"/>
      <point x="8" y="583" type="line"/>
      <point x="135" y="625" type="line"/>
      <point x="135" y="357" type="line"/>
      <point x="154" y="390"/>
      <point x="206" y="411"/>
      <point x="270" y="411" type="curve" smooth="yes"/>
      <point x="346" y="411"/>
      <point x="408" y="332"/>
      <point x="408" y="235" type="curve" smooth="yes"/>
      <point x="408" y="106"/>
      <point x="331" y="0"/>
      <point x="236" y="0" type="curve" smooth="yes"/>
      <point x="188" y="0"/>
      <point x="151" y="10"/>
      <point x="135" y="29" type="curve"/>
      <point x="135" y="-126" type="line" smooth="yes"/>
      <point x="135" y="-158"/>
      <point x="162" y="-185"/>
      <point x="194" y="-185" type="curve" smooth="yes"/>
      <point x="210" y="-185" type="line"/>
      <point x="210" y="-202" type="line"/>
      <point x="8" y="-202" type="line"/>
    </contour>
    <contour>
      <point x="292" y="33"/>
      <point x="345" y="109"/>
      <point x="345" y="202" type="curve" smooth="yes"/>
      <point x="345" y="297"/>
      <point x="292" y="374"/>
      <point x="227" y="374" type="curve" smooth="yes"/>
      <point x="188" y="374"/>
      <point x="152" y="350"/>
      <point x="135" y="314" type="curve"/>
      <point x="135" y="75" type="line"/>
      <point x="144" y="50"/>
      <point x="180" y="33"/>
      <point x="227" y="33" type="curve" smooth="yes"/>
    </contour>
  </outline>
</glyph>
<glyph name="ydieresis" format="1">
  <advance width="414"/>
  <unicode hex="00FF"/>
  <note>
	ydieresis
  </note>
  <outline>
    <contour>
      <point x="51" y="-198"/>
      <point x="26" y="-178"/>
      <point x="26" y="-154" type="curve" smooth="yes"/>
      <point x="26" y="-129"/>
      <point x="46" y="-109"/>
      <point x="71" y="-109" type="curve" smooth="yes"/>
      <point x="76" y="-109"/>
      <point x="83" y="-112"/>
      <point x="92" y="-118" type="curve"/>
      <point x="101" y="-123"/>
      <point x="109" y="-126"/>
      <point x="114" y="-126" type="curve" smooth="yes"/>
      <point x="127" y="-126"/>
      <point x="145" y="-106"/>
      <point x="158" y="-74" type="curve" smooth="yes"/>
      <point x="200" y="27" type="line"/>
      <point x="62" y="346" type="line" smooth="yes"/>
      <point x="49" y="378"/>
      <point x="28" y="398"/>
      <point x="9" y="398" type="curve"/>
      <point x="9" y="411" type="line"/>
      <point x="159" y="411" type="line"/>
      <point x="159" y="396" type="line"/>
      <point x="142" y="396" type="line" smooth="yes"/>
      <point x="126" y="396"/>
      <point x="112" y="385"/>
      <point x="112" y="372" type="curve" smooth="yes"/>
      <point x="112" y="363"/>
      <point x="116" y="350"/>
      <point x="123" y="333" type="curve" smooth="yes"/>
      <point x="226" y="90" type="line"/>
      <point x="326" y="346" type="line" smooth="yes"/>
      <point x="331" y="360"/>
      <point x="334" y="370"/>
      <point x="334" y="375" type="curve" smooth="yes"/>
      <point x="334" y="387"/>
      <point x="322" y="396"/>
      <point x="307" y="396" type="curve" smooth="yes"/>
      <point x="294" y="396" type="line"/>
      <point x="294" y="411" type="line"/>
      <point x="402" y="411" type="line"/>
      <point x="402" y="396" type="line"/>
      <point x="387" y="396"/>
      <point x="368" y="374"/>
      <point x="355" y="342" type="curve" smooth="yes"/>
      <point x="187" y="-78" type="line" smooth="yes"/>
      <point x="158" y="-150"/>
      <point x="116" y="-198"/>
      <point x="80" y="-198" type="curve" smooth="yes"/>
    </contour>
    <contour>
      <point x="106" y="453"/>
      <point x="87" y="473"/>
      <point x="87" y="497" type="curve" smooth="yes"/>
      <point x="87" y="524"/>
      <point x="106" y="546"/>
      <point x="130" y="546" type="curve" smooth="yes"/>
      <point x="153" y="546"/>
      <point x="171" y="524"/>
      <point x="171" y="497" type="curve" smooth="yes"/>
      <point x="171" y="473"/>
      <point x="153" y="453"/>
      <point x="130" y="453" type="curve" smooth="yes"/>
    </contour>
    <contour>
      <point x="275" y="453"/>
      <point x="256" y="473"/>
      <point x="256" y="497" type="curve" smooth="yes"/>
      <point x="256" y="524"/>
      <point x="275" y="546"/>
      <point x="298" y="546" type="curve" smooth="yes"/>
      <point x="321" y="546"/>
      <point x="340" y="524"/>
      <point x="340" y="497" type="curve" smooth="yes"/>
      <point x="340" y="473"/>
      <point x="321" y="453"/>
      <point x="298" y="453" type="curve" smooth="yes"/>
    </contour>
  </outline>
</glyph>
<glyph name="circumflex" format="1">
  <advance width="372"/>
  <unicode hex="02C6"/>
  <note>
	circumflex
  </note>
  <outline>
    <contour>
      <point x="212" y="603" type="line"/>
      <point x="297" y="443" type="line"/>
      <point x="264" y="443" type="line"/>
      <point x="186" y="567" type="line"/>
      <point x="107" y="443" type="line"/>
      <point x="75" y="443" type="line"/>
      <point x="163" y="603" type="line"/>
    </contour>
  </outline>
</glyph>
<glyph name="lozenge" format="1">
  <advance width="420"/>
  <unicode hex="02DC"/>
  <note>
	lozenge
  </note>
  <outline>
    <contour>
      <point x="75" y="499" type="line"/>
      <point x="82" y="539"/>
      <point x="119" y="568"/>
      <point x="163" y="568" type="curve" smooth="yes"/>
      <point x="176" y="568"/>
      <point x="193" y="562"/>
      <point x="216" y="549" type="curve" smooth="yes"/>
      <point x="239" y="536"/>
      <point x="256" y="530"/>
      <point x="269" y="530" type="curve" smooth="yes"/>
      <point x="296" y="530"/>
      <point x="319" y="543"/>
      <point x="331" y="564" type="curve"/>
      <point x="345" y="548" type="line"/>
      <point x="334" y="509"/>
      <point x="300" y="482"/>
      <point x="261" y="482" type="curve" smooth="yes"/>
      <point x="248" y="482"/>
      <point x="231" y="489"/>
      <point x="208" y="502" type="curve" smooth="yes"/>
      <point x="185" y="515"/>
      <point x="168" y="521"/>
      <point x="155" y="521" type="curve" smooth="yes"/>
      <point x="128" y="521"/>
      <point x="105" y="507"/>
      <point x="89" y="486" type="curve"/>
    </contour>
  </outline>
</glyph>
<glyph name="uni0964" format="1">
  <advance width="255"/>
  <unicode hex="0964"/>
  <note>
	uni0964
  </note>
  <outline>
    <contour>
      <point x="185" y="459" type="line"/>
      <point x="185" y="-2" type="line"/>
      <point x="140" y="41" type="line"/>
      <point x="140" y="502" type="line"/>
    </contour>
  </outline>
</glyph>
<glyph name="uni0965" format="1">
  <advance width="399"/>
  <unicode hex="0965"/>
  <note>
	uni0965
  </note>
  <outline>
    <contour>
      <point x="185" y="459" type="line"/>
      <point x="185" y="-2" type="line"/>
      <point x="140" y="41" type="line"/>
      <point x="140" y="502" type="line"/>
    </contour>
    <contour>
      <point x="329" y="459" type="line"/>
      <point x="329" y="-2" type="line"/>
      <point x="284" y="41" type="line"/>
      <point x="284" y="502" type="line"/>
    </contour>
  </outline>
</glyph>
<glyph name="uni0981" format="1">
  <advance width="0"/>
  <unicode hex="0981"/>
  <note>
	uni0981
  </note>
  <outline>
    <contour>
      <point x="-191" y="708" type="line"/>
      <point x="-184" y="668"/>
      <point x="-142" y="639"/>
      <point x="-93" y="639" type="curve" smooth="yes"/>
      <point x="-44" y="639"/>
      <point x="-2" y="668"/>
      <point x="5" y="708" type="curve"/>
      <point x="28" y="708" type="line"/>
      <point x="28" y="640"/>
      <point x="-26" y="585"/>
      <point x="-93" y="585" type="curve" smooth="yes"/>
      <point x="-160" y="585"/>
      <point x="-214" y="640"/>
      <point x="-214" y="708" type="curve"/>
    </contour>
    <contour>
      <point x="-93" y="749" type="line"/>
      <point x="-50" y="706" type="line"/>
      <point x="-93" y="664" type="line"/>
      <point x="-136" y="706" type="line"/>
    </contour>
  </outline>
</glyph>
<glyph name="uni0982" format="1">
  <advance width="342"/>
  <unicode hex="0982"/>
  <note>
	uni0982
  </note>
  <outline>
    <contour>
      <point x="344" y="-14"/>
      <point x="364" y="-13"/>
      <point x="364" y="3" type="curve" smooth="yes"/>
      <point x="364" y="8"/>
      <point x="361" y="15"/>
      <point x="355" y="22" type="curve" smooth="yes"/>
      <point x="324" y="55"/>
      <point x="301" y="135"/>
      <point x="257" y="204" type="curve" smooth="yes"/>
      <point x="221" y="261"/>
      <point x="166" y="310"/>
      <point x="85" y="310" type="curve" smooth="yes"/>
      <point x="68" y="310"/>
      <point x="60" y="300"/>
      <point x="60" y="290" type="curve" smooth="yes"/>
      <point x="60" y="280"/>
      <point x="68" y="270"/>
      <point x="84" y="270" type="curve" smooth="yes"/>
      <point x="156" y="270"/>
      <point x="196" y="229"/>
      <point x="229" y="176" type="curve" smooth="yes"/>
      <point x="271" y="109"/>
      <point x="297" y="34"/>
      <point x="330" y="0" type="curve" smooth="yes"/>
    </contour>
    <contour>
      <point x="220" y="360"/>
      <point x="267" y="393"/>
      <point x="267" y="454" type="curve" smooth="yes"/>
      <point x="267" y="515"/>
      <point x="222" y="555"/>
      <point x="160" y="555" type="curve" smooth="yes"/>
      <point x="93" y="555"/>
      <point x="62" y="505"/>
      <point x="62" y="463" type="curve" smooth="yes"/>
      <point x="62" y="408"/>
      <point x="110" y="360"/>
      <point x="170" y="360" type="curve" smooth="yes"/>
    </contour>
    <contour>
      <point x="139" y="395"/>
      <point x="100" y="416"/>
      <point x="100" y="458" type="curve" smooth="yes"/>
      <point x="100" y="487"/>
      <point x="119" y="520"/>
      <point x="161" y="520" type="curve" smooth="yes"/>
      <point x="200" y="520"/>
      <point x="231" y="497"/>
      <point x="231" y="459" type="curve" smooth="yes"/>
      <point x="231" y="425"/>
      <point x="202" y="395"/>
      <point x="168" y="395" type="curve" smooth="yes"/>
    </contour>
  </outline>
</glyph>
<glyph name="uni0983" format="1">
  <advance width="407"/>
  <unicode hex="0983"/>
  <note>
	uni0983
  </note>
  <outline>
    <contour>
      <point x="264" y="62"/>
      <point x="315" y="99"/>
      <point x="315" y="166" type="curve" smooth="yes"/>
      <point x="315" y="233"/>
      <point x="266" y="277"/>
      <point x="198" y="277" type="curve" smooth="yes"/>
      <point x="124" y="277"/>
      <point x="90" y="222"/>
      <point x="90" y="176" type="curve" smooth="yes"/>
      <point x="90" y="115"/>
      <point x="143" y="62"/>
      <point x="209" y="62" type="curve" smooth="yes"/>
    </contour>
    <contour>
      <point x="174" y="101"/>
      <point x="132" y="124"/>
      <point x="132" y="170" type="curve" smooth="yes"/>
      <point x="132" y="202"/>
      <point x="152" y="238"/>
      <point x="199" y="238" type="curve" smooth="yes"/>
      <point x="242" y="238"/>
      <point x="276" y="213"/>
      <point x="276" y="171" type="curve" smooth="yes"/>
      <point x="276" y="134"/>
      <point x="244" y="101"/>
      <point x="206" y="101" type="curve" smooth="yes"/>
    </contour>
    <contour>
      <point x="264" y="372"/>
      <point x="315" y="409"/>
      <point x="315" y="476" type="curve" smooth="yes"/>
      <point x="315" y="550"/>
      <point x="256" y="587"/>
      <point x="199" y="587" type="curve" smooth="yes"/>
      <point x="144" y="587"/>
      <point x="90" y="553"/>
      <point x="90" y="486" type="curve" smooth="yes"/>
      <point x="90" y="425"/>
      <point x="143" y="372"/>
      <point x="209" y="372" type="curve" smooth="yes"/>
    </contour>
    <contour>
      <point x="158" y="411"/>
      <point x="132" y="448"/>
      <point x="132" y="484" type="curve" smooth="yes"/>
      <point x="132" y="516"/>
      <point x="154" y="548"/>
      <point x="199" y="548" type="curve" smooth="yes"/>
      <point x="250" y="548"/>
      <point x="276" y="512"/>
      <point x="276" y="477" type="curve" smooth="yes"/>
      <point x="276" y="444"/>
      <point x="252" y="411"/>
      <point x="206" y="411" type="curve" smooth="yes"/>
    </contour>
  </outline>
</glyph>
<glyph name="uni0985" format="1">
  <advance width="732"/>
  <unicode hex="0985"/>
  <note>
	uni0985
  </note>
  <outline>
    <contour>
      <point x="427" y="107"/>
      <point x="498" y="182"/>
      <point x="498" y="284" type="curve" smooth="yes"/>
      <point x="498" y="384"/>
      <point x="424" y="472"/>
      <point x="326" y="472" type="curve" smooth="yes"/>
      <point x="266" y="472"/>
      <point x="223" y="440"/>
      <point x="223" y="392" type="curve" smooth="yes"/>
      <point x="223" y="352"/>
      <point x="253" y="317"/>
      <point x="297" y="317" type="curve" smooth="yes"/>
      <point x="339" y="317"/>
      <point x="367" y="349"/>
      <point x="367" y="387" type="curve" smooth="yes"/>
      <point x="367" y="415"/>
      <point x="353" y="436"/>
      <point x="329" y="447" type="curve"/>
      <point x="329" y="442" type="line"/>
      <point x="392" y="441"/>
      <point x="462" y="390"/>
      <point x="462" y="296" type="curve" smooth="yes"/>
      <point x="462" y="205"/>
      <point x="398" y="149"/>
      <point x="315" y="149" type="curve" smooth="yes"/>
      <point x="170" y="149"/>
      <point x="113" y="319"/>
      <point x="73" y="440" type="curve" smooth="yes"/>
      <point x="70" y="450"/>
      <point x="62" y="455"/>
      <point x="55" y="455" type="curve" smooth="yes"/>
      <point x="48" y="455"/>
      <point x="42" y="448"/>
      <point x="42" y="439" type="curve" smooth="yes"/>
      <point x="42" y="416"/>
      <point x="113" y="107"/>
      <point x="323" y="107" type="curve" smooth="yes"/>
    </contour>
    <contour>
      <point x="272" y="351"/>
      <point x="256" y="368"/>
      <point x="256" y="392" type="curve" smooth="yes"/>
      <point x="256" y="413"/>
      <point x="272" y="431"/>
      <point x="297" y="431" type="curve" smooth="yes"/>
      <point x="320" y="431"/>
      <point x="336" y="413"/>
      <point x="336" y="392" type="curve" smooth="yes"/>
      <point x="336" y="368"/>
      <point x="320" y="351"/>
      <point x="297" y="351" type="curve" smooth="yes"/>
    </contour>
    <contour>
      <point x="469" y="207" type="line"/>
      <point x="525" y="160"/>
      <point x="593" y="97"/>
      <point x="593" y="56" type="curve" smooth="yes"/>
      <point x="595" y="7"/>
      <point x="597" y="-12"/>
      <point x="614" y="-12" type="curve" smooth="yes"/>
      <point x="630" y="-12"/>
      <point x="632" y="5"/>
      <point x="632" y="32" type="curve" smooth="yes"/>
      <point x="632" y="265"/>
      <point x="633" y="483"/>
      <point x="641" y="573" type="curve"/>
      <point x="634" y="574" type="line"/>
      <point x="647" y="552"/>
      <point x="668" y="554"/>
      <point x="732" y="554" type="curve" smooth="yes"/>
      <point x="741" y="554"/>
      <point x="752" y="559"/>
      <point x="752" y="570" type="curve" smooth="yes"/>
      <point x="752" y="582"/>
      <point x="741" y="587"/>
      <point x="732" y="587" type="curve" smooth="yes"/>
      <point x="713" y="587"/>
      <point x="696" y="587"/>
      <point x="661" y="587" type="curve" smooth="yes"/>
      <point x="635" y="587"/>
      <point x="644" y="609"/>
      <point x="628" y="609" type="curve" smooth="yes"/>
      <point x="614" y="609"/>
      <point x="606" y="574"/>
      <point x="601" y="515" type="curve"/>
      <point x="608" y="537" type="line"/>
      <point x="592" y="575"/>
      <point x="561" y="587"/>
      <point x="504" y="587" type="curve" smooth="yes"/>
      <point x="0" y="587" type="line" smooth="yes"/>
      <point x="-7" y="587"/>
      <point x="-15" y="582"/>
      <point x="-15" y="571" type="curve" smooth="yes"/>
      <point x="-15" y="562"/>
      <point x="-9" y="554"/>
      <point x="0" y="554" type="curve" smooth="yes"/>
      <point x="521" y="554" type="line" smooth="yes"/>
      <point x="568" y="554"/>
      <point x="598" y="520"/>
      <point x="598" y="465" type="curve" smooth="yes"/>
      <point x="598" y="402"/>
      <point x="593" y="253"/>
      <point x="593" y="113" type="curve"/>
      <point x="599" y="119" type="line"/>
      <point x="573" y="161"/>
      <point x="532" y="204"/>
      <point x="485" y="251" type="curve"/>
    </contour>
  </outline>
</glyph>
<glyph name="uni0987" format="1">
  <advance width="488"/>
  <unicode hex="0987"/>
  <note>
	uni0987
  </note>
  <outline>
    <contour>
      <point x="447" y="-29"/>
      <point x="452" y="-19"/>
      <point x="452" y="-10" type="curve" smooth="yes"/>
      <point x="452" y="4"/>
      <point x="441" y="9"/>
      <point x="424" y="9" type="curve" smooth="yes"/>
      <point x="302" y="9"/>
      <point x="247" y="227"/>
      <point x="147" y="227" type="curve" smooth="yes"/>
      <point x="118" y="227"/>
      <point x="97" y="212"/>
      <point x="97" y="186" type="curve" smooth="yes"/>
      <point x="97" y="154"/>
      <point x="129" y="135"/>
      <point x="179" y="135" type="curve" smooth="yes"/>
      <point x="292" y="135"/>
      <point x="408" y="228"/>
      <point x="408" y="343" type="curve" smooth="yes"/>
      <point x="408" y="440"/>
      <point x="329" y="499"/>
      <point x="235" y="499" type="curve" smooth="yes"/>
      <point x="169" y="499"/>
      <point x="88" y="469"/>
      <point x="88" y="402" type="curve" smooth="yes"/>
      <point x="88" y="371"/>
      <point x="112" y="334"/>
      <point x="159" y="334" type="curve" smooth="yes"/>
      <point x="201" y="334"/>
      <point x="229" y="367"/>
      <point x="229" y="401" type="curve" smooth="yes"/>
      <point x="229" y="438"/>
      <point x="197" y="470"/>
      <point x="164" y="466" type="curve"/>
      <point x="165" y="451" type="line"/>
      <point x="189" y="464"/>
      <point x="219" y="468"/>
      <point x="238" y="468" type="curve" smooth="yes"/>
      <point x="298" y="468"/>
      <point x="366" y="422"/>
      <point x="366" y="340" type="curve" smooth="yes"/>
      <point x="366" y="239"/>
      <point x="265" y="170"/>
      <point x="164" y="170" type="curve" smooth="yes"/>
      <point x="146" y="170"/>
      <point x="134" y="178"/>
      <point x="134" y="185" type="curve" smooth="yes"/>
      <point x="134" y="189"/>
      <point x="139" y="192"/>
      <point x="149" y="192" type="curve" smooth="yes"/>
      <point x="217" y="192"/>
      <point x="283" y="-29"/>
      <point x="420" y="-29" type="curve" smooth="yes"/>
    </contour>
    <contour>
      <point x="139" y="363"/>
      <point x="118" y="378"/>
      <point x="118" y="403" type="curve" smooth="yes"/>
      <point x="118" y="426"/>
      <point x="136" y="443"/>
      <point x="159" y="443" type="curve" smooth="yes"/>
      <point x="180" y="443"/>
      <point x="198" y="426"/>
      <point x="198" y="404" type="curve" smooth="yes"/>
      <point x="198" y="378"/>
      <point x="180" y="363"/>
      <point x="159" y="363" type="curve" smooth="yes"/>
    </contour>
    <contour>
      <point x="488" y="554" type="line" smooth="yes"/>
      <point x="497" y="554"/>
      <point x="503" y="561"/>
      <point x="503" y="570" type="curve" smooth="yes"/>
      <point x="503" y="581"/>
      <point x="495" y="587"/>
      <point x="488" y="587" type="curve" smooth="yes"/>
      <point x="0" y="587" type="line" smooth="yes"/>
      <point x="-7" y="587"/>
      <point x="-16" y="581"/>
      <point x="-16" y="570" type="curve" smooth="yes"/>
      <point x="-16" y="561"/>
      <point x="-9" y="554"/>
      <point x="0" y="554" type="curve" smooth="yes"/>
    </contour>
    <contour>
      <point x="411" y="564" type="line"/>
      <point x="411" y="702"/>
      <point x="356" y="726"/>
      <point x="262" y="726" type="curve" smooth="yes"/>
      <point x="225" y="726"/>
      <point x="171" y="716"/>
      <point x="123" y="716" type="curve" smooth="yes"/>
      <point x="66" y="716"/>
      <point x="17" y="731"/>
      <point x="17" y="799" type="curve" smooth="yes"/>
      <point x="17" y="814"/>
      <point x="10" y="821"/>
      <point x="2" y="821" type="curve" smooth="yes"/>
      <point x="-5" y="821"/>
      <point x="-13" y="813"/>
      <point x="-13" y="799" type="curve" smooth="yes"/>
      <point x="-13" y="706"/>
      <point x="52" y="687"/>
      <point x="124" y="687" type="curve" smooth="yes"/>
      <point x="177" y="687"/>
      <point x="233" y="697"/>
      <point x="272" y="697" type="curve" smooth="yes"/>
      <point x="380" y="697"/>
      <point x="372" y="631"/>
      <point x="372" y="564" type="curve"/>
    </contour>
  </outline>
</glyph>
<glyph name="uni0989" format="1">
  <advance width="593"/>
  <unicode hex="0989"/>
  <note>
	uni0989
  </note>
  <outline>
    <contour>
      <point x="485" y="30"/>
      <point x="559" y="113"/>
      <point x="559" y="233" type="curve" smooth="yes"/>
      <point x="559" y="311"/>
      <point x="523" y="393"/>
      <point x="480" y="393" type="curve" smooth="yes"/>
      <point x="451" y="393"/>
      <point x="458" y="368"/>
      <point x="458" y="346" type="curve" smooth="yes"/>
      <point x="458" y="304"/>
      <point x="428" y="263"/>
      <point x="380" y="263" type="curve" smooth="yes"/>
      <point x="322" y="263"/>
      <point x="292" y="317"/>
      <point x="292" y="387" type="curve" smooth="yes"/>
      <point x="292" y="498"/>
      <point x="310" y="554"/>
      <point x="378" y="554" type="curve" smooth="yes"/>
      <point x="593" y="554" type="line" smooth="yes"/>
      <point x="602" y="554"/>
      <point x="611" y="560"/>
      <point x="611" y="571" type="curve" smooth="yes"/>
      <point x="611" y="580"/>
      <point x="601" y="587"/>
      <point x="593" y="587" type="curve" smooth="yes"/>
      <point x="367" y="587" type="line" smooth="yes"/>
      <point x="335" y="587"/>
      <point x="291" y="571"/>
      <point x="286" y="541" type="curve"/>
      <point x="295" y="543" type="line"/>
      <point x="283" y="573"/>
      <point x="241" y="587"/>
      <point x="193" y="587" type="curve" smooth="yes"/>
      <point x="0" y="587" type="line" smooth="yes"/>
      <point x="-7" y="587"/>
      <point x="-17" y="582"/>
      <point x="-17" y="571" type="curve" smooth="yes"/>
      <point x="-17" y="562"/>
      <point x="-9" y="554"/>
      <point x="0" y="554" type="curve" smooth="yes"/>
      <point x="206" y="554" type="line" smooth="yes"/>
      <point x="228" y="554"/>
      <point x="271" y="547"/>
      <point x="271" y="520" type="curve" smooth="yes"/>
      <point x="271" y="503"/>
      <point x="256" y="467"/>
      <point x="256" y="397" type="curve" smooth="yes"/>
      <point x="256" y="296"/>
      <point x="299" y="224"/>
      <point x="384" y="224" type="curve" smooth="yes"/>
      <point x="485" y="224"/>
      <point x="494" y="334"/>
      <point x="494" y="354" type="curve"/>
      <point x="484" y="354" type="line"/>
      <point x="502" y="339"/>
      <point x="523" y="285"/>
      <point x="523" y="232" type="curve" smooth="yes"/>
      <point x="523" y="145"/>
      <point x="458" y="72"/>
      <point x="363" y="72" type="curve" smooth="yes"/>
      <point x="218" y="72"/>
      <point x="95" y="263"/>
      <point x="80" y="427" type="curve" smooth="yes"/>
      <point x="78" y="448"/>
      <point x="68" y="459"/>
      <point x="60" y="459" type="curve" smooth="yes"/>
      <point x="51" y="459"/>
      <point x="43" y="448"/>
      <point x="45" y="426" type="curve" smooth="yes"/>
      <point x="62" y="241"/>
      <point x="196" y="30"/>
      <point x="363" y="30" type="curve" smooth="yes"/>
    </contour>
    <contour>
      <point x="523" y="564" type="line"/>
      <point x="523" y="702"/>
      <point x="468" y="733"/>
      <point x="347" y="733" type="curve" smooth="yes"/>
      <point x="216" y="733"/>
      <point x="23" y="655"/>
      <point x="23" y="795" type="curve" smooth="yes"/>
      <point x="23" y="810"/>
      <point x="16" y="817"/>
      <point x="8" y="817" type="curve" smooth="yes"/>
      <point x="1" y="817"/>
      <point x="-7" y="809"/>
      <point x="-7" y="795" type="curve" smooth="yes"/>
      <point x="-7" y="619"/>
      <point x="226" y="704"/>
      <point x="357" y="704" type="curve" smooth="yes"/>
      <point x="492" y="704"/>
      <point x="484" y="631"/>
      <point x="484" y="564" type="curve"/>
    </contour>
  </outline>
</glyph>
<glyph name="uni098B" format="1">
  <advance width="665"/>
  <unicode hex="098B"/>
  <note>
	uni098B
  </note>
  <outline>
    <contour>
      <point x="415" y="-12"/>
      <point x="416" y="0"/>
      <point x="416" y="129" type="curve" smooth="yes"/>
      <point x="416" y="154"/>
      <point x="416" y="184"/>
      <point x="416" y="220" type="curve"/>
      <point x="405" y="219" type="line"/>
      <point x="456" y="130"/>
      <point x="527" y="126"/>
      <point x="527" y="69" type="curve" smooth="yes"/>
      <point x="527" y="50"/>
      <point x="534" y="33"/>
      <point x="547" y="33" type="curve" smooth="yes"/>
      <point x="562" y="33"/>
      <point x="565" y="46"/>
      <point x="565" y="70" type="curve" smooth="yes"/>
      <point x="565" y="305"/>
      <point x="562" y="447"/>
      <point x="574" y="574" type="curve"/>
      <point x="567" y="574" type="line"/>
      <point x="580" y="552"/>
      <point x="601" y="554"/>
      <point x="665" y="554" type="curve" smooth="yes"/>
      <point x="674" y="554"/>
      <point x="685" y="559"/>
      <point x="685" y="570" type="curve" smooth="yes"/>
      <point x="685" y="582"/>
      <point x="674" y="587"/>
      <point x="665" y="587" type="curve" smooth="yes"/>
      <point x="646" y="587"/>
      <point x="613" y="587"/>
      <point x="601" y="587" type="curve" smooth="yes"/>
      <point x="563" y="587"/>
      <point x="579" y="609"/>
      <point x="561" y="609" type="curve" smooth="yes"/>
      <point x="526" y="609"/>
      <point x="526" y="419"/>
      <point x="526" y="115" type="curve"/>
      <point x="533" y="130" type="line"/>
      <point x="502" y="169"/>
      <point x="416" y="228"/>
      <point x="416" y="284" type="curve" smooth="yes"/>
      <point x="416" y="434"/>
      <point x="420" y="519"/>
      <point x="426" y="583" type="curve" smooth="yes"/>
      <point x="427" y="597"/>
      <point x="425" y="609"/>
      <point x="413" y="609" type="curve" smooth="yes"/>
      <point x="398" y="609"/>
      <point x="390" y="570"/>
      <point x="385" y="505" type="curve"/>
      <point x="393" y="517" type="line"/>
      <point x="374" y="563"/>
      <point x="316" y="590"/>
      <point x="270" y="590" type="curve" smooth="yes"/>
      <point x="215" y="590"/>
      <point x="238" y="473"/>
      <point x="137" y="473" type="curve" smooth="yes"/>
      <point x="124" y="473"/>
      <point x="110" y="475"/>
      <point x="100" y="480" type="curve"/>
      <point x="104" y="466" type="line"/>
      <point x="124" y="466"/>
      <point x="154" y="489"/>
      <point x="154" y="527" type="curve" smooth="yes"/>
      <point x="154" y="566"/>
      <point x="124" y="589"/>
      <point x="89" y="589" type="curve" smooth="yes"/>
      <point x="58" y="589"/>
      <point x="26" y="567"/>
      <point x="26" y="522" type="curve" smooth="yes"/>
      <point x="26" y="481"/>
      <point x="71" y="438"/>
      <point x="133" y="438" type="curve" smooth="yes"/>
      <point x="265" y="438"/>
      <point x="243" y="560"/>
      <point x="283" y="560" type="curve" smooth="yes"/>
      <point x="311" y="560"/>
      <point x="372" y="528"/>
      <point x="372" y="490" type="curve" smooth="yes"/>
      <point x="372" y="451"/>
      <point x="291" y="407"/>
      <point x="63" y="324" type="curve" smooth="yes"/>
      <point x="50" y="319"/>
      <point x="45" y="309"/>
      <point x="45" y="298" type="curve" smooth="yes"/>
      <point x="45" y="281"/>
      <point x="58" y="262"/>
      <point x="80" y="260" type="curve" smooth="yes"/>
      <point x="131" y="254"/>
      <point x="378" y="189"/>
      <point x="378" y="43" type="curve" smooth="yes"/>
      <point x="378" y="16"/>
      <point x="381" y="-12"/>
      <point x="398" y="-12" type="curve" smooth="yes"/>
    </contour>
    <contour>
      <point x="332" y="216"/>
      <point x="222" y="270"/>
      <point x="77" y="298" type="curve"/>
      <point x="73" y="287" type="line"/>
      <point x="252" y="360"/>
      <point x="351" y="396"/>
      <point x="385" y="443" type="curve"/>
      <point x="381" y="448" type="line"/>
      <point x="378" y="365"/>
      <point x="378" y="254"/>
      <point x="378" y="129" type="curve"/>
      <point x="384" y="136" type="line"/>
    </contour>
    <contour>
      <point x="69" y="489"/>
      <point x="55" y="506"/>
      <point x="55" y="524" type="curve" smooth="yes"/>
      <point x="55" y="542"/>
      <point x="70" y="559"/>
      <point x="91" y="559" type="curve" smooth="yes"/>
      <point x="113" y="559"/>
      <point x="125" y="542"/>
      <point x="125" y="524" type="curve" smooth="yes"/>
      <point x="125" y="506"/>
      <point x="113" y="489"/>
      <point x="91" y="489" type="curve" smooth="yes"/>
    </contour>
  </outline>
</glyph>
<glyph name="uni098C" format="1">
  <advance width="562"/>
  <unicode hex="098C"/>
  <note>
	uni098C
  </note>
  <outline>
    <contour>
      <point x="434" y="-12"/>
      <point x="523" y="115"/>
      <point x="523" y="238" type="curve" smooth="yes"/>
      <point x="523" y="540"/>
      <point x="94" y="493"/>
      <point x="94" y="662" type="curve" smooth="yes"/>
      <point x="94" y="683"/>
      <point x="87" y="693"/>
      <point x="76" y="693" type="curve" smooth="yes"/>
      <point x="67" y="693"/>
      <point x="59" y="687"/>
      <point x="59" y="671" type="curve" smooth="yes"/>
      <point x="59" y="448"/>
      <point x="485" y="514"/>
      <point x="485" y="245" type="curve" smooth="yes"/>
      <point x="485" y="133"/>
      <point x="407" y="5"/>
      <point x="298" y="21" type="curve"/>
      <point x="308" y="3" type="line"/>
      <point x="345" y="31"/>
      <point x="383" y="94"/>
      <point x="383" y="152" type="curve" smooth="yes"/>
      <point x="383" y="252"/>
      <point x="311" y="318"/>
      <point x="218" y="318" type="curve" smooth="yes"/>
      <point x="125" y="318"/>
      <point x="49" y="247"/>
      <point x="49" y="162" type="curve" smooth="yes"/>
      <point x="49" y="79"/>
      <point x="111" y="9"/>
      <point x="183" y="9" type="curve" smooth="yes"/>
      <point x="233" y="9"/>
      <point x="257" y="42"/>
      <point x="257" y="73" type="curve" smooth="yes"/>
      <point x="257" y="108"/>
      <point x="237" y="141"/>
      <point x="191" y="141" type="curve" smooth="yes"/>
      <point x="151" y="141"/>
      <point x="124" y="111"/>
      <point x="124" y="79" type="curve" smooth="yes"/>
      <point x="124" y="55"/>
      <point x="140" y="36"/>
      <point x="156" y="26" type="curve"/>
      <point x="169" y="41" type="line"/>
      <point x="130" y="51"/>
      <point x="85" y="87"/>
      <point x="85" y="150" type="curve" smooth="yes"/>
      <point x="85" y="226"/>
      <point x="149" y="276"/>
      <point x="224" y="276" type="curve" smooth="yes"/>
      <point x="292" y="276"/>
      <point x="343" y="223"/>
      <point x="343" y="153" type="curve" smooth="yes"/>
      <point x="343" y="64"/>
      <point x="285" y="35"/>
      <point x="285" y="15" type="curve" smooth="yes"/>
      <point x="285" y="0"/>
      <point x="299" y="-12"/>
      <point x="327" y="-12" type="curve" smooth="yes"/>
    </contour>
    <contour>
      <point x="168" y="41"/>
      <point x="156" y="57"/>
      <point x="156" y="74" type="curve" smooth="yes"/>
      <point x="156" y="92"/>
      <point x="168" y="109"/>
      <point x="189" y="109" type="curve" smooth="yes"/>
      <point x="212" y="109"/>
      <point x="226" y="92"/>
      <point x="226" y="74" type="curve" smooth="yes"/>
      <point x="226" y="57"/>
      <point x="213" y="39"/>
      <point x="189" y="39" type="curve"/>
    </contour>
  </outline>
</glyph>
<glyph name="uni098F" format="1">
  <advance width="598"/>
  <unicode hex="098F"/>
  <note>
	uni098F
  </note>
  <outline>
    <contour>
      <point x="521" y="-12"/>
      <point x="520" y="9"/>
      <point x="520" y="42" type="curve" smooth="yes"/>
      <point x="523" y="468" type="line" smooth="yes"/>
      <point x="524" y="550"/>
      <point x="512" y="595"/>
      <point x="455" y="595" type="curve" smooth="yes"/>
      <point x="352" y="595"/>
      <point x="190" y="443"/>
      <point x="190" y="326" type="curve" smooth="yes"/>
      <point x="190" y="274"/>
      <point x="223" y="238"/>
      <point x="269" y="238" type="curve" smooth="yes"/>
      <point x="308" y="238"/>
      <point x="344" y="260"/>
      <point x="344" y="310" type="curve" smooth="yes"/>
      <point x="344" y="346"/>
      <point x="320" y="382"/>
      <point x="270" y="382" type="curve" smooth="yes"/>
      <point x="251" y="382"/>
      <point x="237" y="375"/>
      <point x="225" y="361" type="curve"/>
      <point x="236" y="353" type="line"/>
      <point x="260" y="454"/>
      <point x="388" y="561"/>
      <point x="451" y="561" type="curve" smooth="yes"/>
      <point x="482" y="561"/>
      <point x="484" y="534"/>
      <point x="484" y="468" type="curve" smooth="yes"/>
      <point x="484" y="86" type="line"/>
      <point x="498" y="88" type="line"/>
      <point x="477" y="111"/>
      <point x="445" y="137"/>
      <point x="381" y="137" type="curve" smooth="yes"/>
      <point x="313" y="137"/>
      <point x="277" y="107"/>
      <point x="215" y="107" type="curve" smooth="yes"/>
      <point x="138" y="107"/>
      <point x="70" y="152"/>
      <point x="70" y="241" type="curve" smooth="yes"/>
      <point x="70" y="305"/>
      <point x="105" y="341"/>
      <point x="105" y="364" type="curve" smooth="yes"/>
      <point x="105" y="375"/>
      <point x="98" y="380"/>
      <point x="90" y="380" type="curve" smooth="yes"/>
      <point x="60" y="380"/>
      <point x="35" y="300"/>
      <point x="35" y="243" type="curve" smooth="yes"/>
      <point x="35" y="139"/>
      <point x="116" y="65"/>
      <point x="214" y="65" type="curve" smooth="yes"/>
      <point x="280" y="65"/>
      <point x="320" y="99"/>
      <point x="382" y="99" type="curve" smooth="yes"/>
      <point x="431" y="99"/>
      <point x="482" y="78"/>
      <point x="485" y="27" type="curve" smooth="yes"/>
      <point x="486" y="9"/>
      <point x="488" y="-12"/>
      <point x="504" y="-12" type="curve" smooth="yes"/>
    </contour>
    <contour>
      <point x="249" y="272"/>
      <point x="230" y="287"/>
      <point x="230" y="312" type="curve" smooth="yes"/>
      <point x="230" y="335"/>
      <point x="249" y="352"/>
      <point x="270" y="352" type="curve" smooth="yes"/>
      <point x="293" y="352"/>
      <point x="310" y="335"/>
      <point x="310" y="311" type="curve" smooth="yes"/>
      <point x="310" y="287"/>
      <point x="293" y="272"/>
      <point x="270" y="272" type="curve" smooth="yes"/>
    </contour>
  </outline>
</glyph>
<glyph name="uni0990" format="1">
  <advance width="700"/>
  <unicode hex="0990"/>
  <note>
	uni0990
  </note>
  <outline>
    <contour>
      <point x="521" y="-12"/>
      <point x="520" y="9"/>
      <point x="520" y="42" type="curve" smooth="yes"/>
      <point x="523" y="468" type="line" smooth="yes"/>
      <point x="524" y="550"/>
      <point x="512" y="595"/>
      <point x="455" y="595" type="curve" smooth="yes"/>
      <point x="352" y="595"/>
      <point x="190" y="443"/>
      <point x="190" y="326" type="curve" smooth="yes"/>
      <point x="190" y="274"/>
      <point x="223" y="238"/>
      <point x="269" y="238" type="curve" smooth="yes"/>
      <point x="308" y="238"/>
      <point x="344" y="260"/>
      <point x="344" y="310" type="curve" smooth="yes"/>
      <point x="344" y="346"/>
      <point x="320" y="382"/>
      <point x="270" y="382" type="curve" smooth="yes"/>
      <point x="251" y="382"/>
      <point x="237" y="375"/>
      <point x="225" y="361" type="curve"/>
      <point x="236" y="353" type="line"/>
      <point x="260" y="454"/>
      <point x="388" y="561"/>
      <point x="451" y="561" type="curve" smooth="yes"/>
      <point x="482" y="561"/>
      <point x="484" y="534"/>
      <point x="484" y="468" type="curve" smooth="yes"/>
      <point x="484" y="86" type="line"/>
      <point x="498" y="88" type="line"/>
      <point x="477" y="111"/>
      <point x="445" y="137"/>
      <point x="381" y="137" type="curve" smooth="yes"/>
      <point x="313" y="137"/>
      <point x="277" y="107"/>
      <point x="215" y="107" type="curve" smooth="yes"/>
      <point x="138" y="107"/>
      <point x="70" y="152"/>
      <point x="70" y="241" type="curve" smooth="yes"/>
      <point x="70" y="305"/>
      <point x="105" y="341"/>
      <point x="105" y="364" type="curve" smooth="yes"/>
      <point x="105" y="375"/>
      <point x="98" y="380"/>
      <point x="90" y="380" type="curve" smooth="yes"/>
      <point x="60" y="380"/>
      <point x="35" y="300"/>
      <point x="35" y="243" type="curve" smooth="yes"/>
      <point x="35" y="139"/>
      <point x="116" y="65"/>
      <point x="214" y="65" type="curve" smooth="yes"/>
      <point x="280" y="65"/>
      <point x="320" y="99"/>
      <point x="382" y="99" type="curve" smooth="yes"/>
      <point x="431" y="99"/>
      <point x="482" y="78"/>
      <point x="485" y="27" type="curve" smooth="yes"/>
      <point x="486" y="9"/>
      <point x="488" y="-12"/>
      <point x="504" y="-12" type="curve" smooth="yes"/>
    </contour>
    <contour>
      <point x="249" y="272"/>
      <point x="230" y="287"/>
      <point x="230" y="312" type="curve" smooth="yes"/>
      <point x="230" y="335"/>
      <point x="249" y="352"/>
      <point x="270" y="352" type="curve" smooth="yes"/>
      <point x="293" y="352"/>
      <point x="310" y="335"/>
      <point x="310" y="311" type="curve" smooth="yes"/>
      <point x="310" y="287"/>
      <point x="293" y="272"/>
      <point x="270" y="272" type="curve" smooth="yes"/>
    </contour>
    <contour>
      <point x="596" y="316"/>
      <point x="666" y="392"/>
      <point x="666" y="502" type="curve" smooth="yes"/>
      <point x="666" y="634"/>
      <point x="565" y="677"/>
      <point x="408" y="739" type="curve" smooth="yes"/>
      <point x="349" y="763"/>
      <point x="299" y="793"/>
      <point x="297" y="870" type="curve" smooth="yes"/>
      <point x="297" y="881"/>
      <point x="296" y="893"/>
      <point x="282" y="893" type="curve" smooth="yes"/>
      <point x="264" y="893"/>
      <point x="261" y="876"/>
      <point x="261" y="858" type="curve" smooth="yes"/>
      <point x="261" y="783"/>
      <point x="312" y="747"/>
      <point x="406" y="705" type="curve" smooth="yes"/>
      <point x="519" y="655"/>
      <point x="635" y="624"/>
      <point x="635" y="503" type="curve" smooth="yes"/>
      <point x="635" y="425"/>
      <point x="587" y="363"/>
      <point x="495" y="330" type="curve"/>
      <point x="508" y="291" type="line"/>
    </contour>
  </outline>
</glyph>
<glyph name="uni0993" format="1">
  <advance width="577"/>
  <unicode hex="0993"/>
  <note>
	uni0993
  </note>
  <outline>
    <contour>
      <point x="427" y="52"/>
      <point x="529" y="95"/>
      <point x="529" y="219" type="curve" smooth="yes"/>
      <point x="529" y="315"/>
      <point x="463" y="390"/>
      <point x="382" y="390" type="curve" smooth="yes"/>
      <point x="338" y="390"/>
      <point x="312" y="362"/>
      <point x="312" y="327" type="curve" smooth="yes"/>
      <point x="312" y="289"/>
      <point x="342" y="266"/>
      <point x="378" y="266" type="curve" smooth="yes"/>
      <point x="449" y="266"/>
      <point x="503" y="358"/>
      <point x="503" y="441" type="curve" smooth="yes"/>
      <point x="503" y="535"/>
      <point x="434" y="597"/>
      <point x="343" y="597" type="curve" smooth="yes"/>
      <point x="232" y="597"/>
      <point x="142" y="506"/>
      <point x="142" y="422" type="curve" smooth="yes"/>
      <point x="142" y="374"/>
      <point x="177" y="343"/>
      <point x="219" y="343" type="curve" smooth="yes"/>
      <point x="260" y="343"/>
      <point x="290" y="372"/>
      <point x="290" y="415" type="curve" smooth="yes"/>
      <point x="290" y="468"/>
      <point x="232" y="504"/>
      <point x="184" y="475" type="curve"/>
      <point x="193" y="468" type="line"/>
      <point x="218" y="518"/>
      <point x="281" y="562"/>
      <point x="347" y="562" type="curve" smooth="yes"/>
      <point x="407" y="562"/>
      <point x="466" y="527"/>
      <point x="466" y="444" type="curve" smooth="yes"/>
      <point x="466" y="383"/>
      <point x="430" y="301"/>
      <point x="377" y="301" type="curve" smooth="yes"/>
      <point x="357" y="301"/>
      <point x="346" y="314"/>
      <point x="346" y="327" type="curve" smooth="yes"/>
      <point x="346" y="342"/>
      <point x="359" y="357"/>
      <point x="386" y="357" type="curve" smooth="yes"/>
      <point x="438" y="357"/>
      <point x="493" y="301"/>
      <point x="493" y="230" type="curve" smooth="yes"/>
      <point x="493" y="140"/>
      <point x="427" y="93"/>
      <point x="347" y="93" type="curve" smooth="yes"/>
      <point x="157" y="93"/>
      <point x="65" y="417"/>
      <point x="54" y="460" type="curve" smooth="yes"/>
      <point x="49" y="481"/>
      <point x="43" y="485"/>
      <point x="36" y="485" type="curve" smooth="yes"/>
      <point x="27" y="485"/>
      <point x="20" y="478"/>
      <point x="20" y="466" type="curve" smooth="yes"/>
      <point x="20" y="429"/>
      <point x="127" y="52"/>
      <point x="351" y="52" type="curve" smooth="yes"/>
    </contour>
    <contour>
      <point x="200" y="376"/>
      <point x="178" y="391"/>
      <point x="178" y="416" type="curve" smooth="yes"/>
      <point x="178" y="442"/>
      <point x="200" y="456"/>
      <point x="218" y="456" type="curve" smooth="yes"/>
      <point x="238" y="456"/>
      <point x="257" y="442"/>
      <point x="257" y="416" type="curve" smooth="yes"/>
      <point x="257" y="391"/>
      <point x="238" y="376"/>
      <point x="218" y="376" type="curve" smooth="yes"/>
    </contour>
  </outline>
</glyph>
<glyph name="uni0994" format="1">
  <advance width="660"/>
  <unicode hex="0994"/>
  <note>
	uni0994
  </note>
  <outline>
    <contour>
      <point x="427" y="52"/>
      <point x="529" y="95"/>
      <point x="529" y="219" type="curve" smooth="yes"/>
      <point x="529" y="315"/>
      <point x="463" y="390"/>
      <point x="382" y="390" type="curve" smooth="yes"/>
      <point x="338" y="390"/>
      <point x="312" y="362"/>
      <point x="312" y="327" type="curve" smooth="yes"/>
      <point x="312" y="289"/>
      <point x="342" y="266"/>
      <point x="378" y="266" type="curve" smooth="yes"/>
      <point x="449" y="266"/>
      <point x="503" y="358"/>
      <point x="503" y="441" type="curve" smooth="yes"/>
      <point x="503" y="535"/>
      <point x="434" y="597"/>
      <point x="343" y="597" type="curve" smooth="yes"/>
      <point x="232" y="597"/>
      <point x="142" y="506"/>
      <point x="142" y="422" type="curve" smooth="yes"/>
      <point x="142" y="374"/>
      <point x="177" y="343"/>
      <point x="219" y="343" type="curve" smooth="yes"/>
      <point x="260" y="343"/>
      <point x="290" y="372"/>
      <point x="290" y="415" type="curve" smooth="yes"/>
      <point x="290" y="468"/>
      <point x="232" y="504"/>
      <point x="184" y="475" type="curve"/>
      <point x="193" y="468" type="line"/>
      <point x="218" y="518"/>
      <point x="281" y="562"/>
      <point x="347" y="562" type="curve" smooth="yes"/>
      <point x="407" y="562"/>
      <point x="466" y="527"/>
      <point x="466" y="444" type="curve" smooth="yes"/>
      <point x="466" y="383"/>
      <point x="430" y="301"/>
      <point x="377" y="301" type="curve" smooth="yes"/>
      <point x="357" y="301"/>
      <point x="346" y="314"/>
      <point x="346" y="327" type="curve" smooth="yes"/>
      <point x="346" y="342"/>
      <point x="359" y="357"/>
      <point x="386" y="357" type="curve" smooth="yes"/>
      <point x="438" y="357"/>
      <point x="493" y="301"/>
      <point x="493" y="230" type="curve" smooth="yes"/>
      <point x="493" y="140"/>
      <point x="427" y="93"/>
      <point x="347" y="93" type="curve" smooth="yes"/>
      <point x="157" y="93"/>
      <point x="65" y="417"/>
      <point x="54" y="460" type="curve" smooth="yes"/>
      <point x="49" y="481"/>
      <point x="43" y="485"/>
      <point x="36" y="485" type="curve" smooth="yes"/>
      <point x="27" y="485"/>
      <point x="20" y="478"/>
      <point x="20" y="466" type="curve" smooth="yes"/>
      <point x="20" y="429"/>
      <point x="127" y="52"/>
      <point x="351" y="52" type="curve" smooth="yes"/>
    </contour>
    <contour>
      <point x="200" y="376"/>
      <point x="178" y="391"/>
      <point x="178" y="416" type="curve" smooth="yes"/>
      <point x="178" y="442"/>
      <point x="200" y="456"/>
      <point x="218" y="456" type="curve" smooth="yes"/>
      <point x="238" y="456"/>
      <point x="257" y="442"/>
      <point x="257" y="416" type="curve" smooth="yes"/>
      <point x="257" y="391"/>
      <point x="238" y="376"/>
      <point x="218" y="376" type="curve" smooth="yes"/>
    </contour>
    <contour>
      <point x="552" y="311"/>
      <point x="634" y="377"/>
      <point x="634" y="505" type="curve" smooth="yes"/>
      <point x="634" y="634"/>
      <point x="521" y="682"/>
      <point x="373" y="739" type="curve" smooth="yes"/>
      <point x="305" y="765"/>
      <point x="265" y="799"/>
      <point x="262" y="870" type="curve" smooth="yes"/>
      <point x="262" y="881"/>
      <point x="261" y="893"/>
      <point x="247" y="893" type="curve" smooth="yes"/>
      <point x="229" y="893"/>
      <point x="226" y="876"/>
      <point x="226" y="858" type="curve" smooth="yes"/>
      <point x="226" y="784"/>
      <point x="277" y="746"/>
      <point x="371" y="705" type="curve" smooth="yes"/>
      <point x="489" y="653"/>
      <point x="603" y="623"/>
      <point x="603" y="502" type="curve" smooth="yes"/>
      <point x="603" y="424"/>
      <point x="549" y="347"/>
      <point x="471" y="347" type="curve"/>
      <point x="471" y="311" type="line"/>
    </contour>
  </outline>
</glyph>
<glyph name="uni0995" format="1">
  <advance width="660"/>
  <unicode hex="0995"/>
  <note>
	uni0995
  </note>
  <outline>
    <contour>
      <point x="338" y="-12" type="curve" smooth="yes"/>
      <point x="356" y="-12"/>
      <point x="356" y="12"/>
      <point x="356" y="71" type="curve" smooth="yes"/>
      <point x="356" y="258"/>
      <point x="356" y="374"/>
      <point x="358" y="455" type="curve"/>
      <point x="352" y="451" type="line"/>
      <point x="381" y="387"/>
      <point x="498" y="394"/>
      <point x="547" y="360" type="curve" smooth="yes"/>
      <point x="591" y="329"/>
      <point x="609" y="268"/>
      <point x="583" y="229" type="curve"/>
      <point x="592" y="228" type="line"/>
      <point x="592" y="265"/>
      <point x="568" y="294"/>
      <point x="529" y="294" type="curve" smooth="yes"/>
      <point x="492" y="294"/>
      <point x="466" y="268"/>
      <point x="466" y="234" type="curve" smooth="yes"/>
      <point x="466" y="199"/>
      <point x="494" y="169"/>
      <point x="533" y="169" type="curve" smooth="yes"/>
      <point x="591" y="169"/>
      <point x="625" y="223"/>
      <point x="625" y="279" type="curve" smooth="yes"/>
      <point x="625" y="320"/>
      <point x="606" y="363"/>
      <point x="565" y="390" type="curve" smooth="yes"/>
      <point x="509" y="427"/>
      <point x="426" y="420"/>
      <point x="389" y="454" type="curve" smooth="yes"/>
      <point x="355" y="486"/>
      <point x="365" y="511"/>
      <point x="363" y="583" type="curve"/>
      <point x="355" y="569" type="line"/>
      <point x="364" y="559"/>
      <point x="383" y="554"/>
      <point x="403" y="554" type="curve" smooth="yes"/>
      <point x="660" y="554" type="line" smooth="yes"/>
      <point x="667" y="554"/>
      <point x="675" y="559"/>
      <point x="675" y="570" type="curve" smooth="yes"/>
      <point x="675" y="579"/>
      <point x="669" y="587"/>
      <point x="660" y="587" type="curve" smooth="yes"/>
      <point x="389" y="587" type="line" smooth="yes"/>
      <point x="355" y="587"/>
      <point x="370" y="609"/>
      <point x="352" y="609" type="curve" smooth="yes"/>
      <point x="340" y="609"/>
      <point x="332" y="581"/>
      <point x="327" y="534" type="curve"/>
      <point x="336" y="549" type="line"/>
      <point x="320" y="574"/>
      <point x="284" y="587"/>
      <point x="236" y="587" type="curve" smooth="yes"/>
      <point x="0" y="587" type="line" smooth="yes"/>
      <point x="-7" y="587"/>
      <point x="-15" y="582"/>
      <point x="-15" y="571" type="curve" smooth="yes"/>
      <point x="-15" y="562"/>
      <point x="-9" y="554"/>
      <point x="0" y="554" type="curve" smooth="yes"/>
      <point x="242" y="554" type="line" smooth="yes"/>
      <point x="288" y="554"/>
      <point x="313" y="539"/>
      <point x="313" y="520" type="curve" smooth="yes"/>
      <point x="313" y="490"/>
      <point x="224" y="441"/>
      <point x="29" y="344" type="curve" smooth="yes"/>
      <point x="10" y="335"/>
      <point x="1" y="320"/>
      <point x="1" y="306" type="curve" smooth="yes"/>
      <point x="1" y="291"/>
      <point x="12" y="277"/>
      <point x="31" y="272" type="curve" smooth="yes"/>
      <point x="98" y="255"/>
      <point x="317" y="154"/>
      <point x="317" y="52" type="curve" smooth="yes"/>
      <point x="317" y="9"/>
      <point x="321" y="-12"/>
    </contour>
    <contour>
      <point x="272" y="206"/>
      <point x="164" y="280"/>
      <point x="26" y="313" type="curve"/>
      <point x="24" y="301" type="line"/>
      <point x="172" y="380"/>
      <point x="286" y="424"/>
      <point x="327" y="477" type="curve"/>
      <point x="322" y="480" type="line"/>
      <point x="318" y="393"/>
      <point x="317" y="266"/>
      <point x="317" y="118" type="curve"/>
      <point x="323" y="125" type="line"/>
    </contour>
    <contour>
      <point x="511" y="197"/>
      <point x="497" y="211"/>
      <point x="497" y="232" type="curve" smooth="yes"/>
      <point x="497" y="250"/>
      <point x="510" y="266"/>
      <point x="531" y="266" type="curve" smooth="yes"/>
      <point x="552" y="266"/>
      <point x="567" y="252"/>
      <point x="567" y="231" type="curve" smooth="yes"/>
      <point x="567" y="206"/>
      <point x="548" y="196"/>
      <point x="532" y="196" type="curve"/>
    </contour>
  </outline>
</glyph>
<glyph name="uni099A" format="1">
  <advance width="465"/>
  <unicode hex="099A"/>
  <note>
	uni099A
  </note>
  <outline>
    <contour>
      <point x="287" y="-7"/>
      <point x="432" y="184"/>
      <point x="432" y="290" type="curve" smooth="yes"/>
      <point x="432" y="336"/>
      <point x="404" y="360"/>
      <point x="341" y="373" type="curve" smooth="yes"/>
      <point x="210" y="400"/>
      <point x="138" y="416"/>
      <point x="138" y="511" type="curve" smooth="yes"/>
      <point x="138" y="551"/>
      <point x="151" y="554"/>
      <point x="179" y="554" type="curve" smooth="yes"/>
      <point x="465" y="554" type="line" smooth="yes"/>
      <point x="474" y="554"/>
      <point x="481" y="561"/>
      <point x="481" y="570" type="curve" smooth="yes"/>
      <point x="481" y="580"/>
      <point x="473" y="587"/>
      <point x="465" y="587" type="curve" smooth="yes"/>
      <point x="166" y="587" type="line" smooth="yes"/>
      <point x="125" y="587"/>
      <point x="98" y="578"/>
      <point x="98" y="533" type="curve"/>
      <point x="108" y="533" type="line"/>
      <point x="108" y="562"/>
      <point x="67" y="587"/>
      <point x="30" y="587" type="curve" smooth="yes"/>
      <point x="0" y="587" type="line" smooth="yes"/>
      <point x="-9" y="587"/>
      <point x="-21" y="582"/>
      <point x="-21" y="571" type="curve" smooth="yes"/>
      <point x="-21" y="559"/>
      <point x="-9" y="554"/>
      <point x="0" y="554" type="curve" smooth="yes"/>
      <point x="32" y="554" type="line" smooth="yes"/>
      <point x="110" y="554"/>
      <point x="102" y="449"/>
      <point x="102" y="406" type="curve" smooth="yes"/>
      <point x="100" y="127" type="line" smooth="yes"/>
      <point x="99" y="34"/>
      <point x="125" y="-7"/>
      <point x="176" y="-7" type="curve" smooth="yes"/>
    </contour>
    <contour>
      <point x="136" y="28"/>
      <point x="139" y="97"/>
      <point x="139" y="127" type="curve" smooth="yes"/>
      <point x="137" y="435" type="line"/>
      <point x="119" y="444" type="line"/>
      <point x="119" y="387"/>
      <point x="219" y="356"/>
      <point x="329" y="333" type="curve" smooth="yes"/>
      <point x="363" y="326"/>
      <point x="392" y="319"/>
      <point x="392" y="282" type="curve" smooth="yes"/>
      <point x="392" y="201"/>
      <point x="258" y="28"/>
      <point x="183" y="28" type="curve" smooth="yes"/>
    </contour>
  </outline>
</glyph>
<glyph name="uni099C" format="1">
  <advance width="645"/>
  <unicode hex="099C"/>
  <note>
	uni099C
  </note>
  <outline>
    <contour>
      <point x="572" y="30"/>
      <point x="574" y="51"/>
      <point x="574" y="72" type="curve" smooth="yes"/>
      <point x="574" y="182"/>
      <point x="562" y="216"/>
      <point x="562" y="279" type="curve" smooth="yes"/>
      <point x="562" y="366"/>
      <point x="618" y="424"/>
      <point x="618" y="439" type="curve" smooth="yes"/>
      <point x="618" y="454"/>
      <point x="604" y="467"/>
      <point x="590" y="467" type="curve" smooth="yes"/>
      <point x="565" y="467"/>
      <point x="553" y="418"/>
      <point x="457" y="418" type="curve" smooth="yes"/>
      <point x="386" y="418"/>
      <point x="343" y="495"/>
      <point x="342" y="567" type="curve"/>
      <point x="334" y="554" type="line"/>
      <point x="402" y="554"/>
      <point x="602" y="554"/>
      <point x="645" y="554" type="curve" smooth="yes"/>
      <point x="654" y="554"/>
      <point x="661" y="561"/>
      <point x="661" y="571" type="curve" smooth="yes"/>
      <point x="661" y="580"/>
      <point x="653" y="587"/>
      <point x="645" y="587" type="curve" smooth="yes"/>
      <point x="338" y="587" type="line" smooth="yes"/>
      <point x="307" y="587"/>
      <point x="268" y="562"/>
      <point x="237" y="526" type="curve"/>
      <point x="250" y="525" type="line"/>
      <point x="243" y="571"/>
      <point x="202" y="587"/>
      <point x="144" y="587" type="curve" smooth="yes"/>
      <point x="0" y="587" type="line" smooth="yes"/>
      <point x="-8" y="587"/>
      <point x="-16" y="581"/>
      <point x="-16" y="570" type="curve" smooth="yes"/>
      <point x="-16" y="561"/>
      <point x="-8" y="554"/>
      <point x="0" y="554" type="curve" smooth="yes"/>
      <point x="157" y="554" type="line" smooth="yes"/>
      <point x="184" y="554"/>
      <point x="223" y="542"/>
      <point x="223" y="517" type="curve" smooth="yes"/>
      <point x="223" y="500"/>
      <point x="176" y="447"/>
      <point x="176" y="371" type="curve" smooth="yes"/>
      <point x="176" y="307"/>
      <point x="214" y="228"/>
      <point x="296" y="228" type="curve" smooth="yes"/>
      <point x="354" y="228"/>
      <point x="400" y="266"/>
      <point x="413" y="307" type="curve"/>
      <point x="400" y="302" type="line"/>
      <point x="417" y="280"/>
      <point x="437" y="260"/>
      <point x="437" y="211" type="curve" smooth="yes"/>
      <point x="437" y="143"/>
      <point x="386" y="101"/>
      <point x="313" y="101" type="curve" smooth="yes"/>
      <point x="197" y="101"/>
      <point x="70" y="252"/>
      <point x="60" y="446" type="curve" smooth="yes"/>
      <point x="59" y="458"/>
      <point x="52" y="466"/>
      <point x="42" y="466" type="curve" smooth="yes"/>
      <point x="33" y="466"/>
      <point x="27" y="458"/>
      <point x="27" y="448" type="curve" smooth="yes"/>
      <point x="27" y="270"/>
      <point x="155" y="57"/>
      <point x="327" y="57" type="curve" smooth="yes"/>
      <point x="420" y="57"/>
      <point x="477" y="128"/>
      <point x="477" y="196" type="curve" smooth="yes"/>
      <point x="477" y="290"/>
      <point x="412" y="346"/>
      <point x="393" y="346" type="curve" smooth="yes"/>
      <point x="367" y="346"/>
      <point x="377" y="268"/>
      <point x="287" y="268" type="curve" smooth="yes"/>
      <point x="243" y="268"/>
      <point x="212" y="300"/>
      <point x="212" y="376" type="curve" smooth="yes"/>
      <point x="212" y="445"/>
      <point x="272" y="520"/>
      <point x="320" y="545" type="curve"/>
      <point x="310" y="552" type="line"/>
      <point x="312" y="472"/>
      <point x="366" y="379"/>
      <point x="464" y="379" type="curve" smooth="yes"/>
      <point x="515" y="379"/>
      <point x="545" y="398"/>
      <point x="560" y="406" type="curve"/>
      <point x="561" y="417" type="line"/>
      <point x="492" y="299"/>
      <point x="535" y="216"/>
      <point x="535" y="72" type="curve" smooth="yes"/>
      <point x="535" y="51"/>
      <point x="540" y="30"/>
      <point x="555" y="30" type="curve" smooth="yes"/>
    </contour>
  </outline>
</glyph>
<glyph name="uni099F" format="1">
  <advance width="488"/>
  <unicode hex="099F"/>
  <note>
	uni099F
  </note>
  <outline>
    <contour>
      <point x="303" y="-7"/>
      <point x="436" y="193"/>
      <point x="436" y="307" type="curve" smooth="yes"/>
      <point x="436" y="365"/>
      <point x="407" y="410"/>
      <point x="349" y="410" type="curve" smooth="yes"/>
      <point x="312" y="410"/>
      <point x="277" y="382"/>
      <point x="277" y="338" type="curve" smooth="yes"/>
      <point x="277" y="298"/>
      <point x="309" y="265"/>
      <point x="352" y="265" type="curve" smooth="yes"/>
      <point x="393" y="265"/>
      <point x="417" y="302"/>
      <point x="417" y="322" type="curve"/>
      <point x="396" y="314" type="line"/>
      <point x="396" y="210"/>
      <point x="279" y="26"/>
      <point x="185" y="26" type="curve" smooth="yes"/>
      <point x="140" y="26"/>
      <point x="141" y="83"/>
      <point x="141" y="131" type="curve" smooth="yes"/>
      <point x="141" y="519" type="line" smooth="yes"/>
      <point x="140" y="553"/>
      <point x="156" y="554"/>
      <point x="181" y="554" type="curve" smooth="yes"/>
      <point x="488" y="554" type="line" smooth="yes"/>
      <point x="498" y="554"/>
      <point x="508" y="560"/>
      <point x="508" y="571" type="curve" smooth="yes"/>
      <point x="508" y="581"/>
      <point x="498" y="587"/>
      <point x="488" y="587" type="curve" smooth="yes"/>
      <point x="168" y="587" type="line"/>
      <point x="167" y="587" type="line" smooth="yes"/>
      <point x="121" y="587"/>
      <point x="101" y="582"/>
      <point x="98" y="539" type="curve"/>
      <point x="105" y="546" type="line"/>
      <point x="96" y="569"/>
      <point x="62" y="587"/>
      <point x="22" y="587" type="curve" smooth="yes"/>
      <point x="0" y="587" type="line" smooth="yes"/>
      <point x="-12" y="587"/>
      <point x="-22" y="582"/>
      <point x="-22" y="570" type="curve" smooth="yes"/>
      <point x="-22" y="560"/>
      <point x="-12" y="554"/>
      <point x="0" y="554" type="curve" smooth="yes"/>
      <point x="30" y="554" type="line" smooth="yes"/>
      <point x="83" y="554"/>
      <point x="98" y="511"/>
      <point x="100" y="474" type="curve" smooth="yes"/>
      <point x="100" y="130" type="line" smooth="yes"/>
      <point x="101" y="83"/>
      <point x="94" y="-7"/>
      <point x="195" y="-7" type="curve" smooth="yes"/>
    </contour>
    <contour>
      <point x="331" y="298"/>
      <point x="314" y="316"/>
      <point x="314" y="337" type="curve" smooth="yes"/>
      <point x="314" y="357"/>
      <point x="331" y="378"/>
      <point x="354" y="378" type="curve" smooth="yes"/>
      <point x="380" y="378"/>
      <point x="394" y="357"/>
      <point x="394" y="337" type="curve" smooth="yes"/>
      <point x="394" y="316"/>
      <point x="380" y="298"/>
      <point x="354" y="298" type="curve" smooth="yes"/>
    </contour>
    <contour>
      <point x="431" y="581" type="line"/>
      <point x="431" y="670"/>
      <point x="385" y="729"/>
      <point x="303" y="729" type="curve" smooth="yes"/>
      <point x="252" y="729"/>
      <point x="198" y="705"/>
      <point x="132" y="705" type="curve" smooth="yes"/>
      <point x="76" y="705"/>
      <point x="14" y="715"/>
      <point x="14" y="795" type="curve" smooth="yes"/>
      <point x="14" y="808"/>
      <point x="7" y="818"/>
      <point x="-2" y="818" type="curve" smooth="yes"/>
      <point x="-11" y="818"/>
      <point x="-18" y="810"/>
      <point x="-18" y="799" type="curve" smooth="yes"/>
      <point x="-18" y="698"/>
      <point x="64" y="675"/>
      <point x="142" y="675" type="curve" smooth="yes"/>
      <point x="202" y="675"/>
      <point x="258" y="695"/>
      <point x="304" y="695" type="curve" smooth="yes"/>
      <point x="375" y="695"/>
      <point x="392" y="651"/>
      <point x="392" y="581" type="curve"/>
    </contour>
  </outline>
</glyph>
<glyph name="uni09A0" format="1">
  <advance width="420"/>
  <unicode hex="09A0"/>
  <note>
	uni09A0
  </note>
  <outline>
    <contour>
      <point x="335" y="7"/>
      <point x="391" y="112"/>
      <point x="391" y="217" type="curve" smooth="yes"/>
      <point x="391" y="368"/>
      <point x="274" y="473"/>
      <point x="197" y="570" type="curve"/>
      <point x="194" y="567" type="line"/>
      <point x="210" y="556"/>
      <point x="222" y="554"/>
      <point x="248" y="554" type="curve" smooth="yes"/>
      <point x="420" y="554" type="line" smooth="yes"/>
      <point x="435" y="554"/>
      <point x="443" y="560"/>
      <point x="443" y="570" type="curve" smooth="yes"/>
      <point x="443" y="583"/>
      <point x="435" y="587"/>
      <point x="420" y="587" type="curve" smooth="yes"/>
      <point x="223" y="587" type="line" smooth="yes"/>
      <point x="163" y="587"/>
      <point x="129" y="660"/>
      <point x="129" y="708" type="curve" smooth="yes"/>
      <point x="129" y="819"/>
      <point x="222" y="823"/>
      <point x="222" y="850" type="curve" smooth="yes"/>
      <point x="222" y="883"/>
      <point x="94" y="824"/>
      <point x="94" y="713" type="curve" smooth="yes"/>
      <point x="94" y="662"/>
      <point x="123" y="614"/>
      <point x="162" y="562" type="curve"/>
      <point x="164" y="568" type="line"/>
      <point x="143" y="581"/>
      <point x="120" y="587"/>
      <point x="92" y="587" type="curve" smooth="yes"/>
      <point x="0" y="587" type="line" smooth="yes"/>
      <point x="-15" y="587"/>
      <point x="-22" y="581"/>
      <point x="-22" y="570" type="curve" smooth="yes"/>
      <point x="-22" y="561"/>
      <point x="-15" y="554"/>
      <point x="0" y="554" type="curve" smooth="yes"/>
      <point x="101" y="554" type="line" smooth="yes"/>
      <point x="166" y="554"/>
      <point x="195" y="519"/>
      <point x="195" y="451" type="curve" smooth="yes"/>
      <point x="195" y="293"/>
      <point x="48" y="286"/>
      <point x="48" y="162" type="curve" smooth="yes"/>
      <point x="48" y="70"/>
      <point x="124" y="7"/>
      <point x="218" y="7" type="curve" smooth="yes"/>
    </contour>
    <contour>
      <point x="144" y="49"/>
      <point x="88" y="100"/>
      <point x="88" y="155" type="curve" smooth="yes"/>
      <point x="88" y="272"/>
      <point x="228" y="272"/>
      <point x="228" y="437" type="curve" smooth="yes"/>
      <point x="228" y="458"/>
      <point x="225" y="480"/>
      <point x="221" y="497" type="curve"/>
      <point x="215" y="496" type="line"/>
      <point x="282" y="413"/>
      <point x="351" y="323"/>
      <point x="351" y="212" type="curve" smooth="yes"/>
      <point x="351" y="123"/>
      <point x="306" y="49"/>
      <point x="218" y="49" type="curve" smooth="yes"/>
    </contour>
  </outline>
</glyph>
<glyph name="uni09A3" format="1">
  <advance width="522"/>
  <unicode hex="09A3"/>
  <note>
	uni09A3
  </note>
  <outline>
    <contour>
      <point x="451" y="587" type="line" smooth="yes"/>
      <point x="425" y="587"/>
      <point x="434" y="609"/>
      <point x="418" y="609" type="curve" smooth="yes"/>
      <point x="397" y="609"/>
      <point x="389" y="529"/>
      <point x="385" y="398" type="curve"/>
      <point x="390" y="409" type="line"/>
      <point x="358" y="504"/>
      <point x="287" y="590"/>
      <point x="183" y="590" type="curve" smooth="yes"/>
      <point x="133" y="590"/>
      <point x="20" y="556"/>
      <point x="20" y="434" type="curve" smooth="yes"/>
      <point x="20" y="330"/>
      <point x="117" y="283"/>
      <point x="172" y="283" type="curve" smooth="yes"/>
      <point x="225" y="283"/>
      <point x="250" y="319"/>
      <point x="250" y="354" type="curve" smooth="yes"/>
      <point x="250" y="391"/>
      <point x="224" y="423"/>
      <point x="180" y="423" type="curve" smooth="yes"/>
      <point x="138" y="423"/>
      <point x="111" y="392"/>
      <point x="111" y="357" type="curve" smooth="yes"/>
      <point x="111" y="339"/>
      <point x="119" y="321"/>
      <point x="131" y="309" type="curve"/>
      <point x="135" y="323" type="line"/>
      <point x="97" y="338"/>
      <point x="61" y="372"/>
      <point x="61" y="434" type="curve" smooth="yes"/>
      <point x="61" y="518"/>
      <point x="135" y="553"/>
      <point x="186" y="553" type="curve" smooth="yes"/>
      <point x="291" y="553"/>
      <point x="384" y="403"/>
      <point x="384" y="296" type="curve" smooth="yes"/>
      <point x="384" y="228"/>
      <point x="383" y="152"/>
      <point x="383" y="71" type="curve" smooth="yes"/>
      <point x="383" y="23"/>
      <point x="383" y="-12"/>
      <point x="404" y="-12" type="curve" smooth="yes"/>
      <point x="420" y="-12"/>
      <point x="422" y="9"/>
      <point x="422" y="41" type="curve" smooth="yes"/>
      <point x="422" y="361"/>
      <point x="423" y="482"/>
      <point x="431" y="574" type="curve"/>
      <point x="424" y="574" type="line"/>
      <point x="430" y="564"/>
      <point x="446" y="554"/>
      <point x="467" y="554" type="curve" smooth="yes"/>
      <point x="522" y="554" type="line" smooth="yes"/>
      <point x="531" y="554"/>
      <point x="542" y="559"/>
      <point x="542" y="570" type="curve" smooth="yes"/>
      <point x="542" y="582"/>
      <point x="531" y="587"/>
      <point x="522" y="587" type="curve" smooth="yes"/>
    </contour>
    <contour>
      <point x="140" y="374"/>
      <point x="157" y="392"/>
      <point x="180" y="392" type="curve" smooth="yes"/>
      <point x="204" y="392"/>
      <point x="219" y="374"/>
      <point x="219" y="352" type="curve" smooth="yes"/>
      <point x="219" y="330"/>
      <point x="204" y="312"/>
      <point x="180" y="312" type="curve" smooth="yes"/>
      <point x="157" y="312"/>
      <point x="140" y="330"/>
      <point x="140" y="354" type="curve" smooth="yes"/>
    </contour>
  </outline>
</glyph>
